<?xml version="1.0" encoding="utf-8"?><svg xmlns="http://www.w3.org/2000/svg" xmlns:xlink="http://www.w3.org/1999/xlink"><symbol viewBox="0 0 11 16" id="contacts-address" xmlns="http://www.w3.org/2000/svg"><path d="M5.501 0C2.463 0 0 2.417 0 5.4c0 1.525 1.515 4.258 1.515 4.258L5.298 16l3.948-6.268S11 7.124 11 5.399C11 2.417 8.538 0 5.501 0zm-.026 8.373c-1.74 0-3.149-1.392-3.149-3.113 0-1.719 1.409-3.11 3.15-3.11 1.738 0 3.15 1.391 3.15 3.11 0 1.72-1.412 3.113-3.15 3.113z"/></symbol><symbol viewBox="0 0 13 13" id="contacts-email" xmlns="http://www.w3.org/2000/svg"><path d="M1.863 11.177a6.322 6.322 0 0 0 2.128 1.341A7.68 7.68 0 0 0 6.733 13c1.112 0 2.138-.168 3.06-.513.836-.304.116-1.844-.498-1.592-.677.282-1.503.429-2.446.429a5.781 5.781 0 0 1-2.011-.335 4.386 4.386 0 0 1-1.535-.943 4.29 4.29 0 0 1-.995-1.487c-.244-.587-.36-1.257-.36-1.99 0-.692.116-1.352.35-1.939.232-.586.55-1.11.973-1.53a4.425 4.425 0 0 1 1.503-1.015 5.092 5.092 0 0 1 1.959-.367c.667 0 1.28.094 1.831.262a3.78 3.78 0 0 1 1.398.775c.392.346.699.765.92 1.268.223.503.33 1.09.33 1.76a4.6 4.6 0 0 1-.128 1.1c-.085.324-.19.618-.339.848-.137.22-.296.398-.487.524-.222.146-.55.23-.804.146-.318-.104-.254-.544-.233-.806.032-.356.127-.691.2-1.037.117-.566.244-1.121.36-1.676.064-.304.138-.618.202-.922a.634.634 0 0 0-.625-.765h-.465a.635.635 0 0 0-.615.461c-.031.126-.063.23-.063.23-.233-.712-1.09-.91-1.768-.9-.89.01-1.704.46-2.297 1.1-.053.062-.117.125-.17.188a4.03 4.03 0 0 0-.698 1.247c-.17.482-.254.974-.254 1.477 0 .43.063.838.18 1.204.127.378.306.702.54.975.232.272.529.492.878.65.35.156.741.24 1.165.24.317 0 .614-.052.878-.146a3.28 3.28 0 0 0 .688-.346c.16-.105.307-.23.424-.346.074.136.159.251.275.367.297.314.752.471 1.355.471a3.44 3.44 0 0 0 1.377-.283 3.258 3.258 0 0 0 1.153-.859c.318-.377.583-.838.773-1.382.19-.545.286-1.174.286-1.865 0-.943-.18-1.78-.53-2.483a5.199 5.199 0 0 0-1.418-1.77C10.47.954 9.792.608 9.041.367A7.132 7.132 0 0 0 6.733 0c-.921 0-1.8.168-2.615.492A6.844 6.844 0 0 0 1.98 1.865 6.356 6.356 0 0 0 .53 3.928 6.359 6.359 0 0 0 0 6.516c0 .932.159 1.812.487 2.598a5.908 5.908 0 0 0 1.376 2.063zm5.727-4.4c-.074.283-.18.556-.328.807a1.9 1.9 0 0 1-.56.597c-.213.147-.467.22-.784.22a.886.886 0 0 1-.477-.115.908.908 0 0 1-.307-.325 1.518 1.518 0 0 1-.169-.46 2.563 2.563 0 0 1-.053-.462c0-.293.042-.586.127-.89a2.74 2.74 0 0 1 .36-.796c.159-.23.339-.42.561-.566a1.18 1.18 0 0 1 .688-.199c.212 0 .381.032.508.105a.883.883 0 0 1 .307.283c.085.126.138.272.18.43.043.177.064.366.064.544-.01.262-.042.534-.117.828z"/></symbol><symbol viewBox="0 0 11 12" id="contacts-tel" xmlns="http://www.w3.org/2000/svg"><path d="M4.265 6.048c.298.364.567.63.564.629A8.752 8.752 0 0 0 6.27 8.1c.366.288.94.325 1.253.127.312-.198.912-.6 1.36-.498.378.086.878.375 1.48 1.116 1.42 1.748.148 2.294-.733 2.999-.883.704-3.794-1.04-6.46-3.884C.5 5.117-.504 2.176.234 1.31.974.444 1.59-.84 3.158.765c.666.68.905 1.221.96 1.62.065.474-.363 1.068-.575 1.378-.212.31-.218.91.03 1.313.219.355.453.679.692.972z"/></symbol><symbol fill="none" viewBox="0 0 220 80" id="firm-dd" xmlns="http://www.w3.org/2000/svg"><path d="M93.9 22.7h5.8c4.4 0 7.5 2.6 7.5 7 0 4.3-3.2 7-7.5 7h-5.8v-14zm9.7 7c0-2.2-1.3-3.8-3.8-3.8h-2.3v7.7h2.3c2.4-.1 3.8-1.9 3.8-3.9zm5 0c0-4.2 3.2-7.2 7.5-7.2s7.4 3 7.4 7.2-3.2 7.2-7.4 7.2c-4.3 0-7.5-3-7.5-7.2zm11.3 0c0-2.3-1.5-4-3.8-4s-3.8 1.8-3.8 4c0 2.3 1.5 4 3.8 4s3.8-1.8 3.8-4zm13.5 6.9l-2.3-4.7h-1.8v4.7h-3.6V22.7h7c3.1 0 4.8 2 4.8 4.6 0 2.4-1.5 3.7-2.8 4.2l2.8 5.1h-4.1zm.4-9.3c0-.9-.8-1.5-1.7-1.5h-2.8v3h2.8c.9 0 1.7-.5 1.7-1.5zm5.1 2.4c0-4.2 3.2-7.2 7.5-7.2s7.4 3 7.4 7.2-3.2 7.2-7.4 7.2c-4.3 0-7.5-3-7.5-7.2zm11.2 0c0-2.3-1.5-4-3.8-4s-3.8 1.8-3.8 4c0 2.3 1.5 4 3.8 4 2.4 0 3.8-1.8 3.8-4zm15.2 6.9V31h-5.8v5.6h-3.6V22.7h3.6v5.2h5.8v-5.2h3.6v13.9h-3.6zm5.7-6.9c0-4.2 3.2-7.2 7.5-7.2s7.4 3 7.4 7.2-3.2 7.2-7.4 7.2c-4.3 0-7.5-3-7.5-7.2zm11.3 0c0-2.3-1.5-4-3.8-4s-3.8 1.8-3.8 4c0 2.3 1.5 4 3.8 4s3.8-1.8 3.8-4zm8.9 6.9L186 22.7h4.1l3.4 10.1 3.4-10.1h4.1l-5.3 13.9h-4.5zm-97.3 7h5.8c4.4 0 7.5 2.6 7.5 7 0 4.3-3.2 7-7.5 7h-5.8v-14zm9.7 6.9c0-2.2-1.3-3.8-3.8-3.8h-2.3v7.7h2.3c2.4 0 3.8-1.8 3.8-3.9zm5.8 7V43.6h10.2v3.1H113v2.2h6.5V52H113v2.4h6.6v3.1h-10.2zm11.8-1.9l1.9-2.7c1 1 2.5 1.8 4.4 1.8 1.2 0 2-.5 2-1.2 0-1.9-7.9-.4-7.9-5.7 0-2.3 2-4.4 5.6-4.4 2.2 0 4.2.7 5.7 1.9l-2 2.6c-1.2-1-2.7-1.4-4.1-1.4-1 0-1.5.4-1.5 1 0 1.8 7.9.5 7.9 5.7 0 2.8-2.1 4.7-5.8 4.7-2.9-.1-4.8-1-6.2-2.3zm14.1 1.9V43.6h3.6v13.9h-3.6zm5.7-6.9c0-4.4 3.4-7.2 7.5-7.2 3.1 0 5 1.6 6 3.4l-3 1.6c-.5-.9-1.6-1.8-2.9-1.8-2.3 0-3.9 1.7-3.9 4s1.6 4 3.9 4c1 0 2.1-.4 2.6-.8v-1.1h-3.1v-3.2h6.7V55c-1.5 1.6-3.5 2.7-6.2 2.7-4.2.1-7.6-2.7-7.6-7.1zm25.7 6.9l-5.9-8.1v8.1h-3.6V43.6h3.7l5.6 7.7v-7.7h3.6v13.9h-3.4z" fill="#000"/><path d="M61.9 18.9l-6.5 6.7c.7.4 1.4.8 2 1.3l6.3-6.1c1-1 2-1.9 2.9-2.8-.7-.6-1.4-1.2-2.1-1.7l-2.6 2.6zM31.6 64.4l-1.2 1.2c-1.5 1.6-2.9 3-4.1 4.4h2.8c.9-.9 1.9-1.8 2.9-2.8l1.1-1.1c1.6-1.5 3.2-3.1 4.8-4.8 1-1.1 2.1-2.2 3.2-3.4h-3c-.6.6-1.2 1.1-1.8 1.7-1.7 1.7-3.2 3.3-4.7 4.8zm3.6 3.8l-1 1-.8.8h3.2l.2-.2c1.6-1.5 3.2-3.1 4.8-4.8 1.3-1.4 2.6-2.8 4-4.3.6-.7 1.3-1.4 2-2.1.4-.5.9-.9 1.3-1.4-.9.2-1.8.4-2.8.5-.6.6-1.2 1.1-1.8 1.7-1.5 1.4-2.9 2.7-4.3 4-1.7 1.6-3.2 3.2-4.8 4.8zM73.1 30l-6.5 6.7c-1.1 1.1-2.1 2.2-3.1 3.3 0 1.1-.1 2.1-.3 3.1l5.1-4.8 6.7-6.5.1-.1c-.2-1-.5-1.9-.9-2.9-.4.5-.8.9-1.1 1.2zm-13.4-1.2c.5.6 1 1.2 1.4 1.9l6.4-6.2c1-1 1.9-1.8 2.7-2.7-.5-.7-1.1-1.4-1.7-2.1-.9.9-1.8 1.8-2.8 2.9l-6 6.2zm-8-6.9c-.5.6-1.1 1.1-1.6 1.7.9.2 1.7.4 2.5.7.3-.2.5-.5.8-.7l6.7-6.5c.8-.8 1.5-1.5 2.3-2.2-.8-.5-1.6-.9-2.5-1.3-.5.5-1.1 1.1-1.6 1.7l-6.6 6.6zm19.5 6.3l1.8-1.8c-.4-.8-.9-1.7-1.3-2.5l-2.4 2.4-6.5 6.7c-.1.2-.3.3-.4.4.3.8.5 1.6.7 2.5.5-.4.9-.9 1.4-1.3l6.7-6.4zM71.1 55l-.5.6c-2 2.1-4.1 4.4-6.1 6.4-1.5 1.5-3.1 3-4.7 4.6 1.6-.7 3.1-1.6 4.5-2.6l1.1-1.1c1.7-1.7 3.4-3.4 5.2-5 1.3-1.7 2.4-3.6 3.2-5.7-1 1-1.9 1.9-2.7 2.8zM43.6 22.8c.9 0 1.8.1 2.7.2 1.1-1 2.2-2.1 3.3-3.2l6.7-6.5.9-.9c-.9-.3-1.9-.6-2.8-.9L48 18.2c-1.5 1.6-3 3.1-4.4 4.6zm26.7 17.7c-2.3 2.4-4.5 4.7-6.6 7.1l-.5.6c-2 2.2-4.1 4.4-6.2 6.5-2.1 2.1-4.4 4.3-6.8 6.5-.7.7-1.4 1.3-2.1 1.9-1.5 1.4-3 2.7-4.3 4L40.9 70h3.3l1.2-1.2c1.3-1.4 2.6-2.8 4-4.3.6-.7 1.3-1.4 2-2.1 2.2-2.4 4.3-4.7 6.5-6.8 2.1-2.1 4.3-4.2 6.5-6.2l.5-.5c2.4-2.2 4.7-4.4 7.1-6.6l4-3.9-.3-3.3-5.4 5.4zm3.7 3.7c-2.2 2.3-4.5 4.7-6.6 7.1l-.7.7c-2 2.1-4 4.3-6.1 6.4-2.1 2.1-4.4 4.3-6.8 6.5-.7.7-1.4 1.3-2.1 1.9-1.1 1-2.1 2-3.1 2.9l3.6-.6.9-.9c.6-.7 1.3-1.4 1.9-2.1 2.1-2.4 4.3-4.6 6.5-6.8 2.1-2.1 4.3-4.1 6.4-6.1l.6-.5c2.3-2.1 4.6-4.3 6.9-6.5.2-1.2.4-2.5.4-3.8L74 44.2zm-47-32l.7-.6c.6-.5 1.2-1.1 1.8-1.6h-2.6l-.4.4-.5.6c-2 2.2-4.1 4.4-6.2 6.5l-.8.8v1.8c.6-.6 1.1-1.2 1.7-1.7 2-2.1 4.2-4.2 6.3-6.2zm-2.5 47.6l1-1c1.6-1.6 3.3-3.2 5-5 .3-.4.7-.7 1-1.1v-3.1c-.9.8-1.8 1.7-2.7 2.5-1.7 1.6-3.2 3.2-4.7 4.7L23 58.1c-1.5 1.5-2.8 3-4 4.3V65c.4-.3.7-.7 1.1-1 1.3-1.2 2.8-2.7 4.4-4.2zm13.1-38.2l-.5.5-.7.7h2.3c2.3-2.1 4.7-4.4 7.1-6.6l5.5-5.3c-1-.2-2-.4-3.1-.5l-4 4.2c-2.2 2.2-4.4 4.6-6.6 7zM21.9 55c1.6-1.5 3.2-3.1 4.9-4.9 1.3-1.4 2.7-2.8 4.1-4.4.2-.2.4-.5.7-.7v-2.5c-.7.6-1.4 1.3-2 1.9-1.5 1.4-3 2.7-4.4 4.1-1.7 1.6-3.2 3.2-4.7 4.7l-1.2 1.2-.3.3v3.1c.6-.6 1.2-1.1 1.8-1.7l1.1-1.1zm1.2-8.6c1.3-1.4 2.7-2.8 4.1-4.3.6-.7 1.3-1.4 1.9-2.1.8-.9 1.6-1.8 2.5-2.7v-1.9c-1.2 1.1-2.4 2.3-3.7 3.4-.7.7-1.4 1.3-2.1 2-1.5 1.4-2.9 2.7-4.3 4-.8.8-1.7 1.6-2.4 2.4v3.3c1.2-1.3 2.6-2.6 4-4.1zm4.7 14.3l-1 1c-1.6 1.7-3.1 3.2-4.4 4.6-.5.5-1 1-1.4 1.5-.7.8-1.4 1.5-1.9 2.1h2.2c.3-.3.6-.6 1-.9.5-.4 1-.9 1.5-1.4 1.4-1.3 3-2.8 4.7-4.4l.8-.8c1.5-1.4 3-2.9 4.6-4.6h-2.3v-1c-1.4 1.5-2.6 2.7-3.8 3.9zM19.7 10l-.7.7v1.9c.9-.9 1.8-1.7 2.8-2.6h-2.1zm11.2 5.8l.5-.4c1.9-1.7 3.8-3.5 5.7-5.3H34c-1.3 1.4-2.6 2.8-3.8 4.1l-.5.6c-2 2.1-4.1 4.4-6.1 6.4-1.4 1.5-3 2.9-4.5 4.4v2.1c1.8-2 3.6-3.9 5.4-5.6 2-2.2 4.3-4.3 6.4-6.3zm-9.2 16.7c2.1-2.4 4.3-4.6 6.5-6.8 2-2.1 4.2-4.1 6.4-6.1l.6-.6c2.3-2.1 4.7-4.4 7.1-6.6l2.5-2.4h-3.4l-.7.8c-2.2 2.3-4.5 4.7-6.6 7.1l-.6.7c-2 2.1-4 4.3-6.1 6.3-2.1 2.1-4.4 4.3-6.8 6.5-.5.5-1 .9-1.5 1.3v2.7c.2-.3.5-.5.7-.8.5-.6 1.2-1.3 1.9-2.1zm1.7 5.9c.6-.7 1.3-1.4 1.9-2.1 2-2.3 4.1-4.4 6.2-6.5V28l-.6.6c-2.1 2.2-4.4 4.3-6.8 6.5-.7.6-1.4 1.3-2 1.9-1.1 1-2.1 2-3.1 2.9v3.2l.4-.4c1.3-1.4 2.6-2.8 4-4.3zm19.6 4l-1.2-1.2v3.3c.9.9 1.8 1.7 2.8 2.6.9 0 1.8-.1 2.6-.3-1.4-1.4-2.8-2.9-4.2-4.4zm5.8-5.7c1.4 1.4 2.9 2.7 4.3 4.1 0-.3.1-.6.1-.9 0-.9-.1-1.6-.3-2.3-.8-.8-1.6-1.7-2.4-2.5l-1.4-1.4c-1.2-.5-2.6-.7-4.2-.7l3.9 3.7zm-3.7 3.7c1.8 1.7 3.5 3.4 5.3 5 .5-.4 1-.8 1.3-1.3-1.6-1.8-3.3-3.5-5-5.3l-4.9-5.1v3.6l3.3 3.1z" fill="#008CCF"/></symbol><symbol fill="none" viewBox="0 0 220 80" id="firm-ic" xmlns="http://www.w3.org/2000/svg"><path fill-rule="evenodd" clip-rule="evenodd" d="M204.6 56.5l-5.5-9.7-.5.1c-.9.2-1.8.2-2.8.2-3.8 0-7.1-1.3-9.8-4-2.7-2.7-4.1-5.8-4.1-9.6V19.1h5v14.5c0 2.4.9 4.4 2.6 6.1 1.7 1.7 3.8 2.5 6.3 2.5 2.4 0 4.5-.8 6.2-2.5 1.7-1.7 2.6-3.7 2.6-6.1V19.1h5v14.5c0 3.7-1.4 6.9-4 9.6-.3.3-.7.6-1 .9l-.8.6 6.7 11.8h-5.9zm-27.5-9.2c-3.9 0-7.3-1.4-10.1-4.1-2.8-2.7-4.2-6.1-4.3-10V13.9h5.2v5.2h8.6v5.1h-8.6v8.9c0 2.5.9 4.6 2.7 6.4 1.8 1.8 3.9 2.7 6.4 2.7h3.1v5.2h-3v-.1zm-41.2-.1c-4.1 0-7.5-1.4-10.4-4.2-2.9-2.8-4.3-6.3-4.3-10.3 0-4 1.4-7.4 4.3-10.3 2.9-2.8 6.3-4.2 10.4-4.2 4 0 7.5 1.4 10.3 4.2 1.3 1.2 2.2 2.6 2.9 4.1h-6.3l-.4-.4c-1.8-1.8-4-2.7-6.6-2.7-2.6 0-4.8.9-6.7 2.7-1.8 1.8-2.8 4-2.8 6.5 0 2.6.9 4.7 2.8 6.5 1.8 1.8 4.1 2.7 6.7 2.7 2.6 0 4.8-.9 6.6-2.7l.4-.4h6.3c-.7 1.5-1.7 2.8-2.9 4.1-2.8 3-6.3 4.4-10.3 4.4zm17.9-.8V26.7c0-1.1-.3-1.8-.9-2.2-.4-.2-.7-.3-1.2-.4h.1V19c1.2 0 2.4.3 3.6 1 2.4 1.3 3.6 3.6 3.6 6.7v19.6h-5.2v.1zm-49.6-11.1v-5.1h10.9v5.1h-10.9z" fill="#4A4A4A"/><path fill-rule="evenodd" clip-rule="evenodd" d="M83.5 47.2c-4.1 0-7.5-1.4-10.4-4.2-2.9-2.8-4.3-6.3-4.3-10.3 0-4 1.4-7.4 4.3-10.3 2.9-2.8 6.3-4.2 10.4-4.2 4 0 7.5 1.4 10.3 4.2 2.9 2.8 4.3 6.2 4.3 10.3 0 4-1.4 7.4-4.3 10.3-2.8 2.8-6.2 4.2-10.3 4.2zm-63.1-.7V32c0-3.7 1.4-6.9 4.1-9.6 2.7-2.7 6-4 9.8-4 3.8 0 7.1 1.3 9.8 4 2.7 2.7 4 5.8 4 9.6v14.5h-5V32c0-2.4-.9-4.4-2.6-6.1-1.7-1.7-3.8-2.5-6.2-2.5-2.4 0-4.5.8-6.3 2.5-1.7 1.7-2.6 3.7-2.6 6.1v14.5h-5zm30.9 0V27.2c0-3.9 1.5-7.2 4.3-10 2.8-2.7 6.2-4.1 10.1-4.1h3.1v5.2h-3.1c-2.5 0-4.7.9-6.4 2.6-1.8 1.8-2.7 3.9-2.7 6.3v8.9h8.6v5.1h-8.6v5.2h-5.3v.1zm-38.7-.1V26.7c0-1.1-.3-1.8-.9-2.2-.4-.2-.7-.3-1.2-.4V19c1.2 0 2.4.3 3.6 1 2.4 1.3 3.6 3.6 3.6 6.7v19.6h-5.1v.1zM83.5 42c2.6 0 4.8-.9 6.6-2.7 1.8-1.8 2.8-4 2.8-6.5 0-2.6-.9-4.7-2.8-6.5-1.8-1.8-4-2.7-6.6-2.7-2.6 0-4.8.9-6.7 2.7-1.8 1.8-2.8 4-2.8 6.5 0 2.6.9 4.7 2.8 6.5 1.9 1.8 4.1 2.7 6.7 2.7z" fill="#9CC708"/><path d="M57.7 62.2c0 .8-.3 1.3-.9 1.7-.6.4-1.5.6-2.7.6h-2.9c.1-.7.1-2 .1-3.8 0-1.6-.1-3-.3-4h.9c.8-.1 1.7-.1 2.5-.1 2 0 3 .6 3 1.8 0 .9-.4 1.5-1.2 1.8v.1c1 .2 1.5.8 1.5 1.9zM56 58.8c0-.8-.6-1.1-1.7-1.1-.6 0-1.2 0-1.9.1 0 .8.1 1.6.1 2.3h1.8c.6 0 1-.1 1.3-.4.3-.2.4-.5.4-.9zm.3 3.5c0-.6-.3-.9-.8-1.1-.3-.2-.8-.2-1.5-.2-.5 0-1 0-1.6.1v2.4c.5.1 1.1.1 1.8.1 1.5-.1 2.1-.5 2.1-1.3zm15.3-2.6v.9l-5.7.1c.1.8.4 1.5.9 2 .6.5 1.3.8 2.3.8.8 0 1.6-.1 2.4-.3l-.1 1.2c-.5.2-1.3.3-2.3.3-1.4 0-2.5-.4-3.3-1.2-.8-.8-1.1-1.7-1.1-2.8 0-1.2.3-2.2 1-3.1.7-.9 1.6-1.3 2.8-1.3 1.1 0 1.9.3 2.4.9.4.7.7 1.5.7 2.5zm-1.4 0c0-1.5-.7-2.3-2-2.3s-2.1.8-2.3 2.4l4.3-.1zm16.1.8c0 1.4-.4 2.4-1.2 3.2-.8.7-1.8 1.1-2.9 1.1-1.5 0-2.5-.6-3.1-1.7-.4-.9-.7-2.2-.7-4.1 0-2 .5-3.5 1.4-4.5.7-.8 1.9-1.2 3.4-1.4.9-.1 1.8-.2 2.8-.4l-.1 1.3c-.5 0-1.4.1-2.9.3-1.1.1-1.9.4-2.4.8-.6.5-.9 1.5-.9 2.8h.1c.7-.8 1.6-1.2 2.8-1.2 1.1 0 2 .3 2.7.9.7.8 1 1.7 1 2.9zm-1.4.3c0-.8-.2-1.5-.6-2.1-.4-.6-1.1-.8-1.9-.8-1.1 0-2 .4-2.7 1.2 0 1.7.2 2.9.6 3.6.4.7 1.1 1.1 2 1.1.8 0 1.4-.3 1.9-.9.5-.6.7-1.3.7-2.1zm11.2-1.1l-.1 1.1-3.6.1.1-1 3.6-.2zm12.5 3.5l-.1 1.1c-.4.3-1 .4-1.8.4-1.4 0-2.5-.4-3.3-1.2-.8-.8-1.1-1.7-1.1-2.8 0-1.2.4-2.2 1.2-3 .8-.8 1.9-1.3 3.2-1.3.7 0 1.2.1 1.6.2l-.2 1.3c-.6-.2-1.2-.3-1.8-.3-.8 0-1.4.3-1.9.8s-.7 1.2-.7 2c0 .9.3 1.6.8 2.2.6.6 1.3.9 2.3.9.5 0 1.1-.1 1.8-.3zm12.8-6.5v1.2c-.9-.1-1.8-.1-2.7-.1v2.9c0 1.3 0 2.6.1 3.7h-1.5c.1-1.1.1-2.3.1-3.7 0-1.2 0-2.2-.1-2.9-.9 0-1.8 0-2.7.1v-1.2h6.8zm13 0c0 .3-.4 1.5-1.3 3.3-1 2.1-1.6 3.7-1.8 4.5-.4 1.4-.7 2.3-1.1 2.7-.4.5-1.2.8-2.4.8l-.1-1.1c.7 0 1.3-.2 1.7-.7.4-.5.7-1 .7-1.7 0-.6-.5-2-1.5-4.3s-1.5-3.4-1.5-3.5h1.7c0 .1.3 1.1 1 3 .7 1.8 1 3 1 3.4h.1c0-.4.3-1.4.9-3.1.6-1.7.9-2.8.9-3.3h1.7zm14.6 6.7c0 .3-.1 1-.2 2-.1 1.1-.2 1.9-.2 2.4h-1v-3.4h-6c-.3 1.6-.4 2.7-.4 3.4h-1v-4.5h.8c.6-2 1.5-4.2 2.9-6.7h2.4l1.1-.2c-.1 1.1-.1 2.5-.1 4.2 0 .7 0 1.6.1 2.7h1.6v.1zm-2.9 0c-.1-1.1-.1-2-.1-2.7 0-1.1 0-2.1-.1-3h-1.4c-.3.6-.8 1.4-1.2 2.5-.5 1-.9 2.1-1.1 3.3h3.9v-.1zm16.3 1.1h-1.5c.1-.9.1-2.2.1-3.7 0-.4 0-1.1.1-2h-.1c-.1.4-.9 1.4-2.3 3-1.3 1.5-2 2.5-2 2.8h-1.2c.1-1.1.1-2.3.1-3.7 0-1.6-.1-2.9-.3-4l1.6-.2c-.1 1-.1 2.3-.1 3.9v2.1h.1c.1-.3.9-1.3 2.3-3 1.3-1.5 1.9-2.5 1.9-2.8l1.2-.2c-.1 1.1-.1 2.5-.1 4.2.1 1.2.1 2.4.2 3.6zm13.6 0h-1.5c0-.9.1-2 .1-3.3-.5 0-1-.1-1.5-.1-.8 0-1.4.2-1.7.5-.3.4-.7 1.3-1.1 2.8H169c.4-1.3.8-2.3 1.1-2.8.3-.5.6-.9 1-.9v-.1c-1.1-.3-1.7-.9-1.7-1.8 0-1.5 1-2.3 2.9-2.3.8 0 1.6 0 2.6.1l1-.2c-.1 1.2-.1 2.6-.1 4.2.1 1.9.2 3.1.2 3.9zm-1.3-4.3c0-1.1 0-1.9-.1-2.4-.7-.1-1.5-.1-2.4-.1-1 0-1.4.4-1.4 1.3s.8 1.3 2.4 1.3c.4-.1.9-.1 1.5-.1z" fill="#6B6A67"/></symbol><symbol fill="none" viewBox="0 0 220 80" id="firm-rusmed" xmlns="http://www.w3.org/2000/svg"><path d="M24.9 55.7c2.6 0 4.7 2.2 4.7 4.7 0 2.6-2.2 4.7-4.7 4.7-2.6 0-4.7-2.1-4.7-4.8 0-2.5 2.1-4.6 4.7-4.6zm18.5-21.5c2.6 0 4.7 2.1 4.7 4.7s-2.1 4.7-4.7 4.7-4.7-2.1-4.7-4.7c0-2.7 2.1-4.8 4.7-4.7zm17.1 7.7c0 2.6-2.1 4.7-4.7 4.7s-4.7-2.1-4.7-4.7 2.1-4.7 4.7-4.7c2.5 0 4.7 2.1 4.7 4.7zm-20.1 14c-2.6 0-4.7-2.1-4.7-4.7s2.1-4.7 4.7-4.7 4.7 2 4.7 4.7c0 2.6-2.1 4.7-4.7 4.7zM28 52.8c-2.6 0-4.7-2.1-4.7-4.7s2.1-4.7 4.6-4.7c2.7 0 4.8 2.1 4.8 4.7s-2 4.7-4.7 4.7z" fill="#189DD9"/><path d="M31.1 40.5c-2.6 0-4.7-2.1-4.7-4.7s2.1-4.7 4.7-4.7 4.7 2.1 4.7 4.7-2.1 4.7-4.7 4.7zm-9.3-15.4c-2.6 0-4.7-2.2-4.7-4.8 0-2.6 2.2-4.7 4.9-4.6 2.5 0 4.6 2.2 4.6 4.8-.1 2.5-2.2 4.6-4.8 4.6zm1.7 7.6c0 2.6-2.1 4.7-4.7 4.7s-4.7-2.1-4.7-4.7 2.1-4.7 4.7-4.7 4.7 2.1 4.7 4.7zm-6.2 24.7c0 2.6-2.1 4.7-4.7 4.7s-4.7-2.2-4.7-4.8c0-2.6 2.2-4.7 4.8-4.6 2.6 0 4.6 2.1 4.6 4.7zM11 45.1c0-2.6 2.1-4.7 4.7-4.8 2.6 0 4.7 2.1 4.7 4.7s-2.1 4.7-4.7 4.8c-2.6 0-4.7-2.1-4.7-4.7zm23.2-26.4c2.6 0 4.7 2.1 4.7 4.7s-2.1 4.7-4.7 4.7-4.7-2.1-4.7-4.7c-.1-2.5 2-4.7 4.7-4.7z" fill="#E31F27"/><path d="M211 28c-.2 1.2-.5 2.4-.7 3.6-.9 5-1.7 10-2.6 15.1h-2.8c0-.4 0-.7-.1-1.2-.2.1-.4.2-.5.3-1.8 1.2-3.7 1.6-5.8 1.1-1.8-.4-2.8-1.8-3-3.9-.3-2.4 0-4.7.5-7 .4-1.7.8-3.3 1.5-4.9 1.2-2.8 3.5-4.2 6.6-4.4 2.4-.1 4.7.2 6.9 1.1v.2zm-3.7 1h-2.2c-2.1-.1-3.5.8-4.3 2.7-.6 1.4-1 2.8-1.3 4.3-.4 1.9-.7 3.9-.5 5.9.2 2 1.3 3.1 3.3 2.9.7-.1 1.4-.3 2.1-.5.3-.1.5-.3.6-.7.5-2.9 1-5.9 1.5-8.8.2-1.9.5-3.8.8-5.8zM76.1 38.5c-.4 2.5-.8 4.9-1.3 7.3-.2 1.1.1.9-1.1.9h-3.5s-.1 0-.2-.1c.2-1.1.4-2.3.6-3.4 1.1-6.2 2.1-12.4 3.2-18.6.3-1.5.5-3.1.8-4.6 0-.2.2-.5.4-.5 3.2-.8 6.5-1.1 9.8-.4 2.9.6 4.3 2.5 4.4 5.6.1 3.2-.5 6.3-1.9 9.1-1.8 3.9-5.1 5.3-9.2 4.9-.6 0-1.2-.1-2-.2zm.5-2.8h2.1c2 0 3.5-.9 4.4-2.7 1.2-2.6 1.7-5.3 1.5-8.1-.1-2-1.1-3-2.9-3.2-.9-.1-1.8 0-2.7 0-.8 4.7-1.6 9.3-2.4 14zm14.3-8.6h4.4c0 .7.1 1.4.1 2.1.2 4.4.5 8.9.7 13.3 0 .5.1 1 .7 1.3.1-.2.2-.4.3-.7 1.8-5.2 3.7-10.4 5.5-15.5.1-.4.3-.5.7-.5h3.8c-.1.2-.1.3-.1.5-2.4 6.6-4.7 13.3-7.1 19.9-.6 1.7-1.3 3.2-2.4 4.6-2.5 3.2-6.2 3.4-9.2 2.2 0 0-.1-.1-.2-.1.1-.6.2-1.2.3-1.9h2.4c1.3 0 2.4-.5 3-1.6.7-1.1 1.2-2.3 1.9-3.5-2.7-.5-3.9-1.9-4.1-4.8-.2-3.7-.4-7.5-.6-11.2 0-1.4-.1-2.7-.1-4.1zm46.4 19.6c.5-4.6.9-9.2 1.4-13.9-.1 0-.1 0-.2-.1-.1.2-.2.3-.3.5-1.8 3.3-3.6 6.7-5.4 10.1-.2.3-.4.5-.8.5h-2.5c-.7-3.7-1.4-7.4-2.2-11h-.2c-.1.2-.1.4-.2.5-1 4.3-2.1 8.6-3.1 12.9-.1.4-.2.5-.6.5h-2.8c1.6-6.6 3.1-13.1 4.7-19.6h3.7c.1 0 .3.2.4.4.5 2.5 1 4.9 1.4 7.4.3 1.4.5 2.8.8 4.2 0 .1.1.3.2.5.2-.3.3-.5.4-.6 2-3.8 4.1-7.6 6.1-11.4.2-.4.4-.5.8-.5h3.4c-.7 6.5-1.4 13-2 19.6h-3zm35.6-16.3c.7-3-.3-5.8-2.5-7.4-1.5-1.1-3.1-1.7-4.9-2.1-.1 0-.3-.1-.5-.1.2-.6.4-1.1.6-1.7 0-.1.3-.2.4-.2 2.7.3 5.3.9 7.4 2.7 1.8 1.5 2.6 3.6 2.8 5.8.2 2.3-.1 4.6-.6 6.8-.4 2.2-.8 4.5-1.3 6.7-.4 1.7-1.2 3.3-2.6 4.4-1.9 1.6-4.1 1.8-6.4 1.7-.3 0-.6-.1-.8-.1-2.6-.5-3.9-2-4-4.6-.2-2.9.3-5.6 1.5-8.3 1.8-4.2 6.1-5.8 10.3-4 .2.2.4.3.6.4zm-9 10.9c.1.5.2 1.3.4 2.1.3 1 1 1.5 2 1.6 1.5.2 2.7-.4 3.5-1.7.6-1 1.1-2 1.3-3.1.5-2.3.9-4.6 1.3-6.9.1-.6 0-.8-.6-1-2.6-1.1-5.3-.2-6.5 2.3-.9 2-1.2 4.2-1.4 6.7zm23.7 5.4v-1.2c-.2.1-.4.2-.5.3-2.1 1.5-4.5 1.7-6.9.9-1.6-.5-2.4-2.1-2.2-4.1.1-1.2.3-2.4.5-3.6.6-3.8 1.3-7.6 2-11.3 0-.2.1-.4.1-.6h3.4c-.2 1.4-.5 2.7-.7 4.1-.6 3.5-1.2 6.9-1.8 10.4-.3 1.8.5 2.9 2.3 3.2 1.1.2 2.1-.1 3.1-.5.4-.1.5-.4.6-.8.9-5.4 1.9-10.8 2.8-16.2 0-.1 0-.1.1-.2h3.4c-.1.8-.3 1.7-.4 2.5-1 5.5-1.9 11.1-2.8 16.6-.1.4-.2.6-.7.6-.7-.1-1.5-.1-2.3-.1zm-31-1.9c-.1.5-.1.8-.2 1.2 0 .2-.2.4-.4.4-2.5.7-5.1 1-7.7.3-2-.5-3.1-1.9-3.4-4-.3-2.1 0-4.1.4-6.2.3-1.8.8-3.6 1.5-5.3 1.3-3 3.5-4.6 6.8-4.6.9 0 1.9 0 2.7.2 2.2.5 3.5 2.1 3.5 4.4 0 1.2-.2 2.4-.7 3.6-1 2.3-2.9 3.3-5.3 3.5-1.6.1-3.3.1-4.9.1-.4 0-.5.1-.6.5 0 .8-.2 1.5-.2 2.3.1 2.2 1.1 3.3 3.3 3.5 1.2.1 2.4.1 3.6.1h1.6zm-7.7-8.7c1.5 0 2.9.1 4.3 0 1.7-.1 2.8-1.1 3.1-2.7.1-.6.2-1.3.1-2-.1-1.7-1.6-2.8-3.3-2.5-1.2.2-2 1-2.6 2-.9 1.6-1.3 3.4-1.6 5.2zm-30 8.3c-.1.6-.2 1.2-.3 1.7 0 .1-.2.3-.3.3-2.4.7-4.9 1-7.3.4-2.4-.6-3.8-2.2-4-4.7-.3-3.8.3-7.5 2-10.9 1.4-2.9 3.8-4.4 7.1-4.5 1.7-.1 3.4.1 5 .6.3.1.5.2.4.6-.3 1.5-.3 1.5-1.8 1.5h-2.4c-1.7 0-3 .7-3.7 2.2-.6 1.2-1 2.5-1.4 3.8-.5 1.9-.8 3.8-.6 5.7 0 .3.1.7.2 1 .3 1.4 1.2 2.1 2.7 2.2h3.9c.1.1.3.1.5.1zm69.3 14.5c-.2.7-.5 1.3-.7 2-.1.3-.1.5-.6.5-.4 0-.4-.3-.5-.5-.3-.7-.5-1.3-.9-2-.1 1-.2 2-.2 3.1h-.8l.3-4.5c.9-.2.9-.2 1.2.6.3.7.5 1.4.9 2.3.4-.9.6-1.8 1-2.6.1-.2.3-.4.5-.4.4-.1.6.1.7.6 0 1.3.2 2.6.2 4-.7.2-.8.1-.8-.5-.1-.9-.1-1.7-.2-2.6h-.1zm-29.5 0c-.2.7-.5 1.3-.7 2-.1.3-.2.5-.6.5-.4 0-.4-.2-.5-.5-.2-.7-.5-1.3-.9-2-.1 1-.2 2.1-.2 3.1h-.7l.3-4.5c.9-.2.9-.2 1.2.6.3.7.5 1.4.9 2.3.2-.4.3-.6.4-.9.2-.4.3-.9.5-1.3.3-.8.3-.8 1.2-.6l.3 4.5h-.8c-.1-1-.2-2.1-.2-3.1-.1-.1-.2-.1-.2-.1zM134.3 62v1.9h-.8V58c0-.2.1-.5.1-.5.2 0 .5 0 .8.1 1.1-.6 2.1-.2 2.3 1.2.1.7.1 1.4 0 2-.2 1.2-.9 1.6-2 1.2h-.4zm0-2.3v1.4c0 .3.1.5.4.5.6.1 1-.1 1.1-.7.1-.6.1-1.2.1-1.8 0-.3-.1-.6-.2-.8-.2-.4-.6-.4-1.1-.4-.4.1-.3.4-.3.7v1.1zm72.3-2.2V62h-.8v-3h-.1c-.1.1-.1.2-.2.3-.3.7-.7 1.5-1 2.2-.3.6-.3.6-1.1.5v-4.5h.7v3h.1c.2-.3.3-.7.5-1 .2-.5.5-.9.6-1.4.3-.7.7-.8 1.3-.6zm-59.7-.1h2.5c.1 0 .3.2.3.3V62h-.8v-4h-1.2c0 .7-.1 1.4-.1 2 0 .5-.1.9-.2 1.4-.1.5-.5.8-1.1.7-.1 0-.2-.1-.3-.2.1-.1.1-.2.2-.3.2-.3.5-.7.5-1 .1-1 .1-2.1.2-3.2zm25.6 4.6h-.7v-1.7c-.6-.1-.9.1-1 .5-.1.3-.2.6-.4.9-.2.2-.4.3-.7.4-.1 0-.4-.1-.5-.2l.3-.3.3-.6c.2-.3.3-.6.5-1-.5-.2-.9-.5-.9-1.1-.1-1 .3-1.5 1.3-1.5 1.8-.1 1.9-.1 1.9 1.7v2.8c-.1 0-.1 0-.1.1zm-.8-4.2c-.4 0-.8 0-1.1.1-.4.1-.6.6-.5 1.2.1.5.5.6 1.2.6.6 0 .3-.5.3-.7.2-.4.1-.7.1-1.2zm21.9-.3V62h-.8v-4h-1.6v4h-.8v-3.4c0-1.2 0-1.2 1.2-1.2h1.8s.1 0 .2.1zm17.3 4.5h-.8v-1.7c-.6-.1-.9.1-1 .6-.1.3-.2.6-.3.8-.2.5-.6.5-1 .4-.1 0-.2-.1-.2-.2 0 0 .1-.1.1-.2.2-.2.4-.5.6-.7.2-.3.3-.6.5-.9-.5-.2-.9-.5-.9-1.1-.1-1 .3-1.5 1.3-1.6 1.8-.1 1.8-.1 1.8 1.7-.1.9-.1 1.9-.1 2.9zm-.8-4.1c-.5 0-1.1-.2-1.4.3-.2.3-.2.8 0 1.1.3.5.9.3 1.4.3v-1.7zm-11.1-.5h.7v1.9h1.6v-1.9h.8V62h-.8v-2h-1.6v2h-.7v-4.6zm-1.2 4.7c-.3 0-.5-.1-.6-.1-.1 0-.3-.1-.4 0-.6.3-1.2.3-1.8-.1-.4-.4-.5-1.4-.2-2 .2-.3.6-.5.9-.6.4-.1.8 0 1.2 0 .1-.5.2-1.1-.4-1.3-.4-.2-1-.1-1.5-.3.1-.1.3-.2.4-.3.5 0 1-.1 1.4 0 .6.1.9.4.9 1.1.1 1.2.1 2.3.1 3.6zm-.9-2.3c-1.2-.2-1.8.3-1.5 1.2.1.5.5.6.9.5.2 0 .5-.2.5-.4.2-.4.1-.8.1-1.3zm-20 2.2h-.8v-4.6h.7v1.8c.4.1.7 0 .8-.4.1-.4.3-.7.4-1.1.2-.5.6-.5 1.1-.4.1 0 .2.1.2.2 0 0-.1.1-.1.2-.2.2-.4.4-.5.7-.2.4-.4.8-.5 1.1.2.5.4.9.6 1.4.1.3.1.8.6.8l.1.2c0 .1-.1.2-.2.2-.5.1-.9-.1-1.1-.6-.1-.3-.2-.7-.3-1-.1-.4-.4-.7-1-.6V62zM144 59.7c.5.2.6.8.7 1.3.1.3.1.7.6.8l.1.2c0 .1-.1.2-.2.2-.5.1-.9-.1-1.1-.6-.1-.3-.2-.7-.3-1-.1-.5-.4-.7-1-.5v2h-.7v-4.6h.7v1.8c.5.2.7 0 .8-.4.1-.4.3-.7.4-1.1.2-.5.6-.5 1.1-.4.1 0 .2.1.2.1 0 .1 0 .2-.1.2-.5.1-.5.5-.7.9-.1.3-.3.7-.5 1.1zm39.6-.1c0 .4-.1.7-.1 1-.1 1.2-.7 1.7-1.9 1.6-.6 0-1.1-.4-1.3-1-.3-.9-.3-1.9 0-2.8.2-.7.7-1 1.5-1s1.3.3 1.5 1c.2.4.2.8.3 1.2zm-.8.1c-.1-.5-.2-1-.3-1.4-.1-.2-.4-.4-.7-.4-.2 0-.5.2-.6.4-.4 1-.4 1.9 0 2.9.1.2.4.5.6.4.2 0 .6-.2.7-.4l.3-1.5zm-19.5.3h-1.6v2h-.8v-4.6h.7v1.9h1.6v-1.9h.8v3.9c0 .7 0 .7-.8.6.1-.5.1-1.2.1-1.9zm4.1-.8c.1-1.1-.1-1.4-1.2-1.4h-.7c0-.1 0-.1-.1-.2.1-.1.3-.2.4-.3.5 0 1-.1 1.4 0 .6.1.9.5.9 1.1v3.5c-.3-.1-.5-.1-.7-.1h-.3c-.4.1-.8.2-1.1.2-.5 0-.8-.3-.9-.8-.1-.3-.1-.7 0-1 .1-.7.4-1 1.1-1h1.2zm.1.6h-.5c-.8 0-1.2.5-1 1.3.1.5.5.6 1 .6s.5-.3.5-.7v-1.2zM141 60h-2.4c-.2 1.1.2 1.6 1.3 1.6h.6c.1 0 .2.1.3.2l-.2.2c-1.7.4-2.7 0-2.8-1.7 0-.7 0-1.4.2-2.1.2-.7.6-1 1.4-1 .8 0 1.2.3 1.4 1 .1.6.1 1.2.2 1.8zm-.9-.5c0-.6 0-1.2-.5-1.6-.2-.1-.5-.1-.6.1-.4.4-.4.9-.4 1.5h1.5zm11-1.8c.1-.1.3-.2.4-.3.5 0 1-.1 1.4 0 .6.1.9.5.9 1.2v3.5c-.3-.1-.5-.1-.7-.1h-.4c-.7.3-1.5.2-1.8-.2-.4-.4-.4-1.6 0-2 .2-.2.5-.4.8-.4.4-.1.8 0 1.2 0 .1-.7 0-1.2-.4-1.3-.5-.1-1-.1-1.5-.2l.1-.2zm1.9 2.1h-.5c-.8 0-1.2.4-1 1.2.1.5.5.6 1 .6s.6-.3.5-.7v-1.1z" fill="#272A26"/></symbol><symbol viewBox="0 0 80 80" id="icon-adv" xmlns="http://www.w3.org/2000/svg"><path d="M32.438 11.6l-.682-2.58a32.839 32.839 0 0 0-4.056 1.31l1.027 2.471a30.36 30.36 0 0 1 3.711-1.201zm35.957 12.452a32.387 32.387 0 0 0-2.366-3.467L63.861 22.2a29.734 29.734 0 0 1 2.17 3.183l2.364-1.331zM23.16 67.449a33.014 33.014 0 0 0 3.792 1.908l1.091-2.445a30.206 30.206 0 0 1-3.472-1.75l-1.41 2.287zM11.088 32.083l-2.628-.719a31.53 31.53 0 0 0-.877 4.083l2.701.377a28.906 28.906 0 0 1 .804-3.741zm7.88-13.016l-1.91-1.904a32.556 32.556 0 0 0-2.846 3.113l2.148 1.643a29.851 29.851 0 0 1 2.609-2.852zm44.254-1.628a32.988 32.988 0 0 0-3.196-2.76l-1.672 2.109a29.642 29.642 0 0 1 2.932 2.533l1.936-1.882zm5.588 30.828l2.618.75c.4-1.335.71-2.695.93-4.07l-2.697-.414a28.871 28.871 0 0 1-.851 3.734zm-8.046 12.917l1.886 1.924a32.644 32.644 0 0 0 2.883-3.067l-2.128-1.672a29.67 29.67 0 0 1-2.641 2.815zM40 10.667h.195V8H40a34.075 34.075 0 0 0-4.054.243l.332 2.645A31.582 31.582 0 0 1 40 10.667zm29.01 21.769l2.636-.687a31.397 31.397 0 0 0-1.364-3.953l-2.523 1.017a28.72 28.72 0 0 1 1.251 3.623zm-3.359 22.801l2.33 1.388a31.716 31.716 0 0 0 1.976-3.693l-2.495-1.077a29.093 29.093 0 0 1-1.81 3.382zM40 69.333h-.555L39.389 72H40a34.677 34.677 0 0 0 3.65-.195l-.298-2.652a31.255 31.255 0 0 1-3.352.18zm14.472-3.629l1.318 2.336a33.325 33.325 0 0 0 3.596-2.247l-1.617-2.149a30.288 30.288 0 0 1-3.297 2.06zm15.293-29.519A28.853 28.853 0 0 1 70.017 40c0 .244 0 .485-.008.728l2.73.063c0-.267.009-.534.009-.791a31.697 31.697 0 0 0-.273-4.159l-2.71.344zm-55.611-11.11l-2.348-1.36a31.89 31.89 0 0 0-1.93 3.716l2.51 1.049a28.999 28.999 0 0 1 1.768-3.405zM47.2 68.484l.654 2.59a33.023 33.023 0 0 0 4.07-1.262l-.992-2.479a30.362 30.362 0 0 1-3.732 1.151zM25.203 14.472l-1.347-2.317a33.303 33.303 0 0 0-3.567 2.289l1.638 2.133a30.505 30.505 0 0 1 3.276-2.105zm5.766 56.296a33.642 33.642 0 0 0 4.17.883l.409-2.638a30.818 30.818 0 0 1-3.82-.81l-.76 2.565zm25.521-58.42a32.939 32.939 0 0 0-3.82-1.867l-1.057 2.459a30.535 30.535 0 0 1 3.495 1.705l1.383-2.297zM11.404 55.6a32.252 32.252 0 0 0 2.32 3.499l2.19-1.591a29.654 29.654 0 0 1-2.13-3.21l-2.38 1.302zm5.088 6.679a32.901 32.901 0 0 0 3.163 2.8l1.696-2.09a29.853 29.853 0 0 1-2.9-2.566l-1.959 1.856zM48.64 9.127a33.277 33.277 0 0 0-4.181-.832l-.366 2.638a30.457 30.457 0 0 1 3.833.762l.714-2.568zM9.983 40.007v-.374l-2.73-.033v.4a31.496 31.496 0 0 0 .226 3.764l2.71-.31a29.173 29.173 0 0 1-.206-3.447zm.914 7.205l-2.647.653a31.616 31.616 0 0 0 1.323 3.971l2.537-.987a28.591 28.591 0 0 1-1.213-3.637z"/><path d="M79.915 31.099a10.06 10.06 0 0 0-3.258-4.667 10.993 10.993 0 0 1-2.228-2.632 10.914 10.914 0 0 1-.744-3.413 9.85 9.85 0 0 0-1.682-5.334 10.315 10.315 0 0 0-4.959-2.8 11.43 11.43 0 0 1-3.224-1.456 11.052 11.052 0 0 1-2.151-2.732 10.136 10.136 0 0 0-3.903-4.122 10.414 10.414 0 0 0-5.665-.412 11.673 11.673 0 0 1-3.598.05 11.153 11.153 0 0 1-3.092-1.52A10.628 10.628 0 0 0 40 0a10.626 10.626 0 0 0-5.411 2.073A11.2 11.2 0 0 1 31.497 3.6a11.761 11.761 0 0 1-3.598-.052 10.438 10.438 0 0 0-5.665.412 10.124 10.124 0 0 0-3.904 4.124 11.058 11.058 0 0 1-2.15 2.732 11.433 11.433 0 0 1-3.224 1.45 10.318 10.318 0 0 0-4.959 2.8A9.848 9.848 0 0 0 6.315 20.4a10.915 10.915 0 0 1-.744 3.413 10.972 10.972 0 0 1-2.23 2.632 10.065 10.065 0 0 0-3.256 4.667 9.728 9.728 0 0 0 .85 5.443A11.061 11.061 0 0 1 1.796 40a11.062 11.062 0 0 1-.861 3.459 9.728 9.728 0 0 0-.85 5.442 10.061 10.061 0 0 0 3.258 4.667A10.992 10.992 0 0 1 5.571 56.2a10.91 10.91 0 0 1 .744 3.413 9.85 9.85 0 0 0 1.682 5.334 10.317 10.317 0 0 0 4.959 2.786 11.435 11.435 0 0 1 3.224 1.456 11.053 11.053 0 0 1 2.152 2.732 10.136 10.136 0 0 0 3.902 4.123 10.438 10.438 0 0 0 5.665.412 11.677 11.677 0 0 1 3.598-.05 11.155 11.155 0 0 1 3.092 1.52A10.626 10.626 0 0 0 40 80a10.626 10.626 0 0 0 5.411-2.073 11.2 11.2 0 0 1 3.092-1.527 11.889 11.889 0 0 1 3.598.052 10.398 10.398 0 0 0 5.665-.412 10.125 10.125 0 0 0 3.904-4.124 11.058 11.058 0 0 1 2.15-2.732 11.433 11.433 0 0 1 3.224-1.45 10.319 10.319 0 0 0 4.959-2.794 9.849 9.849 0 0 0 1.682-5.333 10.914 10.914 0 0 1 .744-3.414 10.971 10.971 0 0 1 2.23-2.632 10.064 10.064 0 0 0 3.256-4.666 9.727 9.727 0 0 0-.85-5.443A11.062 11.062 0 0 1 78.204 40a11.062 11.062 0 0 1 .86-3.459 9.727 9.727 0 0 0 .851-5.442zm-3.428 13.237a7.854 7.854 0 0 1 .767 3.973 8.131 8.131 0 0 1-2.524 3.372 12.948 12.948 0 0 0-2.759 3.362 12.912 12.912 0 0 0-.997 4.266 7.952 7.952 0 0 1-1.103 3.967 8.37 8.37 0 0 1-3.729 1.94 13.516 13.516 0 0 0-4.025 1.888 13.084 13.084 0 0 0-2.76 3.401 8.136 8.136 0 0 1-2.778 3.138 8.425 8.425 0 0 1-4.176.162 14.019 14.019 0 0 0-4.503 0 13.258 13.258 0 0 0-3.942 1.867A8.423 8.423 0 0 1 40 77.333a8.422 8.422 0 0 1-3.957-1.662 13.268 13.268 0 0 0-3.94-1.867 8.685 8.685 0 0 0-1.885-.188 24.49 24.49 0 0 0-2.62.19 8.441 8.441 0 0 1-4.176-.163 8.16 8.16 0 0 1-2.778-3.138 13.072 13.072 0 0 0-2.76-3.4 13.482 13.482 0 0 0-4.024-1.889 8.338 8.338 0 0 1-3.729-1.94 7.95 7.95 0 0 1-1.103-3.965 12.92 12.92 0 0 0-.996-4.267 12.976 12.976 0 0 0-2.76-3.36 8.136 8.136 0 0 1-2.52-3.375 7.854 7.854 0 0 1 .766-3.973A13.079 13.079 0 0 0 4.525 40a13.08 13.08 0 0 0-1.012-4.336 7.854 7.854 0 0 1-.767-3.973 8.131 8.131 0 0 1 2.524-3.372 12.95 12.95 0 0 0 2.759-3.362c.574-1.358.91-2.8.997-4.266a7.952 7.952 0 0 1 1.103-3.967 8.37 8.37 0 0 1 3.729-1.94 13.516 13.516 0 0 0 4.025-1.888 13.049 13.049 0 0 0 2.759-3.403 8.15 8.15 0 0 1 2.779-3.137 8.442 8.442 0 0 1 4.176-.163 13.864 13.864 0 0 0 4.503 0 13.259 13.259 0 0 0 3.942-1.866A8.422 8.422 0 0 1 40 2.667a8.422 8.422 0 0 1 3.957 1.662 13.269 13.269 0 0 0 3.94 1.867 13.873 13.873 0 0 0 4.503 0 8.412 8.412 0 0 1 4.176.163 8.159 8.159 0 0 1 2.781 3.134 13.07 13.07 0 0 0 2.76 3.4 13.481 13.481 0 0 0 4.024 1.89 8.336 8.336 0 0 1 3.73 1.94 7.95 7.95 0 0 1 1.103 3.966 12.919 12.919 0 0 0 .996 4.267 12.976 12.976 0 0 0 2.759 3.36c1.128.89 2 2.053 2.525 3.373a7.854 7.854 0 0 1-.766 3.974A13.079 13.079 0 0 0 75.475 40a13.08 13.08 0 0 0 1.013 4.336zm-31.952-9.67L40 21.012l-4.535 13.656h-14.68l11.879 8.416-4.535 13.637L40 48.292l11.87 8.428-4.533-13.637 11.878-8.416h-14.68zm2.15 15.067L40 44.995l-6.686 4.738 2.552-7.676-6.668-4.724h8.25L40 29.651l2.551 7.682h8.251l-6.673 4.73 2.557 7.67zM65.926 40c0-5.01-1.521-9.908-4.37-14.074s-6.897-7.413-11.634-9.33a26.485 26.485 0 0 0-14.979-1.443 26.117 26.117 0 0 0-13.273 6.934 25.16 25.16 0 0 0-7.095 12.97 24.797 24.797 0 0 0 1.475 14.638c1.962 4.629 5.285 8.585 9.548 11.369A26.356 26.356 0 0 0 40 65.334c6.873-.008 13.463-2.68 18.323-7.429 4.86-4.75 7.593-11.188 7.601-17.905zM40 62.667c-4.588 0-9.072-1.33-12.887-3.82a22.788 22.788 0 0 1-8.543-10.173 22.187 22.187 0 0 1-1.32-13.096 22.512 22.512 0 0 1 6.348-11.606 23.368 23.368 0 0 1 11.877-6.203c4.5-.875 9.163-.426 13.401 1.29a23.09 23.09 0 0 1 10.41 8.348A22.301 22.301 0 0 1 63.196 40c-.008 6.01-2.454 11.771-6.802 16.02C52.045 60.27 46.15 62.66 40 62.667z"/></symbol><symbol viewBox="0 0 32 32" id="icon-cakeday" xmlns="http://www.w3.org/2000/svg"><path d="M31 22.2v-4.5c0-1.4-1.1-2.5-2.5-2.5h-2v-5c0-.3-.2-.5-.5-.5h-3c-.3 0-.5.2-.5.5v5H18v-6c0-.3-.2-.5-.5-.5h-3c-.3 0-.5.3-.5.5v6H9.5v-5c0-.2-.2-.5-.5-.5H6c-.3 0-.5.2-.5.5v5h-2c-1.4 0-2.5 1.1-2.5 2.5v4.5c0 1.1.6 2.1 1.5 2.6v5.4h-1c-.3 0-.5.2-.5.5s.2.5.5.5h29c.3 0 .5-.2.5-.5s-.2-.5-.5-.5h-1v-5.4c.9-.5 1.5-1.5 1.5-2.6zm-7.5-11.5h2v4.5h-2v-4.5zm-8.5-1h2v5.5h-2V9.7zm-8.5 1h2v4.5h-2v-4.5zm-4.5 7c0-.8.7-1.5 1.5-1.5h25c.8 0 1.5.7 1.5 1.5v4.5c0 .8-.5 1.5-1.2 1.8-.8.3-1.6.2-2.2-.4-.4-.4-.6-.9-.6-1.4v-2c0-.8-.4-1.4-1.1-1.8-.1 0-.2-.1-.2-.1h-1c-.1 0-.2 0-.3.1h-.1c-.1 0-.2.1-.3.1 0 0-.1 0-.1.1l-.3.3c-.4.4-.6.9-.6 1.4v1c0 1.1-.9 2-2 2s-2-.9-2-2v-1c0-.8-.4-1.4-1.1-1.8-.1 0-.2-.1-.2-.1h-1c-.1 0-.2 0-.3.1h-.1c-.1 0-.2.1-.3.1 0 0-.1 0-.1.1l-.3.3c-.4.4-.6.9-.6 1.4v3c0 1.1-.9 2-2 2s-2-.9-2-2v-3c0-.8-.4-1.4-1.1-1.8-.1 0-.2-.1-.2-.1h-.5c-1.1 0-2 .9-2 2v2c0 .5-.2 1-.6 1.4-.5.5-1.2.7-1.9.5-.1 0-.2-.1-.3-.1-.4-.3-.6-.5-.8-.6-.4-.4-.6-.9-.6-1.5v-4.5zm1.5 7.5h.2c.4 0 .9 0 1.3-.2.1 0 .3-.1.4-.2h.1c.1-.1.2-.1.3-.2 0 0 .1 0 .1-.1.7-.4 1.1-1.3 1.1-2.3v-2c0-.3.1-.5.3-.7.1 0 .1-.1.2-.1 0 0 .1-.1.2-.1h.5c.4.2.7.6.7 1v2.9c0 1.7 1.3 3 3 3s3-1.3 3-3v-3c0-.3.2-.7.5-.8.1 0 .1-.1.2-.1h.6c.4.2.7.6.7 1v.9c0 1.7 1.3 3 3 3s3-1.3 3-3v-1c0-.3.1-.5.3-.7.1 0 .1-.1.2-.1 0 0 .1-.1.2-.1h.6c.4.2.7.6.7 1v1.9c0 .8.3 1.6.9 2.1l.3.3s.1 0 .1.1c.1.1.2.1.3.2 0 0 .1 0 .1.1.1.1.2.1.3.1h.1c.3.1.6.1.9.2h.7v5H3.5v-5.1zM16 7.7c1.4 0 2.5-1.1 2.5-2.5 0-1.2-1.7-3.8-2.1-4.3-.1-.1-.3-.2-.4-.2-.2 0-.3.1-.4.2-.3.5-2.1 3.1-2.1 4.3 0 1.4 1.1 2.5 2.5 2.5zm0-5.6c.7 1.1 1.5 2.6 1.5 3.1 0 .8-.7 1.5-1.5 1.5s-1.5-.7-1.5-1.5c0-.5.8-1.9 1.5-3.1zm8.5 6.6c1.4 0 2.5-1.1 2.5-2.5C27 5 25.3 2.5 24.9 2c-.1-.1-.3-.2-.4-.2-.2 0-.3.1-.4.2-.4.5-2.1 3-2.1 4.2 0 1.4 1.1 2.5 2.5 2.5zm0-5.6c.7 1.2 1.5 2.6 1.5 3.1 0 .8-.7 1.5-1.5 1.5S23 7 23 6.2c0-.5.8-1.9 1.5-3.1zm-17 5.6c1.4 0 2.5-1.1 2.5-2.5C10 5 8.3 2.5 7.9 2c-.1-.2-.2-.2-.4-.2s-.3 0-.4.2C6.7 2.5 5 5 5 6.2c0 1.4 1.1 2.5 2.5 2.5zm0-5.6C8.2 4.3 9 5.7 9 6.2c0 .8-.7 1.5-1.5 1.5S6 7.1 6 6.2c0-.5.8-1.9 1.5-3.1z"/></symbol><symbol viewBox="0 0 32 32" id="icon-car" xmlns="http://www.w3.org/2000/svg"><path d="M7.3 18.5c-.4 0-.8.4-.8.8s.4.8.8.8.8-.4.8-.8-.3-.8-.8-.8z"/><path d="M29 12.3L23.3 10c-1-.4-2-.6-3-.6h-3.5c-1.3 0-2.5.3-3.6.9L8 13l-3.7.5c-.9.1-1.7.6-2.3 1.3-.7.7-1 1.5-1 2.5v2.2c0 .3.3.5.6.5h2.6c.1.6.4 1.1.9 1.6.6.6 1.4.9 2.2.9.8 0 1.6-.3 2.2-.9.4-.4.8-1 .9-1.6h11c.1.6.4 1.1.9 1.6.6.6 1.4.9 2.2.9.8 0 1.6-.3 2.2-.9.4-.4.7-1 .9-1.6h2.8c.3 0 .6-.3.6-.6v-4.1c0-1.3-.8-2.5-2-3zm-6.2-1.1l4.4 1.8h-3.3l-1.5-1.9c.1 0 .3.1.4.1zm-2.6-.5h.3l1.7 2.2h-5v-2.2h3zm-6.5.8c.8-.4 1.6-.6 2.4-.7V13h-5.4l3-1.5zm-9.4 3.2c-.3.8-1 1.5-1.9 1.6.3-.8 1-1.4 1.9-1.6zm3 6.6c-1.1 0-1.9-.9-1.9-1.9 0-1.1.9-1.9 1.9-1.9 1 0 1.9.9 1.9 1.9.1 1-.8 1.9-1.9 1.9zm17.2 0c-1.1 0-1.9-.9-1.9-1.9 0-1.1.9-1.9 1.9-1.9 1.1 0 1.9.9 1.9 1.9 0 1-.8 1.9-1.9 1.9zm5.3-2.5h-2.2c-.3-1.5-1.6-2.6-3.1-2.6-1.6 0-2.9 1.1-3.1 2.6h-11c-.3-1.5-1.6-2.6-3.1-2.6-1.6 0-2.9 1.1-3.1 2.6h-2v-1.3c1.7 0 3.2-1.3 3.4-3l2.6-.4h19.3v.9c0 1.1.9 2 2 2h.3v1.8zm0-3h-.3c-.4 0-.8-.4-.8-.8v-.8h.7c.2.3.4.7.4 1.2v.4z"/><path d="M24.5 18.5c-.4 0-.8.4-.8.8s.4.8.8.8.8-.4.8-.8-.3-.8-.8-.8z"/></symbol><symbol viewBox="0 0 32 32" id="icon-family" xmlns="http://www.w3.org/2000/svg"><path d="M15.4 17l-3.2-.9v-1.3c1.2-.9 2-2.2 2.1-3.7.6-.2 1.1-.7 1.1-1.4 0-.4-.2-.8-.5-1.1v-3c0-.8-.4-1.6-1.1-2.1-.2-.9-1-1.5-1.9-1.5H7.7C5.5 2 3.6 3.8 3.6 6.1v2.5c-.3.2-.5.6-.5 1 0 .7.4 1.2 1.1 1.4.1 1.5.9 2.9 2.1 3.7V16l-3.8 1.1c-.9.3-1.5 1.1-1.5 2v5.1c0 .2.2.4.4.4h.1v5.3c0 .2.2.4.4.4s.4-.2.4-.4v-5.3H4v5.3c0 .2.2.4.4.4s.6-.2.6-.4v-8.5l-1-2.1c-.2-.2-.5-.3-.7-.2-.2.1-.3.4-.2.6l1 2v2.1H1.9v-4.7c0-.5.3-.9.8-1.1l1.6-.5c.5 2.3 2.6 3.9 5 3.9 1.2 0 2.4-.4 3.3-1.2.8-.7 1.4-1.7 1.6-2.7l1 .3h.1c.2 0 .4-.1.4-.3.1-.2 0-.5-.3-.5zM5 10.6c0-.2-.2-.4-.4-.4-.4 0-.6-.3-.6-.6 0-.2.1-.4.3-.5.1 0 .2-.1.3-.1h.7c.4 0 .8-.3.9-.7l.3-.9c1 0 4.3-.2 6.1-1.1.2-.1.3-.4.2-.6-.1-.2-.4-.3-.6-.2-2 1-6 1-6 1-.2 0-.4.1-.4.3l-.5 1.3s0 .1-.1.1h-.7V6c0-1.8 1.4-3.2 3.2-3.2h4.2c.6 0 1 .4 1.1.9 0 .1.1.2.2.3.5.3.8.9.8 1.4v3.3c0 .2.1.3.2.4.2.1.3.3.3.5 0 .3-.3.6-.6.6-.2 0-.4.2-.4.4 0 2.3-1.9 4.2-4.2 4.2C7 14.8 5 13 5 10.6zm6.4 4.7v1.1c0 1.2-1 2.2-2.2 2.2-1.2 0-2.2-1-2.2-2.2v-1.1c.7.3 1.4.5 2.2.5.8 0 1.5-.2 2.2-.5zm.6 4.3c-.8.7-1.8 1-2.8 1-2 0-3.7-1.4-4.1-3.3l1.2-.3c.3 1.4 1.5 2.5 3 2.5s2.7-1.1 3-2.5l1.2.3c-.3.9-.8 1.7-1.5 2.3z"/><path d="M10.6 11.9c-.2-.2-.5-.1-.6.1-.2.2-.4.4-.7.4-.3 0-.5-.1-.7-.4-.2-.2-.4-.2-.6-.1-.2.2-.2.4-.1.6.4.4.9.7 1.4.7.5 0 1-.2 1.4-.7.1-.2 0-.5-.1-.6zM7.2 9.2c-.2 0-.4.2-.4.4v.5c0 .2.2.4.4.4s.4-.2.4-.4v-.5c0-.2-.2-.4-.4-.4zm4.1 0c-.2 0-.4.2-.4.4v.5c0 .2.2.4.4.4s.4-.2.4-.4v-.5c.1-.2-.1-.4-.4-.4zm13.3 5.3c-.2-.2-.5-.1-.6.1-.2.2-.4.4-.7.4-.3 0-.5-.1-.7-.4-.2-.2-.4-.2-.6-.1-.2.2-.2.4-.1.6.4.4.9.7 1.4.7.5 0 1-.2 1.4-.7.1-.2.1-.5-.1-.6zm-3.4-2.7c-.2 0-.4.2-.4.4v.5c0 .2.2.4.4.4s.4-.2.4-.4v-.5c0-.2-.2-.4-.4-.4zm4.2 0c-.2 0-.4.2-.4.4v.5c0 .2.2.4.4.4s.4-.2.4-.4v-.5c0-.2-.2-.4-.4-.4z"/><path d="M29.7 20.8l-3.6-1.4H26c2.4-.5 3.5-.9 3.6-1 .2-.1.3-.3.3-.5 0 0-.5-4.2-.5-7.7 0-3.4-2.8-6.2-6.2-6.2-3.4 0-6.2 2.8-6.2 6.2 0 3.6-.5 7.7-.5 7.7 0 .2.1.4.3.5.1 0 1.2.5 3.6 1h-.1l-3.6 1.4c-.8.3-1.3 1-1.3 1.9v1.1h-1.2v-2.1l1-2c.1-.2 0-.5-.2-.6-.2-.1-.5 0-.6.2l-1 2.1v8.5c0 .2.2.4.4.4s.4-.2.4-.4v-5.3h1.2v.6c0 .1 0 .2.1.3.1.1.2.1.3.1h.1v4.2c0 .2.2.4.4.4s.7-.1.7-.3v-4.2h1.2v4.2c0 .2.2.4.4.4s.4-.2.4-.4v-5.7c0-.2-.2-.4-.4-.4s-.4.2-.4.4v.6h-1.7v-2.1c0-.5.3-.9.7-1L19 21c.6 1.9 2.4 3.2 4.4 3.2 2 0 3.8-1.3 4.4-3.2l1.8.7c.4.2.7.6.7 1v2.1h-1.7v-.6c0-.2-.2-.4-.4-.4s-.4.2-.4.4v5.7c0 .2.2.4.4.4s.4-.2.4-.4v-4.2h1.2v4.2c0 .2.2.4.4.4s.4-.2.4-.4v-4.2h.1c.2 0 .4-.2.4-.4v-2.6c-.1-.9-.6-1.6-1.4-1.9zM18 10.1c0-2.9 2.4-5.3 5.3-5.3s5.3 2.4 5.3 5.3c0 3 .4 6.4.5 7.5-.5.2-1.6.5-3.2.8v-.8c.2-.1.5-.3.7-.5.9-.7 1.5-1.7 1.8-2.8.1-.4.1-.8.1-1.1 0-2.6-1.9-2.9-3.6-3.3-1.1-.2-2.3-.5-3.3-1.2-.1-.1-.2-.1-.4-.1-.1 0-.2.1-.3.2 0 0-.2.5-.7 1-.4.4-.9.9-1.5.9-.2 0-.4 0-.6.1-.1-.2-.1-.4-.1-.7zm5.3 7.4c-1 0-1.9-.3-2.7-.9-.7-.6-1.3-1.4-1.5-2.4-.1-.3-.1-.6-.1-.9 0-.2-.2-.4-.4-.4-.3 0-.6-.3-.6-.6s.3-.6.6-.6c1.3 0 2.3-1.2 2.7-1.9 1 .7 2.2.9 3.2 1.1 1.9.4 2.9.7 2.9 2.4 0 .3 0 .6-.1.9-.2.9-.7 1.8-1.5 2.4-.6.6-1.5.9-2.5.9zm-5.8.1c.1-.7.2-2.3.4-4.1.1.1.2.1.3.1 0 .3.1.5.1.8.3 1.1.9 2.1 1.8 2.8.2.2.5.3.7.5v.8c-1.7-.4-2.8-.7-3.3-.9zm5.8 5.6c-1.7 0-3.1-1.1-3.6-2.7l1-.4c.6-.2.9-.8.9-1.4v-.6c.5.2 1.1.3 1.6.3s1.1-.1 1.6-.3v.7c0 .6.4 1.1.9 1.4l1 .4c-.3 1.5-1.8 2.6-3.4 2.6z"/></symbol><symbol fill="none" viewBox="0 0 195 70" id="logotip" xmlns="http://www.w3.org/2000/svg"><path d="M70 70H0V0l35 35 35 35z" fill="#929394"/><path d="M70 0H0v70l35-35L70 0z" fill="#C1BEBF"/><path d="M0 70V0l35 35L0 70z" fill="#504C4C"/><path d="M96.5 14.2h4.5v17.4h-4.5V14.2zm6.6 11c0-3.7 3-6.8 7.2-6.8 4.1 0 7.1 3 7.1 6.8 0 3.7-3 6.8-7.2 6.8-4.1 0-7.1-3.1-7.1-6.8zm9.9 0c0-1.6-1.1-2.9-2.7-2.9s-2.7 1.3-2.7 2.9c0 1.6 1.1 2.9 2.7 2.9s2.7-1.3 2.7-2.9zm7.1 2.4v-5.3h-1.5v-3.7h1.5v-3.3h4.5v3.3h3v3.7h-3v4.4c0 .9.4 1.3 1.2 1.3.6 0 1.2-.2 1.7-.4v3.6c-.8.5-1.9.7-3.2.7-2.6 0-4.2-1.2-4.2-4.3zm8.5 2.4l1.7-2.7c1.5 1 3.1 1.5 4.4 1.5.8 0 1.1-.2 1.1-.7 0-.5-.7-.7-2.1-1.1-2.6-.7-4.6-1.5-4.6-4.2s2.2-4.3 5.2-4.3c1.9 0 3.8.5 5.3 1.5l-1.6 2.9c-1.3-.7-2.8-1.2-3.8-1.2-.7 0-1.1.3-1.1.7 0 .5.7.7 2.1 1.1 2.6.7 4.6 1.6 4.6 4.2 0 2.8-2.1 4.3-5.3 4.3-1.9-.1-4.1-.7-5.9-2zm13.3-11.3h4.5v1.8c.8-1.1 2-2.1 3.8-2.1 1.7 0 3 .8 3.7 2.1 1.1-1.3 2.4-2.1 4.3-2.1 2.7 0 4.4 1.7 4.4 4.7v8.5h-4.5v-7c0-1.4-.7-2.2-1.8-2.2s-1.9.7-1.9 2.2v7H150v-7c0-1.4-.7-2.2-1.8-2.2s-1.8.7-1.8 2.2v7h-4.5V18.7zm22.5 9.2c0-2.7 2-4.1 5.1-4.1 1.2 0 2.4.2 3.1.5v-.2c0-1.3-.8-2.1-2.6-2.1-1.4 0-2.4.3-3.6.7l-.9-3.2c1.5-.6 3-1 5.2-1 2.3 0 3.9.5 4.9 1.6 1 1 1.4 2.3 1.4 4.1v7.4h-4.5v-1.3c-.9 1-2.1 1.6-3.8 1.6-2.4 0-4.3-1.4-4.3-4zm8.3-.9v-.6c-.5-.2-1.1-.3-1.8-.3-1.3 0-2.1.6-2.1 1.6 0 .9.7 1.4 1.6 1.4 1.3 0 2.3-.8 2.3-2.1zm6.7-8.3h4.5v1.8c.8-1.1 2-2.1 3.9-2.1 2.7 0 4.4 1.8 4.4 4.8v8.5h-4.5v-7c0-1.4-.7-2.2-1.8-2.2s-1.9.8-1.9 2.2v7h-4.5v-13h-.1zM94.3 49.5c0-4 3-6.4 5.9-6.4 2.4 0 4 1.4 5 2.9v-7.9h1.2v17.4h-1.2v-2.7c-1.1 1.6-2.6 3-5 3-2.9 0-5.9-2.3-5.9-6.3zm11-.1c0-3.1-2.4-5.2-5-5.2-2.7 0-4.8 1.9-4.8 5.3 0 3.2 2.2 5.3 4.8 5.3 2.5-.1 5-2.2 5-5.4zm8.9 0c0-3.5 2.5-6.4 5.8-6.4 3.4 0 5.6 2.8 5.6 6.4v.5h-10.1c.2 3 2.4 4.8 4.8 4.8 1.9 0 3.2-.8 4.2-1.9l.8.7c-1.2 1.3-2.7 2.3-5 2.3-3.4 0-6.1-2.5-6.1-6.4zm10.1-.5c-.2-2.5-1.6-4.7-4.4-4.7-2.4 0-4.3 2-4.5 4.7h8.9zm7.8 5.1l.7-.9c1.3 1 2.8 1.6 4.4 1.6 1.6 0 2.9-.9 2.9-2.4 0-1.4-1.5-2-3.2-2.4-2-.6-4.2-1.2-4.2-3.4 0-2 1.6-3.4 4-3.4 1.5 0 3.1.5 4.3 1.3l-.6 1c-1.1-.7-2.5-1.2-3.8-1.2-1.7 0-2.8.9-2.8 2.2 0 1.4 1.6 1.9 3.4 2.4 2 .5 4 1.3 4 3.5s-1.9 3.6-4.2 3.6c-1.7-.1-3.6-.8-4.9-1.9zm17.1-15.4h1.5v1.6h-1.5v-1.6zm.2 4.8h1.2v12.2h-1.2V43.4zm9.7 14.2l.7-1c1.5 1.1 3.1 1.7 4.9 1.7 2.8 0 4.8-1.6 4.8-4.7v-1.8c-1.1 1.5-2.7 2.8-5.1 2.8-2.9 0-5.9-2.2-5.9-5.8 0-3.5 2.9-5.8 5.9-5.8 2.4 0 4.1 1.3 5.1 2.7v-2.4h1.2v10.3c0 1.8-.6 3.2-1.6 4.1-1.1 1.1-2.6 1.6-4.4 1.6-2 .1-3.9-.5-5.6-1.7zm10.5-8.8c0-2.8-2.5-4.6-5-4.6-2.6 0-4.7 1.8-4.7 4.7 0 2.7 2.2 4.7 4.7 4.7 2.5-.1 5-1.9 5-4.8zm9.7-5.4h1.2v2.3c.8-1.4 2.2-2.6 4.4-2.6 3.1 0 4.9 2.1 4.9 5v7.5h-1.2v-7.2c0-2.5-1.4-4.2-3.9-4.2-2.4 0-4.2 1.8-4.2 4.3v7h-1.2V43.4z" fill="#2E2E2E"/></symbol><symbol fill="none" viewBox="0 0 70 70" id="logotip-xs" xmlns="http://www.w3.org/2000/svg"><path d="M70 70H0V0l35 35 35 35z" fill="#929394"/><path d="M70 0H0v70l35-35L70 0z" fill="#C1BEBF"/><path d="M0 70V0l35 35L0 70z" fill="#504C4C"/></symbol><symbol fill="none" viewBox="0 0 60 60" id="skills-ai" xmlns="http://www.w3.org/2000/svg"><g clip-path="url(#clip0)"><path d="M1.3 0h57.5c.6 0 1.2.6 1.2 1.3v57.5c0 .7-.6 1.3-1.3 1.3H1.3C.6 60 0 59.4 0 58.7V1.3C0 .6.6 0 1.3 0z" fill="#FDC113"/><path d="M29.433 32.4L26.2 22.7l-3.233 9.7h6.466z" fill="#5E4138"/><path fill-rule="evenodd" clip-rule="evenodd" d="M53.8 5H6.3C5.6 5 5 5.6 5 6.2v47.5c0 .7.6 1.3 1.3 1.4h47.4c.7 0 1.3-.6 1.3-1.3V6.3c0-.7-.6-1.3-1.2-1.3zM42.5 18.7a1.3 1.3 0 1 1-2.6 0 1.3 1.3 0 0 1 2.6 0zm-10 22.9c.2.6.7.9 1.2.9.2 0 .3 0 .4-.1.7-.2 1-.9.8-1.6l-7.5-22.5c-.2-.3-.4-.6-.7-.7-.6-.2-1.4 0-1.7.7l-7.5 22.5c-.1.6.2 1.3.8 1.5.6.3 1.4-.1 1.6-.7l2.2-6.6h8.2l2.2 6.6zm8.7.9c-.7 0-1.3-.6-1.3-1.3V23.7c0-.7.6-1.3 1.3-1.3.7 0 1.3.6 1.3 1.3v17.5c0 .7-.6 1.3-1.3 1.3z" fill="#5E4138"/></g></symbol><symbol fill="none" viewBox="0 0 60 60" id="skills-corel" xmlns="http://www.w3.org/2000/svg"><path fill-rule="evenodd" clip-rule="evenodd" d="M0 0h60v60H0V0z" fill="#5FAA45"/><path fill-rule="evenodd" clip-rule="evenodd" d="M0 11.3c2.1 1.7 4.5 4.4 6.6 6.5l6.4 6.4 9.6 9.6c1.3 1.3 1.4 2 .8 3-1.6 2.4-3.2.6-4.6-.8C16 33.2 1.6 18.4 0 17.5v11.7c1.3.9 2.8 2.7 4.1 3.9l4 4c2.6 2.6 5.2 5.5 7.9 7.9 1.3 1.2 3.5 2 5.2 2.9 1.8.9 3.3 1.8 5 2.7 2.3 1.2 14.8 9.2 10.8 1l-9.4-17.9L11 17.2C9.3 15.5 1.3 7.2 0 6.4v4.9z" fill="#fff"/><path fill-rule="evenodd" clip-rule="evenodd" d="M49.5 36.1H37.8l1.6 7.1h8.5l1.6-7.1zM19.9 0h-2c1.4 5.2 6.1 13 8.8 16.9 3.7 5.6 7 9.2 11.4 14-6-7.5-16.2-22.6-18.2-30.9zm23.7 0v32.2h-1.4C39.7 20.9 36.4 13.1 35.1 0h8.5zM28.1 0h-5.6C24.2 7.6 34 26 40.6 31.6 35.5 22.8 30.8 11.2 28.1 0z" fill="#AFD3A0"/><path fill-rule="evenodd" clip-rule="evenodd" d="M60 17.4c-3.6 5.4-6.8 8.9-11.1 13.6C52 27 56.3 20.9 60 14.8v2.6zM43.3 0v32.2h1.4c2.6-11.3 5.8-19.1 7.2-32.2h-8.6zm15.5 0H60v11.3c-3.9 7.9-9.4 16.8-13.7 20.3 5.1-8.8 9.8-20.4 12.5-31.6z" fill="#AFD3A0"/></symbol><symbol fill="none" viewBox="0 0 60 60" id="skills-figma" xmlns="http://www.w3.org/2000/svg"><path d="M60 0H0v60h60V0z" fill="#fff"/><path d="M20 60c5.5 0 10-4.5 10-10V40H20c-5.5 0-10 4.5-10 10s4.5 10 10 10z" fill="#48BA7F"/><path d="M10 30c0-5.5 4.5-10 10-10h10v20H20c-5.5 0-10-4.5-10-10z" fill="#8162AA"/><path d="M10 10c0-5.5 4.5-10 10-10h10v20H20c-5.5 0-10-4.5-10-10z" fill="#F05023"/><path d="M30 0h10c5.5 0 10 4.5 10 10s-4.5 10-10 10H30V0z" fill="#F37264"/><path d="M50 30c0 5.5-4.5 10-10 10s-10-4.5-10-10 4.5-10 10-10 10 4.5 10 10z" fill="#47B8E9"/></symbol><symbol fill="none" viewBox="0 0 60 60" id="skills-id" xmlns="http://www.w3.org/2000/svg"><path d="M58.3 60H1.7c-1 0-1.7-.8-1.7-1.7V1.7C0 .8.8 0 1.7 0h56.5c1 0 1.7.8 1.7 1.7v56.5c.1 1-.7 1.8-1.6 1.8z" fill="#F06095"/><path d="M37.488 35.824c-.226.453-1.233 2.476-3.588 2.476-2.5 0-4.1-2.2-4.1-4.4 0-2 1.3-4.5 3.9-4.5 2.3 0 3.6 2.5 3.8 2.9v3.5l-.012.024z" fill="#801E33"/><path fill-rule="evenodd" clip-rule="evenodd" d="M6.6 55h46.8c.9 0 1.7-.7 1.6-1.6V6.7c0-.9-.8-1.7-1.7-1.7H6.6C5.7 5 5 5.7 5 6.6v46.8c0 .9.7 1.6 1.6 1.6zm19.3-21.2c0 4.1 2.7 7.7 7 7.7 2.9 0 4.5-1.9 5.2-3 0 0-.2 2.8 2.5 2.8.293 0 .64-.054 1.078-.122a32.5 32.5 0 0 1 .522-.078v-3.2c-.3 0-.9-.7-.9-1.1V20.6h-3.8V29c-.5-.8-2-2.8-5-2.8-3.5 0-6.6 3-6.6 7.6zm-6.6-12.5v20h3.9v-20h-3.9z" fill="#801E33"/></symbol><symbol fill="none" viewBox="0 0 60 60" id="skills-plus" xmlns="http://www.w3.org/2000/svg"><path d="M19.06 0h21.88v60H19.06V0zM0 19.06h60v21.88H0V19.06z" fill="#e8e8e8"/></symbol><symbol viewBox="0 0 60 60" id="skills-ps" xmlns="http://www.w3.org/2000/svg"><path d="M1.3 0h57.5c.6 0 1.2.6 1.2 1.3v57.5c0 .7-.6 1.3-1.3 1.3H1.3C.6 60 0 59.4 0 58.7V1.3C0 .6.6 0 1.3 0z" fill="#95C8EC"/><path d="M20 30.4c2.6.6 5.3.1 7.6-1.3 1.5-.8 2.4-2.4 2.4-4.1.1-1.3-.5-2.6-1.4-3.5-2.6-1.7-5.6-2.2-8.6-1.6v10.5z" fill="#283A91"/><path fill-rule="evenodd" clip-rule="evenodd" d="M6.2 5h47.5c.7 0 1.3.6 1.3 1.3v47.5c0 .7-.6 1.3-1.3 1.3H6.2C5.6 55 5 54.4 5 53.8V6.2C5 5.6 5.6 5 6.2 5zm12.6 37.5c-.7 0-1.3-.6-1.3-1.3V18.8c0-.6.5-1.2 1.1-1.3 3.7-.5 8.6-.5 11.6 2.1 1.5 1.4 2.4 3.4 2.3 5.4 0 2.5-1.4 4.9-3.5 6.2-2.7 1.7-5.9 2.3-9 1.7v8.3c0 .7-.6 1.3-1.2 1.3zm16.6-1.6c1.3 1.1 3 1.7 4.7 1.7.8 0 1.5-.2 2.2-.4 1.8-.8 2.9-2.6 2.7-4.6 0-3.524-2.683-4.46-4.672-5.156L40.2 32.4c-1.9-.7-2.7-1.1-2.7-2.3-.1-.9.4-1.8 1.3-2.2 1.4-.5 2.9-.3 4.1.6.5.4 1.3.4 1.8-.1.4-.5.4-1.3-.1-1.8-1.9-1.6-4.5-2-6.8-1.1-1.8.7-2.9 2.6-2.8 4.5 0 3.1 2.6 4 4.5 4.6 2.2.8 3.1 1.2 3.1 2.9 0 1.8-.9 2.2-1.2 2.3-1.4.5-3 .2-4.2-.7-.5-.5-1.3-.5-1.8 0s-.5 1.3 0 1.8z" fill="#283A91"/></symbol><symbol viewBox="0 0 58 58" id="soc-fb" xmlns="http://www.w3.org/2000/svg"><path fill-rule="evenodd" clip-rule="evenodd" d="M32.635 57.774C46.935 55.986 58 43.785 58 29 58 12.984 45.016 0 29 0S0 12.984 0 29c0 14.148 10.132 25.93 23.536 28.486v-20.81H19v-7.35h4.536v-4.425c0-3.14.765-5.516 2.295-7.13 1.53-1.612 4.046-2.419 7.55-2.419h6.057v7.35H35.65c-.694 0-1.25.055-1.668.168-.418.112-.72.315-.907.608a2.44 2.44 0 0 0-.361.893c-.053.302-.08.73-.08 1.281v3.674h6.857l-.8 7.35h-6.056v21.098zm-3.49.226h-.29a23.62 23.62 0 0 0 .29 0z"/></symbol><symbol viewBox="0 0 58 58" id="soc-vk" xmlns="http://www.w3.org/2000/svg"><path fill-rule="evenodd" clip-rule="evenodd" d="M29 58c16.016 0 29-12.984 29-29S45.016 0 29 0 0 12.984 0 29s12.984 29 29 29zm19.069-20.614a3.72 3.72 0 0 0-.136-.245c-.681-1.169-1.985-2.61-3.905-4.311l-.043-.042-.022-.02-.021-.021h-.022c-.874-.792-1.425-1.325-1.655-1.598-.422-.52-.516-1.046-.286-1.579.165-.403.78-1.258 1.841-2.555.559-.69 1.003-1.244 1.333-1.66 2.357-2.993 3.382-4.907 3.066-5.734l-.122-.19c-.078-.117-.293-.226-.63-.322-.344-.096-.781-.116-1.311-.047l-5.89.04c-.093-.034-.229-.027-.408.007l-.265.062-.1.047-.08.062a.881.881 0 0 0-.221.205c-.079.096-.15.212-.2.342a31.108 31.108 0 0 1-2.193 4.386 40.978 40.978 0 0 1-1.39 2.098c-.423.595-.774 1.024-1.06 1.305-.287.28-.545.506-.781.67-.23.17-.409.239-.53.211l-.066-.015a5.82 5.82 0 0 0-.286-.06 1.263 1.263 0 0 1-.458-.478 2.186 2.186 0 0 1-.237-.759 7.4 7.4 0 0 1-.071-.793c-.007-.193-.002-.461.004-.8l.003-.135c.014-.403.021-.676.021-.82 0-.492.008-1.032.029-1.613.012-.329.022-.312.03-.295h.001c.007.012.013.023.02-.121.014-.335.02-.698.02-1.073 0-.376-.02-.67-.071-.888a3.228 3.228 0 0 0-.215-.622 1.108 1.108 0 0 0-.423-.472 2.622 2.622 0 0 0-.687-.266c-.724-.157-1.641-.24-2.759-.253-2.536-.027-4.163.13-4.886.472a2.61 2.61 0 0 0-.774.587c-.244.287-.28.445-.1.471.817.117 1.397.397 1.74.84l.123.233c.093.17.193.472.286.895.093.431.158.903.186 1.421l.015.205c.026.388.037.549.033.708a6.191 6.191 0 0 1-.033.417l-.015.153a36.867 36.867 0 0 1-.193 1.579c-.064.375-.15.683-.28.915a5.906 5.906 0 0 1-.243.43.317.317 0 0 1-.1.096 1.66 1.66 0 0 1-.552.096c-.193 0-.423-.089-.695-.274a4.572 4.572 0 0 1-.845-.751c-.294-.32-.624-.766-.996-1.34a23.793 23.793 0 0 1-1.147-2.029l-.33-.567A35.489 35.489 0 0 1 18.25 22a27.366 27.366 0 0 1-.939-2.022 1.262 1.262 0 0 0-.494-.621l-.1-.062a1.137 1.137 0 0 0-.33-.164 2.193 2.193 0 0 0-.473-.13l-5.603.04c-.573 0-.96.124-1.168.37l-.078.116c-.044.069-.065.171-.065.314 0 .144.043.321.122.527a56.894 56.894 0 0 0 2.658 5.33c.96 1.707 1.798 3.073 2.508 4.112a48.382 48.382 0 0 0 2.17 2.945c.738.923 1.226 1.517 1.462 1.776.236.26.43.459.566.588l.509.471c.33.315.81.684 1.44 1.121.638.438 1.34.868 2.106 1.291.774.424 1.67.766 2.687 1.032a9.656 9.656 0 0 0 2.987.321h2.35c.48-.04.839-.184 1.082-.43l.08-.096c.056-.075.107-.198.15-.362.05-.164.071-.342.071-.54a5.83 5.83 0 0 1 .136-1.51c.1-.45.215-.785.352-1.011.129-.226.279-.416.437-.574.164-.157.279-.253.35-.28a.944.944 0 0 1 .166-.068c.329-.103.709 0 1.153.3.444.308.86.684 1.246 1.134.387.452.853.95 1.405 1.51.544.56 1.024.977 1.433 1.25l.408.233c.272.157.63.3 1.068.43.437.13.816.165 1.146.096l5.237-.075c.516 0 .925-.082 1.204-.246.287-.164.459-.342.509-.54a1.38 1.38 0 0 0 .007-.663 2.524 2.524 0 0 0-.136-.526z"/></symbol></svg>