<svg width="11" height="12" viewBox="0 0 11 12" xmlns="http://www.w3.org/2000/svg">
<path d="M6.73461 6.0477C6.43653 6.4122 6.16817 6.67891 6.1707 6.67652C6.17318 6.67436 5.93794 6.97293 5.61092 7.30948C5.34799 7.5799 5.05573 7.84681 4.73188 8.10029C4.36455 8.38805 3.7902 8.42532 3.47839 8.2269C3.16636 8.02872 2.56647 7.62671 2.11759 7.72924C1.74047 7.81532 1.23978 8.10371 0.637397 8.84488C-0.78291 10.593 0.489508 11.1388 1.37126 11.8438C2.25386 12.5483 5.16542 10.8031 7.8319 7.95995C10.4986 5.11696 11.5029 2.17578 10.7647 1.30995C10.0262 0.444117 9.4107 -0.838921 7.84166 0.764607C7.17644 1.44462 6.93703 1.98629 6.88211 2.3846C6.8166 2.85882 7.24467 3.45339 7.45708 3.76328C7.66944 4.07336 7.67549 4.67312 7.4269 5.07602C7.20803 5.43143 6.97424 5.75475 6.73461 6.0477Z" transform="translate(11) scale(-1 1)"/>
</svg>
