<svg width="13" height="13" viewBox="0 0 13 13" xmlns="http://www.w3.org/2000/svg">
<path d="M1.86322 11.1773C2.45607 11.7428 3.16536 12.2039 3.99111 12.5181C4.81685 12.8324 5.73788 13 6.73301 13C7.84459 13 8.87148 12.8324 9.79251 12.4868C10.6288 12.183 9.90896 10.643 9.29494 10.8945C8.61751 11.1774 7.79166 11.324 6.84935 11.324C6.1083 11.324 5.43087 11.2088 4.83792 10.9889C4.24508 10.7688 3.72634 10.4546 3.30288 10.0461C2.87942 9.6376 2.54065 9.13478 2.30775 8.55863C2.06426 7.9719 1.94781 7.30158 1.94781 6.5683C1.94781 5.87692 2.06426 5.21697 2.29716 4.63035C2.53007 4.04372 2.84766 3.51995 3.27112 3.10093C3.68399 2.67144 4.19214 2.32575 4.7744 2.08482C5.35666 1.84388 6.01302 1.71818 6.7329 1.71818C7.39996 1.71818 8.01387 1.81246 8.56447 1.98006C9.10438 2.14767 9.57019 2.40956 9.96178 2.75525C10.3535 3.10093 10.6605 3.51995 10.8828 4.02277C11.1052 4.52559 11.2111 5.11222 11.2111 5.78264C11.2111 6.17023 11.1687 6.53687 11.084 6.88256C10.9994 7.2073 10.8935 7.50051 10.7453 7.73107C10.6076 7.95116 10.4488 8.12914 10.2583 8.25484C10.0359 8.4015 9.70771 8.4853 9.45363 8.4015C9.13604 8.29675 9.19966 7.85678 9.22073 7.59489C9.25259 7.23873 9.34777 6.90351 9.42187 6.55782C9.53832 5.99215 9.66536 5.43695 9.78181 4.88176C9.84533 4.57797 9.91933 4.26371 9.98285 3.95992C10.0675 3.57233 9.77112 3.19521 9.35835 3.19521H8.89255C8.60671 3.19521 8.35264 3.38377 8.27843 3.65613C8.24677 3.78184 8.21491 3.88659 8.21491 3.88659C7.98211 3.17426 7.1245 2.97523 6.44696 2.98571C5.5577 2.99618 4.74254 3.44662 4.14969 4.08562C4.09676 4.14848 4.03324 4.21133 3.98031 4.27418C3.6733 4.64082 3.4404 5.07031 3.2816 5.52076C3.11222 6.00263 3.02752 6.49497 3.02752 6.99779C3.02752 7.42739 3.09104 7.83583 3.2075 8.20247C3.33453 8.57969 3.5145 8.90432 3.74741 9.17668C3.98031 9.44915 4.27673 9.66903 4.62608 9.82616C4.97544 9.98329 5.36714 10.0671 5.7906 10.0671C6.10819 10.0671 6.40462 10.0147 6.66928 9.92054C6.92335 9.82626 7.15626 9.71103 7.3574 9.57485C7.5162 9.4701 7.66441 9.34439 7.78086 9.22906C7.85486 9.36534 7.93966 9.48047 8.05611 9.5957C8.35264 9.90996 8.80775 10.0671 9.41129 10.0671C9.88768 10.0671 10.3534 9.97292 10.7875 9.78436C11.2216 9.5957 11.6132 9.30239 11.9414 8.92537C12.2589 8.54815 12.5236 8.08734 12.7142 7.54262C12.9048 6.9979 13 6.36937 13 5.67799C13 4.73521 12.82 3.89717 12.4707 3.19532C12.1213 2.49346 11.6449 1.89637 11.0522 1.42497C10.4699 0.953578 9.7924 0.607889 9.04076 0.366954C8.29981 0.11523 7.527 0 6.73301 0C5.81198 0 4.9333 0.167607 4.11814 0.492345C3.30299 0.827558 2.5831 1.28848 1.97967 1.86463C1.36566 2.44077 0.878679 3.14263 0.529325 3.92828C0.17997 4.71394 -2.52402e-09 5.59388 -2.52402e-09 6.51571C-2.52402e-09 7.44792 0.158797 8.32796 0.486979 9.11362C0.804573 9.90975 1.27038 10.6011 1.86322 11.1773ZM7.59041 6.7776C7.51641 7.06043 7.41054 7.3328 7.26223 7.58421C7.11402 7.82514 6.93405 8.02407 6.70114 8.1812C6.48941 8.32786 6.23534 8.40129 5.91774 8.40129C5.7166 8.40129 5.5578 8.35939 5.44135 8.28595C5.31431 8.20215 5.20845 8.0974 5.13434 7.96122C5.04965 7.81456 4.99672 7.65743 4.96496 7.5003C4.9332 7.33269 4.91203 7.17556 4.91203 7.03948C4.91203 6.74617 4.95437 6.45286 5.03906 6.14907C5.12376 5.85576 5.24021 5.5834 5.399 5.35294C5.5578 5.12248 5.73777 4.93392 5.96009 4.78727C6.16123 4.65109 6.38355 4.58824 6.64821 4.58824C6.85994 4.58824 7.02943 4.61966 7.15636 4.69299C7.2834 4.76632 7.38927 4.8606 7.46337 4.97583C7.54806 5.10153 7.601 5.24819 7.64324 5.40532C7.68558 5.5834 7.70686 5.77196 7.70686 5.95004C7.69627 6.21193 7.66462 6.48429 7.59041 6.7776Z"/>
</svg>
