<svg width="11" height="16" viewBox="0 0 11 16" xmlns="http://www.w3.org/2000/svg">
<path d="M5.50115 0C2.46319 0 -1.0875e-07 2.41733 -1.0875e-07 5.39936C-1.0875e-07 6.9249 1.51461 9.65797 1.51461 9.65797L5.29837 16L9.24629 9.73202C9.24629 9.73202 11 7.12434 11 5.39936C11.0005 2.41733 8.53773 0 5.50115 0ZM5.4754 8.37321C3.73548 8.37321 2.32617 6.98078 2.32617 5.25989C2.32617 3.54127 3.73502 2.14975 5.4754 2.14975C7.2144 2.14975 8.62509 3.54127 8.62509 5.25989C8.62509 6.98078 7.2144 8.37321 5.4754 8.37321Z"/>
</svg>
