<svg width="220" height="80" viewBox="0 0 220 80" fill="none" xmlns="http://www.w3.org/2000/svg">
<path d="M24.9 55.6997C27.4999 55.6997 29.6 57.8997 29.6 60.3997C29.6 62.9997 27.4 65.0997 24.9 65.0997C22.3 65.0997 20.2 62.9997 20.2 60.2997C20.2 57.7997 22.3 55.6997 24.9 55.6997Z" fill="#189DD9"/>
<path d="M43.4 34.1997C46 34.1997 48.0999 36.2997 48.0999 38.8997C48.0999 41.4997 46 43.5997 43.4 43.5997C40.8 43.5997 38.7 41.4997 38.7 38.8997C38.7 36.1997 40.8 34.0997 43.4 34.1997Z" fill="#189DD9"/>
<path d="M60.5 41.8997C60.5 44.4997 58.3999 46.5997 55.7999 46.5997C53.1999 46.5997 51.0999 44.4997 51.0999 41.8997C51.0999 39.2997 53.1999 37.1997 55.7999 37.1997C58.2999 37.1997 60.5 39.2997 60.5 41.8997Z" fill="#189DD9"/>
<path d="M40.4 55.8997C37.8 55.8997 35.7 53.7997 35.7 51.1997C35.7 48.5997 37.8 46.4997 40.4 46.4997C43 46.4997 45.0999 48.4997 45.0999 51.1997C45.0999 53.7997 43 55.8997 40.4 55.8997Z" fill="#189DD9"/>
<path d="M28 52.7997C25.4 52.7997 23.2999 50.6997 23.2999 48.0997C23.2999 45.4997 25.4 43.3997 27.9 43.3997C30.6 43.3997 32.7 45.4997 32.7 48.0997C32.7 50.6997 30.7 52.7997 28 52.7997Z" fill="#189DD9"/>
<path d="M31.0999 40.4997C28.4999 40.4997 26.3999 38.3997 26.3999 35.7997C26.3999 33.1997 28.4999 31.0997 31.0999 31.0997C33.6999 31.0997 35.7999 33.1997 35.7999 35.7997C35.7999 38.3997 33.6999 40.4997 31.0999 40.4997Z" fill="#E31F27"/>
<path d="M21.7999 25.0997C19.1999 25.0997 17.0999 22.8997 17.0999 20.2997C17.0999 17.6997 19.2999 15.5997 21.9999 15.6997C24.4999 15.6997 26.5999 17.8997 26.5999 20.4997C26.4999 22.9997 24.3999 25.0997 21.7999 25.0997Z" fill="#E31F27"/>
<path d="M23.4999 32.6997C23.4999 35.2997 21.3999 37.3997 18.7999 37.3997C16.1999 37.3997 14.0999 35.2997 14.0999 32.6997C14.0999 30.0997 16.1999 27.9997 18.7999 27.9997C21.3999 27.9997 23.4999 30.0997 23.4999 32.6997Z" fill="#E31F27"/>
<path d="M17.2999 57.3997C17.2999 59.9997 15.1999 62.0997 12.5999 62.0997C9.9999 62.0997 7.8999 59.8997 7.8999 57.2997C7.8999 54.6997 10.0999 52.5997 12.6999 52.6997C15.2999 52.6997 17.2999 54.7997 17.2999 57.3997Z" fill="#E31F27"/>
<path d="M10.9999 45.0997C10.9999 42.4997 13.0999 40.3997 15.6999 40.2997C18.2999 40.2997 20.3999 42.3997 20.3999 44.9997C20.3999 47.5997 18.2999 49.6997 15.6999 49.7997C13.0999 49.7997 10.9999 47.6997 10.9999 45.0997Z" fill="#E31F27"/>
<path d="M34.1999 18.6997C36.7999 18.6997 38.8999 20.7997 38.8999 23.3997C38.8999 25.9997 36.7999 28.0997 34.1999 28.0997C31.5999 28.0997 29.4999 25.9997 29.4999 23.3997C29.3999 20.8997 31.4999 18.6997 34.1999 18.6997Z" fill="#E31F27"/>
<path d="M211 28.0004C210.8 29.2004 210.5 30.4004 210.3 31.6004C209.4 36.6004 208.6 41.6004 207.7 46.7004C206.8 46.7004 205.9 46.7004 204.9 46.7004C204.9 46.3004 204.9 46.0004 204.8 45.5004C204.6 45.6004 204.4 45.7004 204.3 45.8004C202.5 47.0004 200.6 47.4004 198.5 46.9004C196.7 46.5004 195.7 45.1004 195.5 43.0004C195.2 40.6004 195.5 38.3004 196 36.0004C196.4 34.3004 196.8 32.7004 197.5 31.1004C198.7 28.3004 201 26.9004 204.1 26.7004C206.5 26.6004 208.8 26.9004 211 27.8004C211 27.9004 211 27.9004 211 28.0004ZM207.3 29.0004C206.5 29.0004 205.8 29.0004 205.1 29.0004C203 28.9004 201.6 29.8004 200.8 31.7004C200.2 33.1004 199.8 34.5004 199.5 36.0004C199.1 37.9004 198.8 39.9004 199 41.9004C199.2 43.9004 200.3 45.0004 202.3 44.8004C203 44.7004 203.7 44.5004 204.4 44.3004C204.7 44.2004 204.9 44.0004 205 43.6004C205.5 40.7004 206 37.7004 206.5 34.8004C206.7 32.9004 207 31.0004 207.3 29.0004Z" fill="#272A26"/>
<path d="M76.1 38.5004C75.7 41.0004 75.3 43.4004 74.8 45.8004C74.6 46.9004 74.9 46.7004 73.7 46.7004C72.5 46.7004 71.4 46.7004 70.2 46.7004C70.2 46.7004 70.1 46.7004 70 46.6004C70.2 45.5004 70.4 44.3004 70.6 43.2004C71.7 37.0004 72.7 30.8004 73.8 24.6004C74.1 23.1004 74.3 21.5004 74.6 20.0004C74.6 19.8004 74.8 19.5004 75 19.5004C78.2 18.7004 81.5 18.4004 84.8 19.1004C87.7 19.7004 89.1 21.6004 89.2 24.7004C89.3 27.9004 88.7 31.0004 87.3 33.8004C85.5 37.7004 82.2 39.1004 78.1 38.7004C77.5 38.7004 76.9 38.6004 76.1 38.5004ZM76.6 35.7004C77.4 35.7004 78 35.7004 78.7 35.7004C80.7 35.7004 82.2 34.8004 83.1 33.0004C84.3 30.4004 84.8 27.7004 84.6 24.9004C84.5 22.9004 83.5 21.9004 81.7 21.7004C80.8 21.6004 79.9 21.7004 79 21.7004C78.2 26.4004 77.4 31.0004 76.6 35.7004Z" fill="#272A26"/>
<path d="M90.9 27.1004C92.4 27.1004 93.8 27.1004 95.3 27.1004C95.3 27.8004 95.4 28.5004 95.4 29.2004C95.6 33.6004 95.9 38.1004 96.1 42.5004C96.1 43.0004 96.2 43.5004 96.8 43.8004C96.9 43.6004 97 43.4004 97.1 43.1004C98.9 37.9004 100.8 32.7004 102.6 27.6004C102.7 27.2004 102.9 27.1004 103.3 27.1004C104.6 27.1004 105.8 27.1004 107.1 27.1004C107 27.3004 107 27.4004 107 27.6004C104.6 34.2004 102.3 40.9004 99.9 47.5004C99.3 49.2004 98.6 50.7004 97.5 52.1004C95 55.3004 91.3 55.5004 88.3 54.3004C88.3 54.3004 88.2 54.2004 88.1 54.2004C88.2 53.6004 88.3 53.0004 88.4 52.3004C89.2 52.3004 90 52.3004 90.8 52.3004C92.1 52.3004 93.2 51.8004 93.8 50.7004C94.5 49.6004 95 48.4004 95.7 47.2004C93 46.7004 91.8 45.3004 91.6 42.4004C91.4 38.7004 91.2 34.9004 91 31.2004C91 29.8004 90.9 28.5004 90.9 27.1004Z" fill="#272A26"/>
<path d="M137.3 46.7004C137.8 42.1004 138.2 37.5004 138.7 32.8004C138.6 32.8004 138.6 32.8004 138.5 32.7004C138.4 32.9004 138.3 33.0004 138.2 33.2004C136.4 36.5004 134.6 39.9004 132.8 43.3004C132.6 43.6004 132.4 43.8004 132 43.8004C131.2 43.8004 130.3 43.8004 129.5 43.8004C128.8 40.1004 128.1 36.4004 127.3 32.8004C127.2 32.8004 127.2 32.8004 127.1 32.8004C127 33.0004 127 33.2004 126.9 33.3004C125.9 37.6004 124.8 41.9004 123.8 46.2004C123.7 46.6004 123.6 46.7004 123.2 46.7004C122.3 46.7004 121.4 46.7004 120.4 46.7004C122 40.1004 123.5 33.6004 125.1 27.1004C126.4 27.1004 127.6 27.1004 128.8 27.1004C128.9 27.1004 129.1 27.3004 129.2 27.5004C129.7 30.0004 130.2 32.4004 130.6 34.9004C130.9 36.3004 131.1 37.7004 131.4 39.1004C131.4 39.2004 131.5 39.4004 131.6 39.6004C131.8 39.3004 131.9 39.1004 132 39.0004C134 35.2004 136.1 31.4004 138.1 27.6004C138.3 27.2004 138.5 27.1004 138.9 27.1004C140 27.1004 141.1 27.1004 142.3 27.1004C141.6 33.6004 140.9 40.1004 140.3 46.7004C139.5 46.7004 138.4 46.7004 137.3 46.7004Z" fill="#272A26"/>
<path d="M172.9 30.4004C173.6 27.4004 172.6 24.6004 170.4 23.0004C168.9 21.9004 167.3 21.3004 165.5 20.9004C165.4 20.9004 165.2 20.8004 165 20.8004C165.2 20.2004 165.4 19.7004 165.6 19.1004C165.6 19.0004 165.9 18.9004 166 18.9004C168.7 19.2004 171.3 19.8004 173.4 21.6004C175.2 23.1004 176 25.2004 176.2 27.4004C176.4 29.7004 176.1 32.0004 175.6 34.2004C175.2 36.4004 174.8 38.7004 174.3 40.9004C173.9 42.6004 173.1 44.2004 171.7 45.3004C169.8 46.9004 167.6 47.1004 165.3 47.0004C165 47.0004 164.7 46.9004 164.5 46.9004C161.9 46.4004 160.6 44.9004 160.5 42.3004C160.3 39.4004 160.8 36.7004 162 34.0004C163.8 29.8004 168.1 28.2004 172.3 30.0004C172.5 30.2004 172.7 30.3004 172.9 30.4004ZM163.9 41.3004C164 41.8004 164.1 42.6004 164.3 43.4004C164.6 44.4004 165.3 44.9004 166.3 45.0004C167.8 45.2004 169 44.6004 169.8 43.3004C170.4 42.3004 170.9 41.3004 171.1 40.2004C171.6 37.9004 172 35.6004 172.4 33.3004C172.5 32.7004 172.4 32.5004 171.8 32.3004C169.2 31.2004 166.5 32.1004 165.3 34.6004C164.4 36.6004 164.1 38.8004 163.9 41.3004Z" fill="#272A26"/>
<path d="M187.6 46.7004C187.6 46.3004 187.6 45.9004 187.6 45.5004C187.4 45.6004 187.2 45.7004 187.1 45.8004C185 47.3004 182.6 47.5004 180.2 46.7004C178.6 46.2004 177.8 44.6004 178 42.6004C178.1 41.4004 178.3 40.2004 178.5 39.0004C179.1 35.2004 179.8 31.4004 180.5 27.7004C180.5 27.5004 180.6 27.3004 180.6 27.1004C181.7 27.1004 182.8 27.1004 184 27.1004C183.8 28.5004 183.5 29.8004 183.3 31.2004C182.7 34.7004 182.1 38.1004 181.5 41.6004C181.2 43.4004 182 44.5004 183.8 44.8004C184.9 45.0004 185.9 44.7004 186.9 44.3004C187.3 44.2004 187.4 43.9004 187.5 43.5004C188.4 38.1004 189.4 32.7004 190.3 27.3004C190.3 27.2004 190.3 27.2004 190.4 27.1004C191.5 27.1004 192.6 27.1004 193.8 27.1004C193.7 27.9004 193.5 28.8004 193.4 29.6004C192.4 35.1004 191.5 40.7004 190.6 46.2004C190.5 46.6004 190.4 46.8004 189.9 46.8004C189.2 46.7004 188.4 46.7004 187.6 46.7004Z" fill="#272A26"/>
<path d="M156.6 44.8004C156.5 45.3004 156.5 45.6004 156.4 46.0004C156.4 46.2004 156.2 46.4004 156 46.4004C153.5 47.1004 150.9 47.4004 148.3 46.7004C146.3 46.2004 145.2 44.8004 144.9 42.7004C144.6 40.6004 144.9 38.6004 145.3 36.5004C145.6 34.7004 146.1 32.9004 146.8 31.2004C148.1 28.2004 150.3 26.6004 153.6 26.6004C154.5 26.6004 155.5 26.6004 156.3 26.8004C158.5 27.3004 159.8 28.9004 159.8 31.2004C159.8 32.4004 159.6 33.6004 159.1 34.8004C158.1 37.1004 156.2 38.1004 153.8 38.3004C152.2 38.4004 150.5 38.4004 148.9 38.4004C148.5 38.4004 148.4 38.5004 148.3 38.9004C148.3 39.7004 148.1 40.4004 148.1 41.2004C148.2 43.4004 149.2 44.5004 151.4 44.7004C152.6 44.8004 153.8 44.8004 155 44.8004C155.6 44.8004 156 44.8004 156.6 44.8004ZM148.9 36.1004C150.4 36.1004 151.8 36.2004 153.2 36.1004C154.9 36.0004 156 35.0004 156.3 33.4004C156.4 32.8004 156.5 32.1004 156.4 31.4004C156.3 29.7004 154.8 28.6004 153.1 28.9004C151.9 29.1004 151.1 29.9004 150.5 30.9004C149.6 32.5004 149.2 34.3004 148.9 36.1004Z" fill="#272A26"/>
<path d="M118.9 44.4004C118.8 45.0004 118.7 45.6004 118.6 46.1004C118.6 46.2004 118.4 46.4004 118.3 46.4004C115.9 47.1004 113.4 47.4004 111 46.8004C108.6 46.2004 107.2 44.6004 107 42.1004C106.7 38.3004 107.3 34.6004 109 31.2004C110.4 28.3004 112.8 26.8004 116.1 26.7004C117.8 26.6004 119.5 26.8004 121.1 27.3004C121.4 27.4004 121.6 27.5004 121.5 27.9004C121.2 29.4004 121.2 29.4004 119.7 29.4004C118.9 29.4004 118.1 29.4004 117.3 29.4004C115.6 29.4004 114.3 30.1004 113.6 31.6004C113 32.8004 112.6 34.1004 112.2 35.4004C111.7 37.3004 111.4 39.2004 111.6 41.1004C111.6 41.4004 111.7 41.8004 111.8 42.1004C112.1 43.5004 113 44.2004 114.5 44.3004C115.8 44.3004 117.1 44.3004 118.4 44.3004C118.5 44.4004 118.7 44.4004 118.9 44.4004Z" fill="#272A26"/>
<path d="M188.2 58.9004C188 59.6004 187.7 60.2004 187.5 60.9004C187.4 61.2004 187.4 61.4004 186.9 61.4004C186.5 61.4004 186.5 61.1004 186.4 60.9004C186.1 60.2004 185.9 59.6004 185.5 58.9004C185.4 59.9004 185.3 60.9004 185.3 62.0004C185.1 62.0004 184.8 62.0004 184.5 62.0004C184.6 60.5004 184.7 59.0004 184.8 57.5004C185.7 57.3004 185.7 57.3004 186 58.1004C186.3 58.8004 186.5 59.5004 186.9 60.4004C187.3 59.5004 187.5 58.6004 187.9 57.8004C188 57.6004 188.2 57.4004 188.4 57.4004C188.8 57.3004 189 57.5004 189.1 58.0004C189.1 59.3004 189.3 60.6004 189.3 62.0004C188.6 62.2004 188.5 62.1004 188.5 61.5004C188.4 60.6004 188.4 59.8004 188.3 58.9004H188.2Z" fill="#272A26"/>
<path d="M158.7 58.9004C158.5 59.6004 158.2 60.2004 158 60.9004C157.9 61.2004 157.8 61.4004 157.4 61.4004C157 61.4004 157 61.2004 156.9 60.9004C156.7 60.2004 156.4 59.6004 156 58.9004C155.9 59.9004 155.8 61.0004 155.8 62.0004C155.5 62.0004 155.3 62.0004 155.1 62.0004C155.2 60.5004 155.3 59.0004 155.4 57.5004C156.3 57.3004 156.3 57.3004 156.6 58.1004C156.9 58.8004 157.1 59.5004 157.5 60.4004C157.7 60.0004 157.8 59.8004 157.9 59.5004C158.1 59.1004 158.2 58.6004 158.4 58.2004C158.7 57.4004 158.7 57.4004 159.6 57.6004C159.7 59.1004 159.8 60.6004 159.9 62.1004C159.6 62.1004 159.4 62.1004 159.1 62.1004C159 61.1004 158.9 60.0004 158.9 59.0004C158.8 58.9004 158.7 58.9004 158.7 58.9004Z" fill="#272A26"/>
<path d="M134.3 62.0004C134.3 62.7004 134.3 63.3004 134.3 63.9004C134 63.9004 133.8 63.9004 133.5 63.9004C133.5 63.7004 133.5 63.6004 133.5 63.4004C133.5 61.6004 133.5 59.8004 133.5 58.0004C133.5 57.8004 133.6 57.5004 133.6 57.5004C133.8 57.5004 134.1 57.5004 134.4 57.6004C135.5 57.0004 136.5 57.4004 136.7 58.8004C136.8 59.5004 136.8 60.2004 136.7 60.8004C136.5 62.0004 135.8 62.4004 134.7 62.0004C134.6 62.0004 134.5 62.0004 134.3 62.0004ZM134.3 59.7004C134.3 60.2004 134.3 60.6004 134.3 61.1004C134.3 61.4004 134.4 61.6004 134.7 61.6004C135.3 61.7004 135.7 61.5004 135.8 60.9004C135.9 60.3004 135.9 59.7004 135.9 59.1004C135.9 58.8004 135.8 58.5004 135.7 58.3004C135.5 57.9004 135.1 57.9004 134.6 57.9004C134.2 58.0004 134.3 58.3004 134.3 58.6004C134.3 59.0004 134.3 59.3004 134.3 59.7004Z" fill="#272A26"/>
<path d="M206.6 57.5004C206.6 59.0004 206.6 60.5004 206.6 62.0004C206.4 62.0004 206.1 62.0004 205.8 62.0004C205.8 61.0004 205.8 60.0004 205.8 59.0004H205.7C205.6 59.1004 205.6 59.2004 205.5 59.3004C205.2 60.0004 204.8 60.8004 204.5 61.5004C204.2 62.1004 204.2 62.1004 203.4 62.0004C203.4 60.5004 203.4 59.0004 203.4 57.5004C203.6 57.5004 203.9 57.5004 204.1 57.5004C204.1 58.5004 204.1 59.5004 204.1 60.5004H204.2C204.4 60.2004 204.5 59.8004 204.7 59.5004C204.9 59.0004 205.2 58.6004 205.3 58.1004C205.6 57.4004 206 57.3004 206.6 57.5004Z" fill="#272A26"/>
<path d="M146.9 57.4004C147.8 57.4004 148.6 57.4004 149.4 57.4004C149.5 57.4004 149.7 57.6004 149.7 57.7004C149.7 59.1004 149.7 60.5004 149.7 62.0004C149.4 62.0004 149.2 62.0004 148.9 62.0004C148.9 60.7004 148.9 59.4004 148.9 58.0004C148.5 58.0004 148.1 58.0004 147.7 58.0004C147.7 58.7004 147.6 59.4004 147.6 60.0004C147.6 60.5004 147.5 60.9004 147.4 61.4004C147.3 61.9004 146.9 62.2004 146.3 62.1004C146.2 62.1004 146.1 62.0004 146 61.9004C146.1 61.8004 146.1 61.7004 146.2 61.6004C146.4 61.3004 146.7 60.9004 146.7 60.6004C146.8 59.6004 146.8 58.5004 146.9 57.4004Z" fill="#272A26"/>
<path d="M172.5 62.0004C172.3 62.0004 172 62.0004 171.8 62.0004C171.8 61.4004 171.8 60.8004 171.8 60.3004C171.2 60.2004 170.9 60.4004 170.8 60.8004C170.7 61.1004 170.6 61.4004 170.4 61.7004C170.2 61.9004 170 62.0004 169.7 62.1004C169.6 62.1004 169.3 62.0004 169.2 61.9004C169.3 61.8004 169.4 61.7004 169.5 61.6004C169.6 61.4004 169.7 61.2004 169.8 61.0004C170 60.7004 170.1 60.4004 170.3 60.0004C169.8 59.8004 169.4 59.5004 169.4 58.9004C169.3 57.9004 169.7 57.4004 170.7 57.4004C172.5 57.3004 172.6 57.3004 172.6 59.1004C172.6 60.0004 172.6 60.9004 172.6 61.9004C172.5 61.9004 172.5 61.9004 172.5 62.0004ZM171.7 57.8004C171.3 57.8004 170.9 57.8004 170.6 57.9004C170.2 58.0004 170 58.5004 170.1 59.1004C170.2 59.6004 170.6 59.7004 171.3 59.7004C171.9 59.7004 171.6 59.2004 171.6 59.0004C171.8 58.6004 171.7 58.3004 171.7 57.8004Z" fill="#272A26"/>
<path d="M193.6 57.5004C193.6 59.0004 193.6 60.5004 193.6 62.0004C193.4 62.0004 193.1 62.0004 192.8 62.0004C192.8 60.7004 192.8 59.4004 192.8 58.0004C192.3 58.0004 191.8 58.0004 191.2 58.0004C191.2 59.3004 191.2 60.6004 191.2 62.0004C190.9 62.0004 190.7 62.0004 190.4 62.0004C190.4 60.8004 190.4 59.7004 190.4 58.6004C190.4 57.4004 190.4 57.4004 191.6 57.4004C192.2 57.4004 192.8 57.4004 193.4 57.4004C193.4 57.4004 193.5 57.4004 193.6 57.5004Z" fill="#272A26"/>
<path d="M210.9 62.0004C210.6 62.0004 210.4 62.0004 210.1 62.0004C210.1 61.4004 210.1 60.8004 210.1 60.3004C209.5 60.2004 209.2 60.4004 209.1 60.9004C209 61.2004 208.9 61.5004 208.8 61.7004C208.6 62.2004 208.2 62.2004 207.8 62.1004C207.7 62.1004 207.6 62.0004 207.6 61.9004C207.6 61.9004 207.7 61.8004 207.7 61.7004C207.9 61.5004 208.1 61.2004 208.3 61.0004C208.5 60.7004 208.6 60.4004 208.8 60.1004C208.3 59.9004 207.9 59.6004 207.9 59.0004C207.8 58.0004 208.2 57.5004 209.2 57.4004C211 57.3004 211 57.3004 211 59.1004C210.9 60.0004 210.9 61.0004 210.9 62.0004ZM210.1 57.9004C209.6 57.9004 209 57.7004 208.7 58.2004C208.5 58.5004 208.5 59.0004 208.7 59.3004C209 59.8004 209.6 59.6004 210.1 59.6004C210.1 59.0004 210.1 58.5004 210.1 57.9004Z" fill="#272A26"/>
<path d="M199 57.4004C199.3 57.4004 199.5 57.4004 199.7 57.4004C199.7 58.1004 199.7 58.7004 199.7 59.3004C200.2 59.3004 200.7 59.3004 201.3 59.3004C201.3 58.7004 201.3 58.0004 201.3 57.4004C201.6 57.4004 201.8 57.4004 202.1 57.4004C202.1 58.9004 202.1 60.4004 202.1 62.0004C201.8 62.0004 201.6 62.0004 201.3 62.0004C201.3 61.3004 201.3 60.7004 201.3 60.0004C200.8 60.0004 200.3 60.0004 199.7 60.0004C199.7 60.7004 199.7 61.3004 199.7 62.0004C199.4 62.0004 199.2 62.0004 199 62.0004C199 60.5004 199 59.0004 199 57.4004Z" fill="#272A26"/>
<path d="M197.8 62.1004C197.5 62.1004 197.3 62.0004 197.2 62.0004C197.1 62.0004 196.9 61.9004 196.8 62.0004C196.2 62.3004 195.6 62.3004 195 61.9004C194.6 61.5004 194.5 60.5004 194.8 59.9004C195 59.6004 195.4 59.4004 195.7 59.3004C196.1 59.2004 196.5 59.3004 196.9 59.3004C197 58.8004 197.1 58.2004 196.5 58.0004C196.1 57.8004 195.5 57.9004 195 57.7004C195.1 57.6004 195.3 57.5004 195.4 57.4004C195.9 57.4004 196.4 57.3004 196.8 57.4004C197.4 57.5004 197.7 57.8004 197.7 58.5004C197.8 59.7004 197.8 60.8004 197.8 62.1004ZM196.9 59.8004C195.7 59.6004 195.1 60.1004 195.4 61.0004C195.5 61.5004 195.9 61.6004 196.3 61.5004C196.5 61.5004 196.8 61.3004 196.8 61.1004C197 60.7004 196.9 60.3004 196.9 59.8004Z" fill="#272A26"/>
<path d="M176.9 62.0004C176.6 62.0004 176.4 62.0004 176.1 62.0004C176.1 60.5004 176.1 59.0004 176.1 57.4004C176.3 57.4004 176.6 57.4004 176.8 57.4004C176.8 58.0004 176.8 58.6004 176.8 59.2004C177.2 59.3004 177.5 59.2004 177.6 58.8004C177.7 58.4004 177.9 58.1004 178 57.7004C178.2 57.2004 178.6 57.2004 179.1 57.3004C179.2 57.3004 179.3 57.4004 179.3 57.5004C179.3 57.5004 179.2 57.6004 179.2 57.7004C179 57.9004 178.8 58.1004 178.7 58.4004C178.5 58.8004 178.3 59.2004 178.2 59.5004C178.4 60.0004 178.6 60.4004 178.8 60.9004C178.9 61.2004 178.9 61.7004 179.4 61.7004L179.5 61.9004C179.5 62.0004 179.4 62.1004 179.3 62.1004C178.8 62.2004 178.4 62.0004 178.2 61.5004C178.1 61.2004 178 60.8004 177.9 60.5004C177.8 60.1004 177.5 59.8004 176.9 59.9004C176.9 60.6004 176.9 61.3004 176.9 62.0004Z" fill="#272A26"/>
<path d="M144 59.7004C144.5 59.9004 144.6 60.5004 144.7 61.0004C144.8 61.3004 144.8 61.7004 145.3 61.8004L145.4 62.0004C145.4 62.1004 145.3 62.2004 145.2 62.2004C144.7 62.3004 144.3 62.1004 144.1 61.6004C144 61.3004 143.9 60.9004 143.8 60.6004C143.7 60.1004 143.4 59.9004 142.8 60.1004C142.8 60.8004 142.8 61.4004 142.8 62.1004C142.5 62.1004 142.3 62.1004 142.1 62.1004C142.1 60.6004 142.1 59.1004 142.1 57.5004C142.3 57.5004 142.6 57.5004 142.8 57.5004C142.8 58.1004 142.8 58.7004 142.8 59.3004C143.3 59.5004 143.5 59.3004 143.6 58.9004C143.7 58.5004 143.9 58.2004 144 57.8004C144.2 57.3004 144.6 57.3004 145.1 57.4004C145.2 57.4004 145.3 57.5004 145.3 57.5004C145.3 57.6004 145.3 57.7004 145.2 57.7004C144.7 57.8004 144.7 58.2004 144.5 58.6004C144.4 58.9004 144.2 59.3004 144 59.7004Z" fill="#272A26"/>
<path d="M183.6 59.6004C183.6 60.0004 183.5 60.3004 183.5 60.6004C183.4 61.8004 182.8 62.3004 181.6 62.2004C181 62.2004 180.5 61.8004 180.3 61.2004C180 60.3004 180 59.3004 180.3 58.4004C180.5 57.7004 181 57.4004 181.8 57.4004C182.6 57.4004 183.1 57.7004 183.3 58.4004C183.5 58.8004 183.5 59.2004 183.6 59.6004ZM182.8 59.7004C182.7 59.2004 182.6 58.7004 182.5 58.3004C182.4 58.1004 182.1 57.9004 181.8 57.9004C181.6 57.9004 181.3 58.1004 181.2 58.3004C180.8 59.3004 180.8 60.2004 181.2 61.2004C181.3 61.4004 181.6 61.7004 181.8 61.6004C182 61.6004 182.4 61.4004 182.5 61.2004C182.6 60.7004 182.7 60.2004 182.8 59.7004Z" fill="#272A26"/>
<path d="M163.3 60.0004C162.9 60.0004 162.5 60.0004 162.2 60.0004C162.1 60.0004 161.9 60.0004 161.7 60.0004C161.7 60.7004 161.7 61.3004 161.7 62.0004C161.4 62.0004 161.2 62.0004 160.9 62.0004C160.9 60.5004 160.9 59.0004 160.9 57.4004C161.1 57.4004 161.4 57.4004 161.6 57.4004C161.6 58.0004 161.6 58.7004 161.6 59.3004C162.2 59.3004 162.6 59.3004 163.2 59.3004C163.2 58.7004 163.2 58.0004 163.2 57.4004C163.5 57.4004 163.7 57.4004 164 57.4004C164 57.6004 164 57.8004 164 58.0004C164 59.1004 164 60.2004 164 61.3004C164 62.0004 164 62.0004 163.2 61.9004C163.3 61.4004 163.3 60.7004 163.3 60.0004Z" fill="#272A26"/>
<path d="M167.4 59.2004C167.5 58.1004 167.3 57.8004 166.2 57.8004C166 57.8004 165.7 57.8004 165.5 57.8004C165.5 57.7004 165.5 57.7004 165.4 57.6004C165.5 57.5004 165.7 57.4004 165.8 57.3004C166.3 57.3004 166.8 57.2004 167.2 57.3004C167.8 57.4004 168.1 57.8004 168.1 58.4004C168.1 59.5004 168.1 60.7004 168.1 61.9004C167.8 61.8004 167.6 61.8004 167.4 61.8004C167.3 61.8004 167.2 61.8004 167.1 61.8004C166.7 61.9004 166.3 62.0004 166 62.0004C165.5 62.0004 165.2 61.7004 165.1 61.2004C165 60.9004 165 60.5004 165.1 60.2004C165.2 59.5004 165.5 59.2004 166.2 59.2004C166.7 59.2004 167 59.2004 167.4 59.2004ZM167.5 59.8004C167.3 59.8004 167.1 59.8004 167 59.8004C166.2 59.8004 165.8 60.3004 166 61.1004C166.1 61.6004 166.5 61.7004 167 61.7004C167.5 61.7004 167.5 61.4004 167.5 61.0004C167.5 60.5004 167.5 60.2004 167.5 59.8004Z" fill="#272A26"/>
<path d="M141 60.0004C140.1 60.0004 139.4 60.0004 138.6 60.0004C138.4 61.1004 138.8 61.6004 139.9 61.6004C140.1 61.6004 140.3 61.6004 140.5 61.6004C140.6 61.6004 140.7 61.7004 140.8 61.8004C140.7 61.9004 140.6 62.0004 140.6 62.0004C138.9 62.4004 137.9 62.0004 137.8 60.3004C137.8 59.6004 137.8 58.9004 138 58.2004C138.2 57.5004 138.6 57.2004 139.4 57.2004C140.2 57.2004 140.6 57.5004 140.8 58.2004C140.9 58.8004 140.9 59.4004 141 60.0004ZM140.1 59.5004C140.1 58.9004 140.1 58.3004 139.6 57.9004C139.4 57.8004 139.1 57.8004 139 58.0004C138.6 58.4004 138.6 58.9004 138.6 59.5004C138.8 59.5004 139 59.5004 139.2 59.5004C139.4 59.5004 139.7 59.5004 140.1 59.5004Z" fill="#272A26"/>
<path d="M151.1 57.7004C151.2 57.6004 151.4 57.5004 151.5 57.4004C152 57.4004 152.5 57.3004 152.9 57.4004C153.5 57.5004 153.8 57.9004 153.8 58.6004C153.8 59.7004 153.8 60.9004 153.8 62.1004C153.5 62.0004 153.3 62.0004 153.1 62.0004C153 62.0004 152.8 62.0004 152.7 62.0004C152 62.3004 151.2 62.2004 150.9 61.8004C150.5 61.4004 150.5 60.2004 150.9 59.8004C151.1 59.6004 151.4 59.4004 151.7 59.4004C152.1 59.3004 152.5 59.4004 152.9 59.4004C153 58.7004 152.9 58.2004 152.5 58.1004C152 58.0004 151.5 58.0004 151 57.9004C151.1 57.7004 151.1 57.7004 151.1 57.7004ZM153 59.8004C152.8 59.8004 152.6 59.8004 152.5 59.8004C151.7 59.8004 151.3 60.2004 151.5 61.0004C151.6 61.5004 152 61.6004 152.5 61.6004C153 61.6004 153.1 61.3004 153 60.9004C153 60.5004 153 60.2004 153 59.8004Z" fill="#272A26"/>
</svg>
