<svg width="220" height="80" viewBox="0 0 220 80" fill="none" xmlns="http://www.w3.org/2000/svg">
<path fill-rule="evenodd" clip-rule="evenodd" d="M204.6 56.5004L199.1 46.8004L198.6 46.9004C197.7 47.1004 196.8 47.1004 195.8 47.1004C192 47.1004 188.7 45.8004 186 43.1004C183.3 40.4004 181.9 37.3004 181.9 33.5004V19.1004H186.9V33.6004C186.9 36.0004 187.8 38.0004 189.5 39.7004C191.2 41.4004 193.3 42.2004 195.8 42.2004C198.2 42.2004 200.3 41.4004 202 39.7004C203.7 38.0004 204.6 36.0004 204.6 33.6004V19.1004H209.6V33.6004C209.6 37.3004 208.2 40.5004 205.6 43.2004C205.3 43.5004 204.9 43.8004 204.6 44.1004L203.8 44.7004L210.5 56.5004H204.6ZM177.1 47.3004C173.2 47.3004 169.8 45.9004 167 43.2004C164.2 40.5004 162.8 37.1004 162.7 33.2004C162.7 21.3004 162.7 14.9004 162.7 13.9004H167.9V19.1004H176.5V24.2004H167.9V33.1004C167.9 35.6004 168.8 37.7004 170.6 39.5004C172.4 41.3004 174.5 42.2004 177 42.2004H180.1V47.4004H177.1V47.3004ZM135.9 47.2004C131.8 47.2004 128.4 45.8004 125.5 43.0004C122.6 40.2004 121.2 36.7004 121.2 32.7004C121.2 28.7004 122.6 25.3004 125.5 22.4004C128.4 19.6004 131.8 18.2004 135.9 18.2004C139.9 18.2004 143.4 19.6004 146.2 22.4004C147.5 23.6004 148.4 25.0004 149.1 26.5004H142.8L142.4 26.1004C140.6 24.3004 138.4 23.4004 135.8 23.4004C133.2 23.4004 131 24.3004 129.1 26.1004C127.3 27.9004 126.3 30.1004 126.3 32.6004C126.3 35.2004 127.2 37.3004 129.1 39.1004C130.9 40.9004 133.2 41.8004 135.8 41.8004C138.4 41.8004 140.6 40.9004 142.4 39.1004L142.8 38.7004H149.1C148.4 40.2004 147.4 41.5004 146.2 42.8004C143.4 45.8004 139.9 47.2004 135.9 47.2004ZM153.8 46.4004V26.7004C153.8 25.6004 153.5 24.9004 152.9 24.5004C152.5 24.3004 152.2 24.2004 151.7 24.1004H151.8V19.0004C153 19.0004 154.2 19.3004 155.4 20.0004C157.8 21.3004 159 23.6004 159 26.7004V46.3004H153.8V46.4004ZM104.2 35.3004V30.2004H115.1V35.3004H104.2Z" fill="#4A4A4A"/>
<path fill-rule="evenodd" clip-rule="evenodd" d="M83.5 47.1996C79.4 47.1996 76 45.7996 73.1 42.9996C70.2 40.1996 68.8 36.6996 68.8 32.6996C68.8 28.6996 70.2 25.2996 73.1 22.3996C76 19.5996 79.4 18.1996 83.5 18.1996C87.5 18.1996 91 19.5996 93.8 22.3996C96.7 25.1996 98.1 28.5996 98.1 32.6996C98.1 36.6996 96.7 40.0996 93.8 42.9996C91 45.7996 87.6 47.1996 83.5 47.1996ZM20.4 46.4996V31.9996C20.4 28.2996 21.8 25.0996 24.5 22.3996C27.2 19.6996 30.5 18.3996 34.3 18.3996C38.1 18.3996 41.4 19.6996 44.1 22.3996C46.8 25.0996 48.1 28.1996 48.1 31.9996V46.4996H43.1V31.9996C43.1 29.5996 42.2 27.5996 40.5 25.8996C38.8 24.1996 36.7 23.3996 34.3 23.3996C31.9 23.3996 29.8 24.1996 28 25.8996C26.3 27.5996 25.4 29.5996 25.4 31.9996V46.4996H20.4ZM51.3 46.4996C51.3 45.5996 51.3 39.0996 51.3 27.1996C51.3 23.2996 52.8 19.9996 55.6 17.1996C58.4 14.4996 61.8 13.0996 65.7 13.0996H68.8V18.2996H65.7C63.2 18.2996 61 19.1996 59.3 20.8996C57.5 22.6996 56.6 24.7996 56.6 27.1996V36.0996H65.2V41.1996H56.6V46.3996H51.3V46.4996ZM12.6 46.3996V26.6996C12.6 25.5996 12.3 24.8996 11.7 24.4996C11.3 24.2996 11 24.1996 10.5 24.0996V18.9996C11.7 18.9996 12.9 19.2996 14.1 19.9996C16.5 21.2996 17.7 23.5996 17.7 26.6996V46.2996H12.6V46.3996ZM83.5 41.9996C86.1 41.9996 88.3 41.0996 90.1 39.2996C91.9 37.4996 92.9 35.2996 92.9 32.7996C92.9 30.1996 92 28.0996 90.1 26.2996C88.3 24.4996 86.1 23.5996 83.5 23.5996C80.9 23.5996 78.7 24.4996 76.8 26.2996C75 28.0996 74 30.2996 74 32.7996C74 35.3996 74.9 37.4996 76.8 39.2996C78.7 41.0996 80.9 41.9996 83.5 41.9996Z" fill="#9CC708"/>
<path d="M57.7 62.2002C57.7 63.0002 57.4 63.5002 56.8 63.9002C56.2 64.3002 55.3 64.5002 54.1 64.5002C53.5 64.5002 52.5 64.5002 51.2 64.5002C51.3 63.8002 51.3 62.5002 51.3 60.7002C51.3 59.1002 51.2 57.7002 51 56.7002H51.9C52.7 56.6002 53.6 56.6002 54.4 56.6002C56.4 56.6002 57.4 57.2002 57.4 58.4002C57.4 59.3002 57 59.9002 56.2 60.2002V60.3002C57.2 60.5002 57.7 61.1002 57.7 62.2002ZM56 58.8002C56 58.0002 55.4 57.7002 54.3 57.7002C53.7 57.7002 53.1 57.7002 52.4 57.8002C52.4 58.6002 52.5 59.4002 52.5 60.1002C53.2 60.1002 53.8 60.1002 54.3 60.1002C54.9 60.1002 55.3 60.0002 55.6 59.7002C55.9 59.5002 56 59.2002 56 58.8002ZM56.3 62.3002C56.3 61.7002 56 61.4002 55.5 61.2002C55.2 61.0002 54.7 61.0002 54 61.0002C53.5 61.0002 53 61.0002 52.4 61.1002C52.4 62.1002 52.4 62.9002 52.4 63.5002C52.9 63.6002 53.5 63.6002 54.2 63.6002C55.7 63.5002 56.3 63.1002 56.3 62.3002Z" fill="#6B6A67"/>
<path d="M71.6 59.7002C71.6 59.9002 71.6 60.2002 71.6 60.6002L65.9 60.7002C66 61.5002 66.3 62.2002 66.8 62.7002C67.4 63.2002 68.1 63.5002 69.1 63.5002C69.9 63.5002 70.7 63.4002 71.5 63.2002L71.4 64.4002C70.9 64.6002 70.1 64.7002 69.1 64.7002C67.7 64.7002 66.6 64.3002 65.8 63.5002C65 62.7002 64.7 61.8002 64.7 60.7002C64.7 59.5002 65 58.5002 65.7 57.6002C66.4 56.7002 67.3 56.3002 68.5 56.3002C69.6 56.3002 70.4 56.6002 70.9 57.2002C71.3 57.9002 71.6 58.7002 71.6 59.7002ZM70.2 59.7002C70.2 58.2002 69.5 57.4002 68.2 57.4002C66.9 57.4002 66.1 58.2002 65.9 59.8002L70.2 59.7002Z" fill="#6B6A67"/>
<path d="M86.3 60.5002C86.3 61.9002 85.9 62.9002 85.1 63.7002C84.3 64.4002 83.3 64.8002 82.2 64.8002C80.7 64.8002 79.7 64.2002 79.1 63.1002C78.7 62.2002 78.4 60.9002 78.4 59.0002C78.4 57.0002 78.9 55.5002 79.8 54.5002C80.5 53.7002 81.7 53.3002 83.2 53.1002C84.1 53.0002 85 52.9002 86 52.7002L85.9 54.0002C85.4 54.0002 84.5 54.1002 83 54.3002C81.9 54.4002 81.1 54.7002 80.6 55.1002C80 55.6002 79.7 56.6002 79.7 57.9002H79.8C80.5 57.1002 81.4 56.7002 82.6 56.7002C83.7 56.7002 84.6 57.0002 85.3 57.6002C86 58.4002 86.3 59.3002 86.3 60.5002ZM84.9 60.8002C84.9 60.0002 84.7 59.3002 84.3 58.7002C83.9 58.1002 83.2 57.9002 82.4 57.9002C81.3 57.9002 80.4 58.3002 79.7 59.1002C79.7 60.8002 79.9 62.0002 80.3 62.7002C80.7 63.4002 81.4 63.8002 82.3 63.8002C83.1 63.8002 83.7 63.5002 84.2 62.9002C84.7 62.3002 84.9 61.6002 84.9 60.8002Z" fill="#6B6A67"/>
<path d="M96.1 59.7002L96 60.8002L92.4 60.9002L92.5 59.9002L96.1 59.7002Z" fill="#6B6A67"/>
<path d="M108.6 63.2002L108.5 64.3002C108.1 64.6002 107.5 64.7002 106.7 64.7002C105.3 64.7002 104.2 64.3002 103.4 63.5002C102.6 62.7002 102.3 61.8002 102.3 60.7002C102.3 59.5002 102.7 58.5002 103.5 57.7002C104.3 56.9002 105.4 56.4002 106.7 56.4002C107.4 56.4002 107.9 56.5002 108.3 56.6002L108.1 57.9002C107.5 57.7002 106.9 57.6002 106.3 57.6002C105.5 57.6002 104.9 57.9002 104.4 58.4002C103.9 58.9002 103.7 59.6002 103.7 60.4002C103.7 61.3002 104 62.0002 104.5 62.6002C105.1 63.2002 105.8 63.5002 106.8 63.5002C107.3 63.5002 107.9 63.4002 108.6 63.2002Z" fill="#6B6A67"/>
<path d="M121.4 56.7002V57.9002C120.5 57.8002 119.6 57.8002 118.7 57.8002C118.7 58.6002 118.7 59.5002 118.7 60.7002C118.7 62.0002 118.7 63.3002 118.8 64.4002H117.3C117.4 63.3002 117.4 62.1002 117.4 60.7002C117.4 59.5002 117.4 58.5002 117.3 57.8002C116.4 57.8002 115.5 57.8002 114.6 57.9002V56.7002H121.4Z" fill="#6B6A67"/>
<path d="M134.4 56.7002C134.4 57.0002 134 58.2002 133.1 60.0002C132.1 62.1002 131.5 63.7002 131.3 64.5002C130.9 65.9002 130.6 66.8002 130.2 67.2002C129.8 67.7002 129 68.0002 127.8 68.0002L127.7 66.9002C128.4 66.9002 129 66.7002 129.4 66.2002C129.8 65.7002 130.1 65.2002 130.1 64.5002C130.1 63.9002 129.6 62.5002 128.6 60.2002C127.6 57.9002 127.1 56.8002 127.1 56.7002H128.8C128.8 56.8002 129.1 57.8002 129.8 59.7002C130.5 61.5002 130.8 62.7002 130.8 63.1002H130.9C130.9 62.7002 131.2 61.7002 131.8 60.0002C132.4 58.3002 132.7 57.2002 132.7 56.7002H134.4Z" fill="#6B6A67"/>
<path d="M149 63.4002C149 63.7002 148.9 64.4002 148.8 65.4002C148.7 66.5002 148.6 67.3002 148.6 67.8002H147.6C147.6 67.1002 147.6 66.0002 147.6 64.4002C146.8 64.4002 145.8 64.4002 144.4 64.4002C143.5 64.4002 142.6 64.4002 141.6 64.4002C141.3 66.0002 141.2 67.1002 141.2 67.8002H140.2C140.2 67.3002 140.2 66.6002 140.2 65.7002C140.2 64.8002 140.2 64.0002 140.2 63.3002H141C141.6 61.3002 142.5 59.1002 143.9 56.6002H146.3L147.4 56.4002C147.3 57.5002 147.3 58.9002 147.3 60.6002C147.3 61.3002 147.3 62.2002 147.4 63.3002H149V63.4002ZM146.1 63.4002C146 62.3002 146 61.4002 146 60.7002C146 59.6002 146 58.6002 145.9 57.7002H144.5C144.2 58.3002 143.7 59.1002 143.3 60.2002C142.8 61.2002 142.4 62.3002 142.2 63.5002H146.1V63.4002Z" fill="#6B6A67"/>
<path d="M162.4 64.5002H160.9C161 63.6002 161 62.3002 161 60.8002C161 60.4002 161 59.7002 161.1 58.8002H161C160.9 59.2002 160.1 60.2002 158.7 61.8002C157.4 63.3002 156.7 64.3002 156.7 64.6002H155.5C155.6 63.5002 155.6 62.3002 155.6 60.9002C155.6 59.3002 155.5 58.0002 155.3 56.9002L156.9 56.7002C156.8 57.7002 156.8 59.0002 156.8 60.6002C156.8 61.2002 156.8 61.8002 156.8 62.7002H156.9C157 62.4002 157.8 61.4002 159.2 59.7002C160.5 58.2002 161.1 57.2002 161.1 56.9002L162.3 56.7002C162.2 57.8002 162.2 59.2002 162.2 60.9002C162.3 62.1002 162.3 63.3002 162.4 64.5002Z" fill="#6B6A67"/>
<path d="M176 64.5002H174.5C174.5 63.6002 174.6 62.5002 174.6 61.2002C174.1 61.2002 173.6 61.1002 173.1 61.1002C172.3 61.1002 171.7 61.3002 171.4 61.6002C171.1 62.0002 170.7 62.9002 170.3 64.4002H169C169.4 63.1002 169.8 62.1002 170.1 61.6002C170.4 61.1002 170.7 60.7002 171.1 60.7002V60.6002C170 60.3002 169.4 59.7002 169.4 58.8002C169.4 57.3002 170.4 56.5002 172.3 56.5002C173.1 56.5002 173.9 56.5002 174.9 56.6002L175.9 56.4002C175.8 57.6002 175.8 59.0002 175.8 60.6002C175.9 62.5002 176 63.7002 176 64.5002ZM174.7 60.2002C174.7 59.1002 174.7 58.3002 174.6 57.8002C173.9 57.7002 173.1 57.7002 172.2 57.7002C171.2 57.7002 170.8 58.1002 170.8 59.0002C170.8 59.9002 171.6 60.3002 173.2 60.3002C173.6 60.2002 174.1 60.2002 174.7 60.2002Z" fill="#6B6A67"/>
</svg>
