<svg width="220" height="80" viewBox="0 0 220 80" fill="none" xmlns="http://www.w3.org/2000/svg">
<path d="M93.8999 22.7H99.6999C104.1 22.7 107.2 25.3 107.2 29.7C107.2 34 104 36.7 99.6999 36.7H93.8999V22.7ZM103.6 29.7C103.6 27.5 102.3 25.9 99.7999 25.9H97.4999V33.6H99.7999C102.2 33.5 103.6 31.7 103.6 29.7Z" fill="black"/>
<path d="M108.6 29.7C108.6 25.5 111.8 22.5 116.1 22.5C120.4 22.5 123.5 25.5 123.5 29.7C123.5 33.9 120.3 36.9 116.1 36.9C111.8 36.9 108.6 33.9 108.6 29.7ZM119.9 29.7C119.9 27.4 118.4 25.7 116.1 25.7C113.8 25.7 112.3 27.5 112.3 29.7C112.3 32 113.8 33.7 116.1 33.7C118.4 33.7 119.9 31.9 119.9 29.7Z" fill="black"/>
<path d="M133.4 36.6L131.1 31.9H129.3V36.6H125.7V22.7H132.7C135.8 22.7 137.5 24.7 137.5 27.3C137.5 29.7 136 31 134.7 31.5L137.5 36.6H133.4ZM133.8 27.3C133.8 26.4 133 25.8 132.1 25.8H129.3V28.8H132.1C133 28.8 133.8 28.3 133.8 27.3Z" fill="black"/>
<path d="M138.9 29.7C138.9 25.5 142.1 22.5 146.4 22.5C150.7 22.5 153.8 25.5 153.8 29.7C153.8 33.9 150.6 36.9 146.4 36.9C142.1 36.9 138.9 33.9 138.9 29.7ZM150.1 29.7C150.1 27.4 148.6 25.7 146.3 25.7C144 25.7 142.5 27.5 142.5 29.7C142.5 32 144 33.7 146.3 33.7C148.7 33.7 150.1 31.9 150.1 29.7Z" fill="black"/>
<path d="M165.3 36.6V31H159.5V36.6H155.9V22.7H159.5V27.9H165.3V22.7H168.9V36.6H165.3Z" fill="black"/>
<path d="M171 29.7C171 25.5 174.2 22.5 178.5 22.5C182.8 22.5 185.9 25.5 185.9 29.7C185.9 33.9 182.7 36.9 178.5 36.9C174.2 36.9 171 33.9 171 29.7ZM182.3 29.7C182.3 27.4 180.8 25.7 178.5 25.7C176.2 25.7 174.7 27.5 174.7 29.7C174.7 32 176.2 33.7 178.5 33.7C180.8 33.7 182.3 31.9 182.3 29.7Z" fill="black"/>
<path d="M191.2 36.6L186 22.7H190.1L193.5 32.8L196.9 22.7H201L195.7 36.6H191.2Z" fill="black"/>
<path d="M93.8999 43.6H99.6999C104.1 43.6 107.2 46.2 107.2 50.6C107.2 54.9 104 57.6 99.6999 57.6H93.8999V43.6ZM103.6 50.5C103.6 48.3 102.3 46.7 99.7999 46.7H97.4999V54.4H99.7999C102.2 54.4 103.6 52.6 103.6 50.5Z" fill="black"/>
<path d="M109.4 57.5V43.6H119.6V46.7H113V48.9H119.5V52H113V54.4H119.6V57.5H109.4Z" fill="black"/>
<path d="M121.2 55.6L123.1 52.9C124.1 53.9 125.6 54.7 127.5 54.7C128.7 54.7 129.5 54.2 129.5 53.5C129.5 51.6 121.6 53.1 121.6 47.8C121.6 45.5 123.6 43.4 127.2 43.4C129.4 43.4 131.4 44.1 132.9 45.3L130.9 47.9C129.7 46.9 128.2 46.5 126.8 46.5C125.8 46.5 125.3 46.9 125.3 47.5C125.3 49.3 133.2 48 133.2 53.2C133.2 56 131.1 57.9 127.4 57.9C124.5 57.8 122.6 56.9 121.2 55.6Z" fill="black"/>
<path d="M135.3 57.5V43.6H138.9V57.5H135.3Z" fill="black"/>
<path d="M141 50.6C141 46.2 144.4 43.4 148.5 43.4C151.6 43.4 153.5 45 154.5 46.8L151.5 48.4C151 47.5 149.9 46.6 148.6 46.6C146.3 46.6 144.7 48.3 144.7 50.6C144.7 52.9 146.3 54.6 148.6 54.6C149.6 54.6 150.7 54.2 151.2 53.8V52.7H148.1V49.5H154.8V55C153.3 56.6 151.3 57.7 148.6 57.7C144.4 57.8 141 55 141 50.6Z" fill="black"/>
<path d="M166.7 57.5L160.8 49.4V57.5H157.2V43.6H160.9L166.5 51.3V43.6H170.1V57.5H166.7Z" fill="black"/>
<path d="M61.9 18.9L55.4 25.6C56.1 26 56.8 26.4 57.4 26.9L63.7 20.8C64.7 19.8 65.7 18.9 66.6 18C65.9 17.4 65.2 16.8 64.5 16.3C63.7 17.1 62.9 17.9 61.9 18.9Z" fill="#008CCF"/>
<path d="M31.6 64.4L30.4 65.6C28.9 67.2 27.5 68.6 26.3 70H29.1C30 69.1 31 68.2 32 67.2L33.1 66.1C34.7 64.6 36.3 63 37.9 61.3C38.9 60.2 40 59.1 41.1 57.9H38.1C37.5 58.5 36.9 59 36.3 59.6C34.6 61.3 33.1 62.9 31.6 64.4Z" fill="#008CCF"/>
<path d="M35.2 68.2L34.2 69.2C33.9 69.5 33.7 69.7 33.4 70H36.6L36.8 69.8C38.4 68.3 40 66.7 41.6 65C42.9 63.6 44.2 62.2 45.6 60.7C46.2 60 46.9 59.3 47.6 58.6C48 58.1 48.5 57.7 48.9 57.2C48 57.4 47.1 57.6 46.1 57.7C45.5 58.3 44.9 58.8 44.3 59.4C42.8 60.8 41.4 62.1 40 63.4C38.3 65 36.8 66.6 35.2 68.2Z" fill="#008CCF"/>
<path d="M73.1 30L66.6 36.7C65.5 37.8 64.5 38.9 63.5 40C63.5 41.1 63.4 42.1 63.2 43.1C64.9 41.5 66.6 39.9 68.3 38.3L75 31.8C75 31.8 75 31.8 75.1 31.7C74.9 30.7 74.6 29.8 74.2 28.8C73.8 29.3 73.4 29.7 73.1 30Z" fill="#008CCF"/>
<path d="M59.7 28.8C60.2 29.4 60.7 30 61.1 30.7L67.5 24.5C68.5 23.5 69.4 22.7 70.2 21.8C69.7 21.1 69.1 20.4 68.5 19.7C67.6 20.6 66.7 21.5 65.7 22.6L59.7 28.8Z" fill="#008CCF"/>
<path d="M51.7 21.9C51.2 22.5 50.6 23 50.1 23.6C51 23.8 51.8 24 52.6 24.3C52.9 24.1 53.1 23.8 53.4 23.6L60.1 17.1C60.9 16.3 61.6 15.6 62.4 14.9C61.6 14.4 60.8 14 59.9 13.6C59.4 14.1 58.8 14.7 58.3 15.3L51.7 21.9Z" fill="#008CCF"/>
<path d="M71.2 28.2C71.8 27.6 72.4 27 73 26.4C72.6 25.6 72.1 24.7 71.7 23.9C70.9 24.7 70.2 25.4 69.3 26.3L62.8 33C62.7 33.2 62.5 33.3 62.4 33.4C62.7 34.2 62.9 35 63.1 35.9C63.6 35.5 64 35 64.5 34.6L71.2 28.2Z" fill="#008CCF"/>
<path d="M71.1 55L70.6 55.6C68.6 57.7 66.5 60 64.5 62C63 63.5 61.4 65 59.8 66.6C61.4 65.9 62.9 65 64.3 64C64.7 63.6 65 63.3 65.4 62.9C67.1 61.2 68.8 59.5 70.6 57.9C71.9 56.2 73 54.3 73.8 52.2C72.8 53.2 71.9 54.1 71.1 55Z" fill="#008CCF"/>
<path d="M43.6 22.8C44.5 22.8 45.4 22.9 46.3 23C47.4 22 48.5 20.9 49.6 19.8L56.3 13.3C56.6 13 56.9 12.7 57.2 12.4C56.3 12.1 55.3 11.8 54.4 11.5L48 18.2C46.5 19.8 45 21.3 43.6 22.8Z" fill="#008CCF"/>
<path d="M70.3 40.5C68 42.9 65.8 45.2 63.7 47.6L63.2 48.2C61.2 50.4 59.1 52.6 57 54.7C54.9 56.8 52.6 59 50.2 61.2C49.5 61.9 48.8 62.5 48.1 63.1C46.6 64.5 45.1 65.8 43.8 67.1C42.8 68.1 41.8 69.1 40.9 70H43C43.4 70 43.8 70 44.2 70C44.6 69.6 45 69.2 45.4 68.8C46.7 67.4 48 66 49.4 64.5C50 63.8 50.7 63.1 51.4 62.4C53.6 60 55.7 57.7 57.9 55.6C60 53.5 62.2 51.4 64.4 49.4L64.9 48.9C67.3 46.7 69.6 44.5 72 42.3L76 38.4C75.9 37.3 75.8 36.2 75.7 35.1L70.3 40.5Z" fill="#008CCF"/>
<path d="M74 44.2C71.8 46.5 69.5 48.9 67.4 51.3L66.7 52C64.7 54.1 62.7 56.3 60.6 58.4C58.5 60.5 56.2 62.7 53.8 64.9C53.1 65.6 52.4 66.2 51.7 66.8C50.6 67.8 49.6 68.8 48.6 69.7C49.8 69.5 51 69.3 52.2 69.1C52.5 68.8 52.8 68.5 53.1 68.2C53.7 67.5 54.4 66.8 55 66.1C57.1 63.7 59.3 61.5 61.5 59.3C63.6 57.2 65.8 55.2 67.9 53.2L68.5 52.7C70.8 50.6 73.1 48.4 75.4 46.2C75.6 45 75.8 43.7 75.8 42.4L74 44.2Z" fill="#008CCF"/>
<path d="M27 12.2L27.7 11.6C28.3 11.1 28.9 10.5 29.5 10H26.9C26.8 10.1 26.6 10.3 26.5 10.4L26 11C24 13.2 21.9 15.4 19.8 17.5C19.5 17.8 19.3 18 19 18.3V20.1C19.6 19.5 20.1 18.9 20.7 18.4C22.7 16.3 24.9 14.2 27 12.2Z" fill="#008CCF"/>
<path d="M24.5 59.8L25.5 58.8C27.1 57.2 28.8 55.6 30.5 53.8C30.8 53.4 31.2 53.1 31.5 52.7V49.6C30.6 50.4 29.7 51.3 28.8 52.1C27.1 53.7 25.6 55.3 24.1 56.8L23 58.1C21.5 59.6 20.2 61.1 19 62.4V65C19.4 64.7 19.7 64.3 20.1 64C21.4 62.8 22.9 61.3 24.5 59.8Z" fill="#008CCF"/>
<path d="M37.6 21.6L37.1 22.1C36.9 22.3 36.6 22.6 36.4 22.8H38.7C41 20.7 43.4 18.4 45.8 16.2L51.3 10.9C50.3 10.7 49.3 10.5 48.2 10.4L44.2 14.6C42 16.8 39.8 19.2 37.6 21.6Z" fill="#008CCF"/>
<path d="M21.9 55C23.5 53.5 25.1 51.9 26.8 50.1C28.1 48.7 29.5 47.3 30.9 45.7C31.1 45.5 31.3 45.2 31.6 45V42.5C30.9 43.1 30.2 43.8 29.6 44.4C28.1 45.8 26.6 47.1 25.2 48.5C23.5 50.1 22 51.7 20.5 53.2L19.3 54.4C19.2 54.5 19.1 54.6 19 54.7V57.8C19.6 57.2 20.2 56.7 20.8 56.1L21.9 55Z" fill="#008CCF"/>
<path d="M23.1 46.4C24.4 45 25.8 43.6 27.2 42.1C27.8 41.4 28.5 40.7 29.1 40C29.9 39.1 30.7 38.2 31.6 37.3V35.4C30.4 36.5 29.2 37.7 27.9 38.8C27.2 39.5 26.5 40.1 25.8 40.8C24.3 42.2 22.9 43.5 21.5 44.8C20.7 45.6 19.8 46.4 19.1 47.2V50.5C20.3 49.2 21.7 47.9 23.1 46.4Z" fill="#008CCF"/>
<path d="M27.8 60.7L26.8 61.7C25.2 63.4 23.7 64.9 22.4 66.3C21.9 66.8 21.4 67.3 21 67.8C20.3 68.6 19.6 69.3 19.1 69.9H21.3C21.6 69.6 21.9 69.3 22.3 69C22.8 68.6 23.3 68.1 23.8 67.6C25.2 66.3 26.8 64.8 28.5 63.2L29.3 62.4C30.8 61 32.3 59.5 33.9 57.8H31.6V56.8C30.2 58.3 29 59.5 27.8 60.7Z" fill="#008CCF"/>
<path d="M19.7 10C19.5 10.2 19.2 10.5 19 10.7V12.6C19.9 11.7 20.8 10.9 21.8 10H19.7Z" fill="#008CCF"/>
<path d="M30.9 15.8L31.4 15.4C33.3 13.7 35.2 11.9 37.1 10.1H34C32.7 11.5 31.4 12.9 30.2 14.2L29.7 14.8C27.7 16.9 25.6 19.2 23.6 21.2C22.2 22.7 20.6 24.1 19.1 25.6V27.7C20.9 25.7 22.7 23.8 24.5 22.1C26.5 19.9 28.8 17.8 30.9 15.8Z" fill="#008CCF"/>
<path d="M21.7 32.5C23.8 30.1 26 27.9 28.2 25.7C30.2 23.6 32.4 21.6 34.6 19.6L35.2 19C37.5 16.9 39.9 14.6 42.3 12.4L44.8 10C44.2 10 43.6 10 42.9 10H41.4L40.7 10.8C38.5 13.1 36.2 15.5 34.1 17.9L33.5 18.6C31.5 20.7 29.5 22.9 27.4 24.9C25.3 27 23 29.2 20.6 31.4C20.1 31.9 19.6 32.3 19.1 32.7V35.4C19.3 35.1 19.6 34.9 19.8 34.6C20.3 34 21 33.3 21.7 32.5Z" fill="#008CCF"/>
<path d="M23.4 38.4C24 37.7 24.7 37 25.3 36.3C27.3 34 29.4 31.9 31.5 29.8V28C31.3 28.2 31.1 28.4 30.9 28.6C28.8 30.8 26.5 32.9 24.1 35.1C23.4 35.7 22.7 36.4 22.1 37C21 38 20 39 19 39.9V43.1C19.1 43 19.2 42.9 19.4 42.7C20.7 41.3 22 39.9 23.4 38.4Z" fill="#008CCF"/>
<path d="M43 42.4L41.8 41.2V44.5C42.7 45.4 43.6 46.2 44.6 47.1C45.5 47.1 46.4 47 47.2 46.8C45.8 45.4 44.4 43.9 43 42.4Z" fill="#008CCF"/>
<path d="M48.8 36.7C50.2 38.1 51.7 39.4 53.1 40.8C53.1 40.5 53.2 40.2 53.2 39.9C53.2 39 53.1 38.3 52.9 37.6C52.1 36.8 51.3 35.9 50.5 35.1L49.1 33.7C47.9 33.2 46.5 33 44.9 33L48.8 36.7Z" fill="#008CCF"/>
<path d="M45.1 40.4C46.9 42.1 48.6 43.8 50.4 45.4C50.9 45 51.4 44.6 51.7 44.1C50.1 42.3 48.4 40.6 46.7 38.8L41.8 33.7V37.3L45.1 40.4Z" fill="#008CCF"/>
</svg>
