<svg width="32" height="32" viewBox="0 0 32 32" xmlns="http://www.w3.org/2000/svg">
<path d="M31 22.1992V17.6992C31 16.2992 29.9 15.1992 28.5 15.1992H26.5V10.1992C26.5 9.89922 26.3 9.69922 26 9.69922H23C22.7 9.69922 22.5 9.89922 22.5 10.1992V15.1992H18V9.19922C18 8.89922 17.8 8.69922 17.5 8.69922H14.5C14.2 8.69922 14 8.99922 14 9.19922V15.1992H9.5V10.1992C9.5 9.99922 9.3 9.69922 9 9.69922H6C5.7 9.69922 5.5 9.89922 5.5 10.1992V15.1992H3.5C2.1 15.1992 1 16.2992 1 17.6992V22.1992C1 23.2992 1.6 24.2992 2.5 24.7992V30.1992H1.5C1.2 30.1992 1 30.3992 1 30.6992C1 30.9992 1.2 31.1992 1.5 31.1992H30.5C30.8 31.1992 31 30.9992 31 30.6992C31 30.3992 30.8 30.1992 30.5 30.1992H29.5V24.7992C30.4 24.2992 31 23.2992 31 22.1992ZM23.5 10.6992H25.5V15.1992H23.5V10.6992ZM15 9.69922H17V15.1992H15V9.69922ZM6.5 10.6992H8.5V15.1992H6.5V10.6992ZM2 17.6992C2 16.8992 2.7 16.1992 3.5 16.1992H28.5C29.3 16.1992 30 16.8992 30 17.6992V22.1992C30 22.9992 29.5 23.6992 28.8 23.9992C28 24.2992 27.2 24.1992 26.6 23.5992C26.2 23.1992 26 22.6992 26 22.1992V20.1992C26 19.3992 25.6 18.7992 24.9 18.3992C24.8 18.3992 24.7 18.2992 24.7 18.2992H24.6C24.5 18.2992 24.5 18.2992 24.4 18.2992H24.3C24.3 18.2992 24.3 18.2992 24.2 18.2992C24.2 18.2992 24.2 18.2992 24.1 18.2992C24 18.2992 24 18.2992 23.9 18.2992C23.8 18.2992 23.8 18.2992 23.7 18.2992C23.6 18.2992 23.5 18.2992 23.4 18.3992H23.3C23.2 18.3992 23.1 18.4992 23 18.4992C23 18.4992 22.9 18.4992 22.9 18.5992C22.8 18.6992 22.7 18.7992 22.6 18.8992C22.2 19.2992 22 19.7992 22 20.2992V21.2992C22 22.3992 21.1 23.2992 20 23.2992C18.9 23.2992 18 22.3992 18 21.2992V20.2992C18 19.4992 17.6 18.8992 16.9 18.4992C16.8 18.4992 16.7 18.3992 16.7 18.3992H16.6C16.5 18.3992 16.5 18.3992 16.4 18.3992H16.3C16.3 18.3992 16.3 18.3992 16.2 18.3992C16.2 18.3992 16.2 18.3992 16.1 18.3992C16 18.3992 16 18.3992 15.9 18.3992C15.8 18.3992 15.8 18.3992 15.7 18.3992C15.6 18.3992 15.5 18.3992 15.4 18.4992H15.3C15.2 18.4992 15.1 18.5992 15 18.5992C15 18.5992 14.9 18.5992 14.9 18.6992C14.8 18.7992 14.7 18.8992 14.6 18.9992C14.2 19.3992 14 19.8992 14 20.3992V23.3992C14 24.4992 13.1 25.3992 12 25.3992C10.9 25.3992 10 24.4992 10 23.3992V20.3992C10 19.5992 9.6 18.9992 8.9 18.5992C8.8 18.5992 8.7 18.4992 8.7 18.4992H8.6C8.5 18.4992 8.5 18.4992 8.4 18.4992H8.2C7.1 18.4992 6.2 19.3992 6.2 20.4992V22.4992C6.2 22.9992 6 23.4992 5.6 23.8992C5.1 24.3992 4.4 24.5992 3.7 24.3992C3.6 24.3992 3.5 24.2992 3.4 24.2992C3 23.9992 2.8 23.7992 2.6 23.6992C2.2 23.2992 2 22.7992 2 22.1992V17.6992ZM3.5 25.1992C3.6 25.1992 3.6 25.1992 3.7 25.1992C4.1 25.1992 4.6 25.1992 5 24.9992C5.1 24.9992 5.3 24.8992 5.4 24.7992H5.5C5.6 24.6992 5.7 24.6992 5.8 24.5992C5.8 24.5992 5.9 24.5992 5.9 24.4992C6.6 24.0992 7 23.1992 7 22.1992V20.1992C7 19.8992 7.1 19.6992 7.3 19.4992C7.4 19.4992 7.4 19.3992 7.5 19.3992C7.5 19.3992 7.6 19.2992 7.7 19.2992H8.2C8.6 19.4992 8.9 19.8992 8.9 20.2992V23.1992C8.9 24.8992 10.2 26.1992 11.9 26.1992C13.6 26.1992 14.9 24.8992 14.9 23.1992V20.1992C14.9 19.8992 15.1 19.4992 15.4 19.3992C15.5 19.3992 15.5 19.2992 15.6 19.2992C15.6 19.2992 15.7 19.2992 15.8 19.2992H16.2C16.6 19.4992 16.9 19.8992 16.9 20.2992V21.1992C16.9 22.8992 18.2 24.1992 19.9 24.1992C21.6 24.1992 22.9 22.8992 22.9 21.1992V20.1992C22.9 19.8992 23 19.6992 23.2 19.4992C23.3 19.4992 23.3 19.3992 23.4 19.3992C23.4 19.3992 23.5 19.2992 23.6 19.2992C23.6 19.2992 23.6 19.2992 23.7 19.2992H24.2C24.6 19.4992 24.9 19.8992 24.9 20.2992V22.1992C24.9 22.9992 25.2 23.7992 25.8 24.2992C25.9 24.3992 26 24.4992 26.1 24.5992C26.1 24.5992 26.2 24.5992 26.2 24.6992C26.3 24.7992 26.4 24.7992 26.5 24.8992C26.5 24.8992 26.6 24.8992 26.6 24.9992C26.7 25.0992 26.8 25.0992 26.9 25.0992C26.9 25.0992 26.9 25.0992 27 25.0992C27.3 25.1992 27.6 25.1992 27.9 25.2992C28 25.2992 28.2 25.2992 28.3 25.2992H28.4C28.5 25.2992 28.5 25.2992 28.6 25.2992V30.2992H3.5V25.1992Z"/>
<path d="M16 7.69922C17.4 7.69922 18.5 6.59922 18.5 5.19922C18.5 3.99922 16.8 1.39922 16.4 0.899219C16.3 0.799219 16.1 0.699219 16 0.699219C15.8 0.699219 15.7 0.799219 15.6 0.899219C15.3 1.39922 13.5 3.99922 13.5 5.19922C13.5 6.59922 14.6 7.69922 16 7.69922ZM16 2.09922C16.7 3.19922 17.5 4.69922 17.5 5.19922C17.5 5.99922 16.8 6.69922 16 6.69922C15.2 6.69922 14.5 5.99922 14.5 5.19922C14.5 4.69922 15.3 3.29922 16 2.09922Z"/>
<path d="M24.5 8.69922C25.9 8.69922 27 7.59922 27 6.19922C27 4.99922 25.3 2.49922 24.9 1.99922C24.8 1.89922 24.6 1.79922 24.5 1.79922C24.3 1.79922 24.2 1.89922 24.1 1.99922C23.7 2.49922 22 4.99922 22 6.19922C22 7.59922 23.1 8.69922 24.5 8.69922ZM24.5 3.09922C25.2 4.29922 26 5.69922 26 6.19922C26 6.99922 25.3 7.69922 24.5 7.69922C23.7 7.69922 23 6.99922 23 6.19922C23 5.69922 23.8 4.29922 24.5 3.09922Z"/>
<path d="M7.5 8.69922C8.9 8.69922 10 7.59922 10 6.19922C10 4.99922 8.3 2.49922 7.9 1.99922C7.8 1.79922 7.7 1.79922 7.5 1.79922C7.3 1.79922 7.2 1.79922 7.1 1.99922C6.7 2.49922 5 4.99922 5 6.19922C5 7.59922 6.1 8.69922 7.5 8.69922ZM7.5 3.09922C8.2 4.29922 9 5.69922 9 6.19922C9 6.99922 8.3 7.69922 7.5 7.69922C6.7 7.69922 6 7.09922 6 6.19922C6 5.69922 6.8 4.29922 7.5 3.09922Z"/>
</svg>
