<svg width="32" height="32" viewBox="0 0 32 32" xmlns="http://www.w3.org/2000/svg">
<path d="M7.3 18.5004C6.9 18.5004 6.5 18.9004 6.5 19.3004C6.5 19.7004 6.9 20.1004 7.3 20.1004C7.7 20.1004 8.1 19.7004 8.1 19.3004C8.1 18.9004 7.8 18.5004 7.3 18.5004Z"/>
<path d="M29 12.3004L23.3 10.0004C22.3 9.60039 21.3 9.40039 20.3 9.40039H16.8C15.5 9.40039 14.3 9.70039 13.2 10.3004L8 13.0004L4.3 13.5004C3.4 13.6004 2.6 14.1004 2 14.8004C1.3 15.5004 1 16.3004 1 17.3004V19.5004C1 19.8004 1.3 20.0004 1.6 20.0004H4.2C4.3 20.6004 4.6 21.1004 5.1 21.6004C5.7 22.2004 6.5 22.5004 7.3 22.5004C8.1 22.5004 8.9 22.2004 9.5 21.6004C9.9 21.2004 10.3 20.6004 10.4 20.0004H21.4C21.5 20.6004 21.8 21.1004 22.3 21.6004C22.9 22.2004 23.7 22.5004 24.5 22.5004C25.3 22.5004 26.1 22.2004 26.7 21.6004C27.1 21.2004 27.4 20.6004 27.6 20.0004H30.4C30.7 20.0004 31 19.7004 31 19.4004V15.3004C31 14.0004 30.2 12.8004 29 12.3004ZM22.8 11.2004L27.2 13.0004H23.9L22.4 11.1004C22.5 11.1004 22.7 11.2004 22.8 11.2004ZM20.2 10.7004C20.3 10.7004 20.4 10.7004 20.5 10.7004L22.2 12.9004H17.2V10.7004H20.2ZM13.7 11.5004C14.5 11.1004 15.3 10.9004 16.1 10.8004V13.0004H10.7L13.7 11.5004ZM4.3 14.7004C4 15.5004 3.3 16.2004 2.4 16.3004C2.7 15.5004 3.4 14.9004 4.3 14.7004ZM7.3 21.3004C6.2 21.3004 5.4 20.4004 5.4 19.4004C5.4 18.3004 6.3 17.5004 7.3 17.5004C8.3 17.5004 9.2 18.4004 9.2 19.4004C9.3 20.4004 8.4 21.3004 7.3 21.3004ZM24.5 21.3004C23.4 21.3004 22.6 20.4004 22.6 19.4004C22.6 18.3004 23.5 17.5004 24.5 17.5004C25.6 17.5004 26.4 18.4004 26.4 19.4004C26.4 20.4004 25.6 21.3004 24.5 21.3004ZM29.8 18.8004H27.6C27.3 17.3004 26 16.2004 24.5 16.2004C22.9 16.2004 21.6 17.3004 21.4 18.8004H10.4C10.1 17.3004 8.8 16.2004 7.3 16.2004C5.7 16.2004 4.4 17.3004 4.2 18.8004H2.2V17.5004C3.9 17.5004 5.4 16.2004 5.6 14.5004L8.2 14.1004H27.5V15.0004C27.5 16.1004 28.4 17.0004 29.5 17.0004H29.8V18.8004ZM29.8 15.8004H29.5C29.1 15.8004 28.7 15.4004 28.7 15.0004V14.2004H29.4C29.6 14.5004 29.8 14.9004 29.8 15.4004V15.8004Z"/>
<path d="M24.5 18.5004C24.1 18.5004 23.7 18.9004 23.7 19.3004C23.7 19.7004 24.1 20.1004 24.5 20.1004C24.9 20.1004 25.3 19.7004 25.3 19.3004C25.3 18.9004 25 18.5004 24.5 18.5004Z"/>
</svg>
