<svg width="32" height="32" viewBox="0 0 32 32" xmlns="http://www.w3.org/2000/svg">
<path d="M15.4 17L12.2 16.1V14.8C13.4 13.9 14.2 12.6 14.3 11.1C14.9 10.9 15.4 10.4 15.4 9.7C15.4 9.3 15.2 8.9 14.9 8.6V5.6C14.9 4.8 14.5 4 13.8 3.5C13.6 2.6 12.8 2 11.9 2H7.7C5.5 2 3.6 3.8 3.6 6.1V8.6C3.3 8.8 3.1 9.2 3.1 9.6C3.1 10.3 3.5 10.8 4.2 11C4.3 12.5 5.1 13.9 6.3 14.7V16L2.5 17.1C1.6 17.4 1 18.2 1 19.1V24.2C1 24.4 1.2 24.6 1.4 24.6H1.5V29.9C1.5 30.1 1.7 30.3 1.9 30.3C2.1 30.3 2.3 30.1 2.3 29.9V24.6H4V29.9C4 30.1 4.2 30.3 4.4 30.3C4.6 30.3 5 30.1 5 29.9V21.6C5 21.5 5 21.5 5 21.4L4 19.3C3.8 19.1 3.5 19 3.3 19.1C3.1 19.2 3 19.5 3.1 19.7L4.1 21.7V23.8H1.9V19.1C1.9 18.6 2.2 18.2 2.7 18L4.3 17.5C4.8 19.8 6.9 21.4 9.3 21.4C10.5 21.4 11.7 21 12.6 20.2C13.4 19.5 14 18.5 14.2 17.5L15.2 17.8H15.3C15.5 17.8 15.7 17.7 15.7 17.5C15.8 17.3 15.7 17 15.4 17ZM5 10.6C5 10.4 4.8 10.2 4.6 10.2C4.2 10.2 4 9.9 4 9.6C4 9.4 4.1 9.2 4.3 9.1C4.4 9.1 4.5 9 4.6 9H5.3C5.7 9 6.1 8.7 6.2 8.3L6.5 7.4C7.5 7.4 10.8 7.2 12.6 6.3C12.8 6.2 12.9 5.9 12.8 5.7C12.7 5.5 12.4 5.4 12.2 5.5C10.2 6.5 6.2 6.5 6.2 6.5C6 6.5 5.8 6.6 5.8 6.8L5.3 8.1C5.3 8.1 5.3 8.2 5.2 8.2H4.5V6C4.5 4.2 5.9 2.8 7.7 2.8H11.9C12.5 2.8 12.9 3.2 13 3.7C13 3.8 13.1 3.9 13.2 4C13.7 4.3 14 4.9 14 5.4V8.7C14 8.9 14.1 9 14.2 9.1C14.4 9.2 14.5 9.4 14.5 9.6C14.5 9.9 14.2 10.2 13.9 10.2C13.7 10.2 13.5 10.4 13.5 10.6C13.5 12.9 11.6 14.8 9.3 14.8C7 14.8 5 13 5 10.6ZM11.4 15.3V16.4C11.4 17.6 10.4 18.6 9.2 18.6C8 18.6 7 17.6 7 16.4V15.3C7.7 15.6 8.4 15.8 9.2 15.8C10 15.8 10.7 15.6 11.4 15.3ZM12 19.6C11.2 20.3 10.2 20.6 9.2 20.6C7.2 20.6 5.5 19.2 5.1 17.3L6.3 17C6.6 18.4 7.8 19.5 9.3 19.5C10.8 19.5 12 18.4 12.3 17L13.5 17.3C13.2 18.2 12.7 19 12 19.6Z"/>
<path d="M10.6 11.9C10.4 11.7 10.1 11.8 10 12C9.8 12.2 9.6 12.4 9.3 12.4C9 12.4 8.8 12.3 8.6 12C8.4 11.8 8.2 11.8 8 11.9C7.8 12.1 7.8 12.3 7.9 12.5C8.3 12.9 8.8 13.2 9.3 13.2C9.8 13.2 10.3 13 10.7 12.5C10.8 12.3 10.7 12 10.6 11.9Z"/>
<path d="M7.2 9.2C7 9.2 6.8 9.4 6.8 9.6V10.1C6.8 10.3 7 10.5 7.2 10.5C7.4 10.5 7.6 10.3 7.6 10.1V9.6C7.6 9.4 7.4 9.2 7.2 9.2Z"/>
<path d="M11.3 9.2C11.1 9.2 10.9 9.4 10.9 9.6V10.1C10.9 10.3 11.1 10.5 11.3 10.5C11.5 10.5 11.7 10.3 11.7 10.1V9.6C11.8 9.4 11.6 9.2 11.3 9.2Z"/>
<path d="M24.6 14.5C24.4 14.3 24.1 14.4 24 14.6C23.8 14.8 23.6 15 23.3 15C23 15 22.8 14.9 22.6 14.6C22.4 14.4 22.2 14.4 22 14.5C21.8 14.7 21.8 14.9 21.9 15.1C22.3 15.5 22.8 15.8 23.3 15.8C23.8 15.8 24.3 15.6 24.7 15.1C24.8 14.9 24.8 14.6 24.6 14.5Z"/>
<path d="M21.2 11.8C21 11.8 20.8 12 20.8 12.2V12.7C20.8 12.9 21 13.1 21.2 13.1C21.4 13.1 21.6 12.9 21.6 12.7V12.2C21.6 12 21.4 11.8 21.2 11.8Z"/>
<path d="M25.4 11.8C25.2 11.8 25 12 25 12.2V12.7C25 12.9 25.2 13.1 25.4 13.1C25.6 13.1 25.8 12.9 25.8 12.7V12.2C25.8 12 25.6 11.8 25.4 11.8Z"/>
<path d="M29.7 20.8L26.1 19.4H26C28.4 18.9 29.5 18.5 29.6 18.4C29.8 18.3 29.9 18.1 29.9 17.9C29.9 17.9 29.4 13.7 29.4 10.2C29.4 6.8 26.6 4 23.2 4C19.8 4 17 6.8 17 10.2C17 13.8 16.5 17.9 16.5 17.9C16.5 18.1 16.6 18.3 16.8 18.4C16.9 18.4 18 18.9 20.4 19.4H20.3L16.7 20.8C15.9 21.1 15.4 21.8 15.4 22.7V23.8H14.2V21.7L15.2 19.7C15.3 19.5 15.2 19.2 15 19.1C14.8 19 14.5 19.1 14.4 19.3L13.4 21.4C13.4 21.5 13.4 21.5 13.4 21.6V29.9C13.4 30.1 13.6 30.3 13.8 30.3C14 30.3 14.2 30.1 14.2 29.9V24.6H15.4V25.2C15.4 25.3 15.4 25.4 15.5 25.5C15.6 25.6 15.7 25.6 15.8 25.6H15.9V29.8C15.9 30 16.1 30.2 16.3 30.2C16.5 30.2 17 30.1 17 29.9V25.7H18.2V29.9C18.2 30.1 18.4 30.3 18.6 30.3C18.8 30.3 19 30.1 19 29.9V24.2C19 24 18.8 23.8 18.6 23.8C18.4 23.8 18.2 24 18.2 24.2V24.8H16.5V22.7C16.5 22.2 16.8 21.8 17.2 21.7L19 21C19.6 22.9 21.4 24.2 23.4 24.2C25.4 24.2 27.2 22.9 27.8 21L29.6 21.7C30 21.9 30.3 22.3 30.3 22.7V24.8H28.6V24.2C28.6 24 28.4 23.8 28.2 23.8C28 23.8 27.8 24 27.8 24.2V29.9C27.8 30.1 28 30.3 28.2 30.3C28.4 30.3 28.6 30.1 28.6 29.9V25.7H29.8V29.9C29.8 30.1 30 30.3 30.2 30.3C30.4 30.3 30.6 30.1 30.6 29.9V25.7H30.7C30.9 25.7 31.1 25.5 31.1 25.3V22.7C31 21.8 30.5 21.1 29.7 20.8ZM18 10.1C18 7.2 20.4 4.8 23.3 4.8C26.2 4.8 28.6 7.2 28.6 10.1C28.6 13.1 29 16.5 29.1 17.6C28.6 17.8 27.5 18.1 25.9 18.4V17.6C26.1 17.5 26.4 17.3 26.6 17.1C27.5 16.4 28.1 15.4 28.4 14.3C28.5 13.9 28.5 13.5 28.5 13.2C28.5 10.6 26.6 10.3 24.9 9.9C23.8 9.7 22.6 9.4 21.6 8.7C21.5 8.6 21.4 8.6 21.2 8.6C21.1 8.6 21 8.7 20.9 8.8C20.9 8.8 20.7 9.3 20.2 9.8C19.8 10.2 19.3 10.7 18.7 10.7C18.5 10.7 18.3 10.7 18.1 10.8C18 10.6 18 10.4 18 10.1ZM23.3 17.5C22.3 17.5 21.4 17.2 20.6 16.6C19.9 16 19.3 15.2 19.1 14.2C19 13.9 19 13.6 19 13.3C19 13.1 18.8 12.9 18.6 12.9C18.3 12.9 18 12.6 18 12.3C18 12 18.3 11.7 18.6 11.7C19.9 11.7 20.9 10.5 21.3 9.8C22.3 10.5 23.5 10.7 24.5 10.9C26.4 11.3 27.4 11.6 27.4 13.3C27.4 13.6 27.4 13.9 27.3 14.2C27.1 15.1 26.6 16 25.8 16.6C25.2 17.2 24.3 17.5 23.3 17.5ZM17.5 17.6C17.6 16.9 17.7 15.3 17.9 13.5C18 13.6 18.1 13.6 18.2 13.6C18.2 13.9 18.3 14.1 18.3 14.4C18.6 15.5 19.2 16.5 20.1 17.2C20.3 17.4 20.6 17.5 20.8 17.7V18.5C19.1 18.1 18 17.8 17.5 17.6ZM23.3 23.2C21.6 23.2 20.2 22.1 19.7 20.5L20.7 20.1C21.3 19.9 21.6 19.3 21.6 18.7V18.1C22.1 18.3 22.7 18.4 23.2 18.4C23.7 18.4 24.3 18.3 24.8 18.1V18.8C24.8 19.4 25.2 19.9 25.7 20.2L26.7 20.6C26.4 22.1 24.9 23.2 23.3 23.2Z"/>
</svg>
