<svg width="80" height="80" xmlns="http://www.w3.org/2000/svg"><path d="M32.4383 11.6l-.6822-2.58a32.8385 32.8385 0 0 0-4.0564 1.3107l1.0274 2.4706A30.3594 30.3594 0 0 1 32.4383 11.6zM68.3951 24.052a32.3867 32.3867 0 0 0-2.3659-3.4667L63.8611 22.2a29.734 29.734 0 0 1 2.1694 3.1827l2.3646-1.3307zM23.1602 67.4493a33.0138 33.0138 0 0 0 3.7918 1.908l1.0915-2.4453a30.2062 30.2062 0 0 1-3.4724-1.7493l-1.4109 2.2866zM11.0878 32.0827l-2.6279-.7187a31.5297 31.5297 0 0 0-.8773 4.0827l2.7015.3773a28.9058 28.9058 0 0 1 .8037-3.7413zM18.9687 19.0667l-1.9102-1.904a32.5555 32.5555 0 0 0-2.8462 3.1133l2.1476 1.6427a29.8511 29.8511 0 0 1 2.6088-2.852zM63.2225 17.4387a32.9876 32.9876 0 0 0-3.1968-2.76l-1.6714 2.1093a29.642 29.642 0 0 1 2.9321 2.5333l1.9361-1.8826zM68.8099 48.2667l2.6183.7506c.4-1.3357.7104-2.6954.9292-4.0706l-2.6961-.4134a28.871 28.871 0 0 1-.8514 3.7334zM60.7638 61.184l1.8857 1.924a32.644 32.644 0 0 0 2.883-3.0667l-2.1271-1.672a29.6706 29.6706 0 0 1-2.6416 2.8147zM40 10.6667h.1951V8H40a34.0755 34.0755 0 0 0-4.0537.2427l.3315 2.6453A31.582 31.582 0 0 1 40 10.6667zM69.0105 32.436l2.636-.6867a31.3974 31.3974 0 0 0-1.3644-3.9533l-2.5228 1.0173a28.7194 28.7194 0 0 1 1.2512 3.6227zM65.6512 55.2373l2.3305 1.388a31.7164 31.7164 0 0 0 1.9757-3.6933l-2.4956-1.0773a29.0928 29.0928 0 0 1-1.8106 3.3826zM40 69.3333h-.5553L39.3887 72H40a34.6773 34.6773 0 0 0 3.6498-.1947l-.2974-2.652a31.2549 31.2549 0 0 1-3.3524.18zM54.4725 65.704l1.318 2.336a33.3249 33.3249 0 0 0 3.5953-2.2467l-1.6169-2.1493a30.288 30.288 0 0 1-3.2964 2.06zM69.765 36.1853A28.8528 28.8528 0 0 1 70.0174 40c0 .244 0 .4853-.0082.728l2.7289.0627c0-.2667.0095-.5334.0095-.7907a31.6974 31.6974 0 0 0-.2729-4.1587l-2.7097.344zM14.1537 25.0747l-2.3482-1.36a31.8897 31.8897 0 0 0-1.9293 3.716l2.5092 1.0493a28.999 28.999 0 0 1 1.7683-3.4053zM47.2001 68.484l.6535 2.5893a33.023 33.023 0 0 0 4.0701-1.2613l-.9919-2.4787a30.3621 30.3621 0 0 1-3.7317 1.1507zM25.2028 14.472l-1.3467-2.3173a33.303 33.303 0 0 0-3.5666 2.2893l1.6373 2.1333a30.505 30.505 0 0 1 3.276-2.1053zM30.9689 70.768a33.6417 33.6417 0 0 0 4.1696.8827l.4094-2.6374a30.8179 30.8179 0 0 1-3.8204-.8106l-.7586 2.5653zM56.4905 12.348a32.939 32.939 0 0 0-3.8204-1.8667L51.6126 12.94a30.5348 30.5348 0 0 1 3.4957 1.7053l1.3822-2.2973zM11.4043 55.6a32.2525 32.2525 0 0 0 2.3196 3.4987l2.1899-1.5907a29.654 29.654 0 0 1-2.1299-3.2093L11.4043 55.6zM16.4923 62.2787a32.9013 32.9013 0 0 0 3.1627 2.8l1.696-2.0894a29.8532 29.8532 0 0 1-2.8994-2.5666l-1.9593 1.856zM48.6396 9.1267a33.2769 33.2769 0 0 0-4.1807-.832l-.3656 2.6386a30.457 30.457 0 0 1 3.8327.7614l.7136-2.568zM9.9826 40.0067v-.3734L7.2538 39.6v.4a31.4956 31.4956 0 0 0 .225 3.764l2.7098-.3093a29.1728 29.1728 0 0 1-.206-3.448zM10.8968 47.212l-2.647.6533a31.6162 31.6162 0 0 0 1.3235 3.9707l2.5364-.9867a28.5915 28.5915 0 0 1-1.2129-3.6373z" fill="#000"/><path d="M79.915 31.0987c-.6079-1.8277-1.7385-3.447-3.2583-4.6667a10.9931 10.9931 0 0 1-2.2281-2.632 10.9137 10.9137 0 0 1-.7436-3.4133c-.032-1.8977-.6155-3.7474-1.6824-5.3334-1.3472-1.3744-3.067-2.3455-4.9583-2.8a11.4295 11.4295 0 0 1-3.2241-1.456 11.0523 11.0523 0 0 1-2.1517-2.732c-.8731-1.7089-2.2268-3.139-3.9023-4.1226a10.414 10.414 0 0 0-5.6651-.412 11.6733 11.6733 0 0 1-3.598.0506 11.1532 11.1532 0 0 1-3.0918-1.52C43.8421.89 41.9664.1755 40 0c-1.9677.179-3.8435.8977-5.4113 2.0733A11.2 11.2 0 0 1 31.4969 3.6a11.7611 11.7611 0 0 1-3.598-.052 10.4378 10.4378 0 0 0-5.6651.412c-1.6766.9833-3.0309 2.414-3.9036 4.124a11.0582 11.0582 0 0 1-2.1504 2.732 11.433 11.433 0 0 1-3.2241 1.4507c-1.8912.4546-3.611 1.4258-4.9583 2.8C6.9304 16.6526 6.347 18.5023 6.315 20.4a10.9154 10.9154 0 0 1-.7436 3.4133 10.9724 10.9724 0 0 1-2.2295 2.632C1.823 27.6653.6927 29.2846.085 31.112c-.2473 1.8563.0474 3.743.85 5.4427A11.0614 11.0614 0 0 1 1.796 40a11.062 11.062 0 0 1-.861 3.4587c-.8026 1.6996-1.0973 3.5864-.85 5.4426.608 1.8277 1.7386 3.447 3.2583 4.6667A10.9925 10.9925 0 0 1 5.5714 56.2c.43 1.0925.681 2.2444.7436 3.4133.032 1.8977.6155 3.7474 1.6824 5.3334 1.349 1.3695 3.0686 2.3359 4.9583 2.7866a11.4351 11.4351 0 0 1 3.2241 1.456 11.0534 11.0534 0 0 1 2.1517 2.732c.8731 1.709 2.2268 3.1391 3.9023 4.1227a10.438 10.438 0 0 0 5.6651.412 11.677 11.677 0 0 1 3.598-.0507 11.1546 11.1546 0 0 1 3.0918 1.52C36.1563 79.1014 38.0322 79.8206 40 80c1.9677-.179 3.8435-.8977 5.4113-2.0733A11.1998 11.1998 0 0 1 48.5031 76.4a11.8888 11.8888 0 0 1 3.598.052 10.3978 10.3978 0 0 0 5.6651-.412c1.6766-.9833 3.0309-2.4141 3.9036-4.124a11.0584 11.0584 0 0 1 2.1504-2.732 11.433 11.433 0 0 1 3.2241-1.4507c1.8904-.4527 3.6101-1.4215 4.9583-2.7933 1.0669-1.586 1.6504-3.4356 1.6824-5.3333a10.9144 10.9144 0 0 1 .7436-3.4134 10.9714 10.9714 0 0 1 2.2295-2.632c1.519-1.2199 2.6492-2.8392 3.2569-4.6666.2473-1.8563-.0474-3.743-.8501-5.4427A11.0619 11.0619 0 0 1 78.204 40a11.062 11.062 0 0 1 .8609-3.4587c.8027-1.6996 1.0974-3.5864.8501-5.4426zM76.4875 44.336a7.8543 7.8543 0 0 1 .7668 3.9733c-.526 1.32-1.3962 2.4825-2.5242 3.372-1.1061.9613-2.0387 2.0976-2.7588 3.3614a12.912 12.912 0 0 0-.9974 4.2666c-.012 1.3929-.3918 2.7592-1.1025 3.9667-1.0511.9499-2.3357 1.6182-3.729 1.94a13.516 13.516 0 0 0-4.025 1.888c-1.1083.975-2.0413 2.1247-2.7603 3.4013-.6307 1.2643-1.5883 2.3457-2.7779 3.1374a8.425 8.425 0 0 1-4.1766.1626 14.0188 14.0188 0 0 0-4.5026 0 13.2583 13.2583 0 0 0-3.9418 1.8667c-1.1473.8836-2.5125 1.4566-3.9582 1.6613-1.4454-.2053-2.81-.7787-3.9568-1.6626a13.2682 13.2682 0 0 0-3.9405-1.8667 8.685 8.685 0 0 0-1.8843-.188 24.4893 24.4893 0 0 0-2.6197.1893 8.441 8.441 0 0 1-4.1765-.1626c-1.1889-.7925-2.1463-1.8737-2.778-3.1374-.7189-1.2762-1.6519-2.4256-2.7602-3.4a13.482 13.482 0 0 0-4.0237-1.8893c-1.3938-.3205-2.6787-.9889-3.729-1.94-.711-1.2069-1.0912-2.5727-1.1038-3.9653a12.9207 12.9207 0 0 0-.996-4.2667c-.7207-1.263-1.6533-2.3988-2.7589-3.36-1.1273-.8908-1.9965-2.0542-2.5215-3.3747a7.8539 7.8539 0 0 1 .7668-3.9733A13.0788 13.0788 0 0 0 4.525 40a13.0795 13.0795 0 0 0-1.0124-4.336 7.8539 7.8539 0 0 1-.7668-3.9733c.526-1.32 1.3962-2.4825 2.5242-3.372 1.106-.9613 2.0387-2.0976 2.7588-3.3614.5738-1.3578.911-2.8.9974-4.2666.012-1.3929.3918-2.7592 1.1025-3.9667 1.0511-.9499 2.3357-1.6182 3.729-1.94a13.516 13.516 0 0 0 4.025-1.888c1.1084-.9751 2.041-2.1253 2.7589-3.4027.6316-1.264 1.5896-2.3454 2.7793-3.1373a8.442 8.442 0 0 1 4.1766-.1627 13.8643 13.8643 0 0 0 4.5026 0 13.2589 13.2589 0 0 0 3.9418-1.8666c1.1475-.8832 2.5126-1.4557 3.9582-1.66 1.4454.2053 2.81.7787 3.9568 1.6626a13.2686 13.2686 0 0 0 3.9405 1.8667 13.8727 13.8727 0 0 0 4.5026 0 8.4121 8.4121 0 0 1 4.1765.1627c1.1896.7913 2.1479 1.8716 2.7807 3.1346.7189 1.2763 1.652 2.4256 2.7603 3.4a13.481 13.481 0 0 0 4.0237 1.8894c1.3938.3204 2.6787.9889 3.7289 1.94.7113 1.2073 1.0915 2.5736 1.1039 3.9666a12.9186 12.9186 0 0 0 .996 4.2667c.7207 1.263 1.6533 2.3988 2.7589 3.36 1.1285.8899 1.9992 2.0529 2.5255 3.3733a7.8545 7.8545 0 0 1-.7668 3.9734A13.0789 13.0789 0 0 0 75.4751 40a13.08 13.08 0 0 0 1.0124 4.336z M44.5354 34.6667L40 21.0107l-4.5354 13.656H20.7848l11.8787 8.416-4.534 13.6373L40 48.292l11.8705 8.428-4.534-13.6373 11.8787-8.416H44.5354zm2.1503 15.0666L40 44.9947l-6.6857 4.7386 2.5515-7.676-6.668-4.724h8.2507L40 29.6507l2.5515 7.6826h8.2507l-6.6734 4.7294 2.5569 7.6706z M65.9241 40c0-5.0105-1.5204-9.9084-4.369-14.0744-2.8486-4.1661-6.8974-7.4131-11.6344-9.3305-4.737-1.9175-9.9495-2.4192-14.9782-1.4417-5.0288.9775-9.6481 3.3903-13.2736 6.9332-3.6256 3.543-6.0946 8.0569-7.0949 12.9711-1.0003 4.9142-.4869 10.0079 1.4752 14.6369 1.9622 4.6291 5.2849 8.5856 9.5481 11.3693 4.2632 2.7837 9.2754 4.2694 14.4027 4.2694 6.8732-.0074 13.4627-2.6788 18.3227-7.4281C63.1828 53.1559 65.9165 46.7165 65.9241 40zM40 62.6667c-4.5876 0-9.0722-1.3294-12.8866-3.8201-3.8144-2.4906-6.7874-6.0306-8.543-10.1724-1.7556-4.1418-2.215-8.6993-1.32-13.0962.895-4.3969 3.1042-8.4358 6.3481-11.6058 3.2439-3.1699 7.3769-5.3287 11.8763-6.2033 4.4995-.8746 9.1633-.4258 13.4016 1.2898 4.2384 1.7156 7.861 4.6209 10.4098 8.3484C61.8349 31.1346 63.1953 35.517 63.1953 40c-.0069 6.0095-2.4529 11.771-6.8014 16.0204C52.0455 60.2697 46.1497 62.66 40 62.6667z"/></svg>