<svg width="195" height="70" viewBox="0 0 195 70" fill="none" xmlns="http://www.w3.org/2000/svg">
<path d="M70 70H0V0L35 35L70 70Z" fill="#929394"/>
<path d="M70 0H0V70L35 35L70 0Z" fill="#C1BEBF"/>
<path d="M0 70V0L35 35L0 70Z" fill="#504C4C"/>
<path d="M96.5 14.2002H101V31.6002H96.5V14.2002Z" fill="#2E2E2E"/>
<path d="M103.1 25.2004C103.1 21.5004 106.1 18.4004 110.3 18.4004C114.4 18.4004 117.4 21.4004 117.4 25.2004C117.4 28.9004 114.4 32.0004 110.2 32.0004C106.1 32.0004 103.1 28.9004 103.1 25.2004ZM113 25.2004C113 23.6004 111.9 22.3004 110.3 22.3004C108.7 22.3004 107.6 23.6004 107.6 25.2004C107.6 26.8004 108.7 28.1004 110.3 28.1004C111.9 28.1004 113 26.8004 113 25.2004Z" fill="#2E2E2E"/>
<path d="M120.1 27.5998V22.2998H118.6V18.5998H120.1V15.2998H124.6V18.5998H127.6V22.2998H124.6V26.6998C124.6 27.5998 125 27.9998 125.8 27.9998C126.4 27.9998 127 27.7998 127.5 27.5998V31.1998C126.7 31.6998 125.6 31.8998 124.3 31.8998C121.7 31.8998 120.1 30.6998 120.1 27.5998Z" fill="#2E2E2E"/>
<path d="M128.6 30L130.3 27.3C131.8 28.3 133.4 28.8 134.7 28.8C135.5 28.8 135.8 28.6 135.8 28.1C135.8 27.6 135.1 27.4 133.7 27C131.1 26.3 129.1 25.5 129.1 22.8C129.1 20.1 131.3 18.5 134.3 18.5C136.2 18.5 138.1 19 139.6 20L138 22.9C136.7 22.2 135.2 21.7 134.2 21.7C133.5 21.7 133.1 22 133.1 22.4C133.1 22.9 133.8 23.1 135.2 23.5C137.8 24.2 139.8 25.1 139.8 27.7C139.8 30.5 137.7 32 134.5 32C132.6 31.9 130.4 31.3 128.6 30Z" fill="#2E2E2E"/>
<path d="M141.9 18.7004H146.4V20.5004C147.2 19.4004 148.4 18.4004 150.2 18.4004C151.9 18.4004 153.2 19.2004 153.9 20.5004C155 19.2004 156.3 18.4004 158.2 18.4004C160.9 18.4004 162.6 20.1004 162.6 23.1004V31.6004H158.1V24.6004C158.1 23.2004 157.4 22.4004 156.3 22.4004C155.2 22.4004 154.4 23.1004 154.4 24.6004V31.6004H150V24.6004C150 23.2004 149.3 22.4004 148.2 22.4004C147.1 22.4004 146.4 23.1004 146.4 24.6004V31.6004H141.9V18.7004Z" fill="#2E2E2E"/>
<path d="M164.4 27.9C164.4 25.2 166.4 23.8 169.5 23.8C170.7 23.8 171.9 24 172.6 24.3V24.1C172.6 22.8 171.8 22 170 22C168.6 22 167.6 22.3 166.4 22.7L165.5 19.5C167 18.9 168.5 18.5 170.7 18.5C173 18.5 174.6 19 175.6 20.1C176.6 21.1 177 22.4 177 24.2V31.6H172.5V30.3C171.6 31.3 170.4 31.9 168.7 31.9C166.3 31.9 164.4 30.5 164.4 27.9ZM172.7 27V26.4C172.2 26.2 171.6 26.1 170.9 26.1C169.6 26.1 168.8 26.7 168.8 27.7C168.8 28.6 169.5 29.1 170.4 29.1C171.7 29.1 172.7 28.3 172.7 27Z" fill="#2E2E2E"/>
<path d="M179.4 18.7004H183.9V20.5004C184.7 19.4004 185.9 18.4004 187.8 18.4004C190.5 18.4004 192.2 20.2004 192.2 23.2004V31.7004H187.7V24.7004C187.7 23.3004 187 22.5004 185.9 22.5004C184.8 22.5004 184 23.3004 184 24.7004V31.7004H179.5V18.7004H179.4Z" fill="#2E2E2E"/>
<path d="M94.3 49.4996C94.3 45.4996 97.3 43.0996 100.2 43.0996C102.6 43.0996 104.2 44.4996 105.2 45.9996V38.0996H106.4V55.4996H105.2V52.7996C104.1 54.3996 102.6 55.7996 100.2 55.7996C97.3 55.7996 94.3 53.4996 94.3 49.4996ZM105.3 49.3996C105.3 46.2996 102.9 44.1996 100.3 44.1996C97.6 44.1996 95.5 46.0996 95.5 49.4996C95.5 52.6996 97.7 54.7996 100.3 54.7996C102.8 54.6996 105.3 52.5996 105.3 49.3996Z" fill="#2E2E2E"/>
<path d="M114.2 49.4C114.2 45.9 116.7 43 120 43C123.4 43 125.6 45.8 125.6 49.4C125.6 49.6 125.6 49.7 125.6 49.9H115.5C115.7 52.9 117.9 54.7 120.3 54.7C122.2 54.7 123.5 53.9 124.5 52.8L125.3 53.5C124.1 54.8 122.6 55.8 120.3 55.8C116.9 55.8 114.2 53.3 114.2 49.4ZM124.3 48.9C124.1 46.4 122.7 44.2 119.9 44.2C117.5 44.2 115.6 46.2 115.4 48.9H124.3Z" fill="#2E2E2E"/>
<path d="M132.1 53.9996L132.8 53.0996C134.1 54.0996 135.6 54.6996 137.2 54.6996C138.8 54.6996 140.1 53.7996 140.1 52.2996C140.1 50.8996 138.6 50.2996 136.9 49.8996C134.9 49.2996 132.7 48.6996 132.7 46.4996C132.7 44.4996 134.3 43.0996 136.7 43.0996C138.2 43.0996 139.8 43.5996 141 44.3996L140.4 45.3996C139.3 44.6996 137.9 44.1996 136.6 44.1996C134.9 44.1996 133.8 45.0996 133.8 46.3996C133.8 47.7996 135.4 48.2996 137.2 48.7996C139.2 49.2996 141.2 50.0996 141.2 52.2996C141.2 54.4996 139.3 55.8996 137 55.8996C135.3 55.7996 133.4 55.0996 132.1 53.9996Z" fill="#2E2E2E"/>
<path d="M149.2 38.5996H150.7V40.1996H149.2V38.5996ZM149.4 43.3996H150.6V55.5996H149.4V43.3996Z" fill="#2E2E2E"/>
<path d="M159.1 57.6L159.8 56.6C161.3 57.7 162.9 58.3 164.7 58.3C167.5 58.3 169.5 56.7 169.5 53.6V51.8C168.4 53.3 166.8 54.6 164.4 54.6C161.5 54.6 158.5 52.4 158.5 48.8C158.5 45.3 161.4 43 164.4 43C166.8 43 168.5 44.3 169.5 45.7V43.3H170.7V53.6C170.7 55.4 170.1 56.8 169.1 57.7C168 58.8 166.5 59.3 164.7 59.3C162.7 59.4 160.8 58.8 159.1 57.6ZM169.6 48.8C169.6 46 167.1 44.2 164.6 44.2C162 44.2 159.9 46 159.9 48.9C159.9 51.6 162.1 53.6 164.6 53.6C167.1 53.5 169.6 51.7 169.6 48.8Z" fill="#2E2E2E"/>
<path d="M179.3 43.3996H180.5V45.6996C181.3 44.2996 182.7 43.0996 184.9 43.0996C188 43.0996 189.8 45.1996 189.8 48.0996V55.5996H188.6V48.3996C188.6 45.8996 187.2 44.1996 184.7 44.1996C182.3 44.1996 180.5 45.9996 180.5 48.4996V55.4996H179.3V43.3996Z" fill="#2E2E2E"/>
</svg>
