<svg width="60" height="60" viewBox="0 0 60 60" fill="none" xmlns="http://www.w3.org/2000/svg">
<path d="M60 0H0V60H60V0Z" fill="white"/>
<path d="M20 60C25.5 60 30 55.5 30 50V40H20C14.5 40 10 44.5 10 50C10 55.5 14.5 60 20 60Z" fill="#48BA7F"/>
<path d="M10 30C10 24.5 14.5 20 20 20H30V40H20C14.5 40 10 35.5 10 30Z" fill="#8162AA"/>
<path d="M10 10C10 4.5 14.5 0 20 0H30V20H20C14.5 20 10 15.5 10 10Z" fill="#F05023"/>
<path d="M30 0H40C45.5 0 50 4.5 50 10C50 15.5 45.5 20 40 20H30V0Z" fill="#F37264"/>
<path d="M50 30C50 35.5 45.5 40 40 40C34.5 40 30 35.5 30 30C30 24.5 34.5 20 40 20C45.5 20 50 24.5 50 30Z" fill="#47B8E9"/>
</svg>
