<svg width="60" height="60" viewBox="0 0 60 60" fill="none" xmlns="http://www.w3.org/2000/svg">
<g clip-path="url(#clip0)">
<path d="M1.3 0H58.8C59.4 0 60 0.6 60 1.3V58.8C60 59.5 59.4 60.1 58.7 60.1H1.3C0.6 60 0 59.4 0 58.7V1.3C0 0.6 0.6 0 1.3 0Z" fill="#FDC113"/>
<path d="M29.4334 32.4004L26.2 22.7004L22.9667 32.4004H29.4334Z" fill="#5E4138"/>
<path fill-rule="evenodd" clip-rule="evenodd" d="M53.8 5H6.3C5.6 5 5 5.6 5 6.2V53.7C5 54.4 5.6 55 6.3 55.1H53.7C54.4 55.1 55 54.5 55 53.8V6.3C55 5.6 54.4 5 53.8 5ZM42.5 18.7004C42.5 19.4184 41.918 20.0004 41.2 20.0004C40.482 20.0004 39.9 19.4184 39.9 18.7004C39.9 17.9824 40.482 17.4004 41.2 17.4004C41.918 17.4004 42.5 17.9824 42.5 18.7004ZM32.5 41.6004C32.7 42.2004 33.2 42.5004 33.7 42.5004C33.9 42.5004 34 42.5004 34.1 42.4004C34.8 42.2004 35.1 41.5004 34.9 40.8004L27.4 18.3004C27.2 18.0004 27 17.7004 26.7 17.6004C26.1 17.4004 25.3 17.6004 25 18.3004L17.5 40.8004C17.4 41.4004 17.7 42.1004 18.3 42.3004C18.9 42.6004 19.7 42.2004 19.9 41.6004L22.1 35.0004H30.3L32.5 41.6004ZM41.2 42.5004C40.5 42.5004 39.9 41.9004 39.9 41.2004V23.7004C39.9 23.0004 40.5 22.4004 41.2 22.4004C41.9 22.4004 42.5 23.0004 42.5 23.7004V41.2004C42.5 41.9004 41.9 42.5004 41.2 42.5004Z" fill="#5E4138"/>
</g>
<defs>
<clipPath id="clip0">
<rect width="60" height="60" fill="white"/>
</clipPath>
</defs>
</svg>
