<svg width="60" height="60" viewBox="0 0 60 60" fill="none" xmlns="http://www.w3.org/2000/svg">
<path d="M58.3 60H1.7C0.7 60 0 59.2 0 58.3V1.7C0 0.8 0.8 0 1.7 0H58.2C59.2 0 59.9 0.8 59.9 1.7V58.2C60 59.2 59.2 60 58.3 60Z" fill="#F06095"/>
<path d="M37.4881 35.8237C37.2624 36.277 36.2554 38.2996 33.9001 38.2996C31.4001 38.2996 29.8 36.0996 29.8 33.8996C29.8 31.8996 31.1 29.3996 33.7001 29.3996C36 29.3996 37.3 31.8996 37.5 32.2996V35.7996L37.4881 35.8237Z" fill="#801E33"/>
<path fill-rule="evenodd" clip-rule="evenodd" d="M6.6 55H53.4C54.3 55 55.1 54.3 55 53.4V6.7C55 5.8 54.2 5 53.3 5H6.6C5.7 5 5 5.7 5 6.6V53.4C5 54.3 5.7 55 6.6 55ZM25.9 33.7996C25.9 37.8996 28.6001 41.4996 32.9001 41.4996C35.8 41.4996 37.4 39.5996 38.1 38.4996C38.1 38.4996 37.9 41.2996 40.6 41.2996C40.8929 41.2996 41.2393 41.246 41.6785 41.1781C41.8393 41.1532 42.0125 41.1264 42.2001 41.0996V37.8996C41.9001 37.8996 41.3 37.1996 41.3 36.7996V20.5996H37.5V28.9996C37 28.1996 35.5 26.1996 32.5 26.1996C29 26.1996 25.9 29.1996 25.9 33.7996ZM19.3 21.2996V41.2996H23.2001V21.2996H19.3Z" fill="#801E33"/>
</svg>
