<svg width="60" height="60" viewBox="0 0 60 60" xmlns="http://www.w3.org/2000/svg"><g><path d="M1.3 0H58.8C59.4 0 60 0.6 60 1.3V58.8C60 59.5 59.4 60.1 58.7 60.1H1.3C0.6 60 0 59.4 0 58.7V1.3C0 0.6 0.6 0 1.3 0Z" fill="#95C8EC"/><path d="M20 30.3996C22.6 30.9996 25.3 30.4996 27.6 29.0996C29.1 28.2996 30 26.6996 30 24.9996C30.1 23.6996 29.5 22.3996 28.6 21.4996C26 19.7996 23 19.2996 20 19.8996V30.3996Z" fill="#283A91"/><path fill-rule="evenodd" clip-rule="evenodd" d="M6.2 5H53.7C54.4 5 55 5.6 55 6.3V53.8C55 54.5 54.4 55.1 53.7 55.1H6.2C5.6 55 5 54.4 5 53.8V6.2C5 5.6 5.6 5 6.2 5ZM18.8 42.4996C18.1 42.4996 17.5 41.8996 17.5 41.1996V18.7996C17.5 18.1996 18 17.5996 18.6 17.4996C22.3 16.9996 27.2 16.9996 30.2 19.5996C31.7 20.9996 32.6 22.9996 32.5 24.9996C32.5 27.4996 31.1 29.8996 29 31.1996C26.3 32.8996 23.1 33.4996 20 32.8996V41.1996C20 41.8996 19.4 42.4996 18.8 42.4996ZM35.3999 40.8999C36.6999 41.9999 38.3999 42.5999 40.0999 42.5999C40.8999 42.5999 41.5999 42.3999 42.2999 42.1999C44.0999 41.3999 45.1999 39.5999 44.9999 37.5999C44.9999 34.0759 42.3169 33.1391 40.3277 32.4445C40.2848 32.4295 40.2422 32.4146 40.1999 32.3999C38.2999 31.6999 37.4999 31.2999 37.4999 30.0999C37.3999 29.1999 37.8999 28.2999 38.7999 27.8999C40.1999 27.3999 41.6999 27.5999 42.8999 28.4999C43.3999 28.8999 44.1999 28.8999 44.6999 28.3999C45.0999 27.8999 45.0999 27.0999 44.5999 26.5999C42.6999 24.9999 40.0999 24.5999 37.7999 25.4999C35.9999 26.1999 34.8999 28.0999 34.9999 29.9999C34.9999 33.0999 37.5999 33.9999 39.4999 34.5999C41.6999 35.3999 42.5999 35.7999 42.5999 37.4999C42.5999 39.2999 41.6999 39.6999 41.3999 39.7999C39.9999 40.2999 38.3999 39.9999 37.1999 39.0999C36.6999 38.5999 35.8999 38.5999 35.3999 39.0999C34.8999 39.5999 34.8999 40.3999 35.3999 40.8999Z" fill="#283A91"/></g></svg>