<svg width="60" height="60" viewBox="0 0 60 60" fill="none" xmlns="http://www.w3.org/2000/svg">
<path fill-rule="evenodd" clip-rule="evenodd" d="M0 0H60V60H0V0Z" fill="#5FAA45"/>
<path fill-rule="evenodd" clip-rule="evenodd" d="M0 11.3004C2.1 13.0004 4.5 15.7004 6.6 17.8004C8.8 20.0004 10.8 22.0004 13 24.2004L22.6 33.8004C23.9 35.1004 24 35.8004 23.4 36.8004C21.8 39.2004 20.2 37.4004 18.8 36.0004C16 33.2004 1.6 18.4004 0 17.5004V29.2004C1.3 30.1004 2.8 31.9004 4.1 33.1004C5.5 34.5004 6.7 35.7004 8.1 37.1004C10.7 39.7004 13.3 42.6004 16 45.0004C17.3 46.2004 19.5 47.0004 21.2 47.9004C23 48.8004 24.5 49.7004 26.2 50.6004C28.5 51.8004 41 59.8004 37 51.6004L27.6 33.7004L11 17.2004C9.3 15.5004 1.3 7.20039 0 6.40039V11.3004Z" fill="white"/>
<path fill-rule="evenodd" clip-rule="evenodd" d="M49.5 36.1H37.8L39.4 43.2H47.9L49.5 36.1Z" fill="#AFD3A0"/>
<path fill-rule="evenodd" clip-rule="evenodd" d="M19.9 0H17.9C19.3 5.2 24 13 26.7 16.9C30.4 22.5 33.7 26.1 38.1 30.9C32.1 23.4 21.9 8.3 19.9 0ZM43.6 0V32.2H43.5C43.2 32.2 42.8 32.2 42.2 32.2C39.7 20.9 36.4 13.1 35.1 0H43.6ZM28.1 0H22.5C24.2 7.6 34 26 40.6 31.6C35.5 22.8 30.8 11.2 28.1 0Z" fill="#AFD3A0"/>
<path fill-rule="evenodd" clip-rule="evenodd" d="M60 17.4C56.4 22.8 53.2 26.3 48.9 31C52 27 56.3 20.9 60 14.8V17.4ZM43.3 0V32.2H43.4C43.7 32.2 44.1 32.2 44.7 32.2C47.3 20.9 50.5 13.1 51.9 0H43.3ZM58.8 0H60V11.3C56.1 19.2 50.6 28.1 46.3 31.6C51.4 22.8 56.1 11.2 58.8 0Z" fill="#AFD3A0"/>
</svg>
