<svg width="58" height="58" viewBox="0 0 58 58" xmlns="http://www.w3.org/2000/svg"><path fill-rule="evenodd" clip-rule="evenodd" d="M32.6346 57.7744C46.9353 55.9863 58 43.7853 58 29C58 12.9837 45.0163 0 29 0C12.9837 0 0 12.9837 0 29C0 43.1484 10.132 54.9304 23.536 57.486V36.6761H19V29.3261H23.5363V24.9015C23.5363 21.7613 24.301 19.3849 25.8306 17.7714C27.3604 16.1588 29.8773 15.3525 33.3817 15.3525H39.4382V22.7017H35.6498C34.9558 22.7017 34.4 22.7575 33.9817 22.8699C33.564 22.9824 33.2614 23.1848 33.0747 23.478C32.8876 23.7712 32.767 24.0685 32.714 24.3709C32.6609 24.6733 32.6347 25.1006 32.6347 25.652V29.3261H39.4912L38.6906 36.6761H32.6346V57.7744ZM29.1458 57.9996H28.8542C28.9028 57.9999 28.9514 58 29 58C29.0486 58 29.0972 57.9999 29.1458 57.9996Z"/></svg>