<svg width="58" height="58" viewBox="0 0 58 58" xmlns="http://www.w3.org/2000/svg"><path fill-rule="evenodd" clip-rule="evenodd" d="M29 58C45.0163 58 58 45.0163 58 29C58 12.9837 45.0163 0 29 0C12.9837 0 0 12.9837 0 29C0 45.0163 12.9837 58 29 58ZM48.0688 37.3865C48.0186 37.2907 47.9756 37.2091 47.9326 37.1408C47.252 35.9722 45.9481 34.5303 44.0279 32.8295L43.9849 32.7878L43.9634 32.7678L43.942 32.747H43.9204C43.0464 31.9549 42.4947 31.4218 42.2654 31.1486C41.8427 30.6288 41.7495 30.1032 41.9788 29.5701C42.1436 29.167 42.7598 28.3124 43.8201 27.0146C44.379 26.3241 44.8232 25.771 45.1527 25.3546C47.51 22.3618 48.5345 20.4485 48.2192 19.6214L48.0974 19.4306C48.0186 19.314 47.8037 19.2049 47.4669 19.1091C47.123 19.0133 46.686 18.9933 46.1558 19.0616L40.2665 19.1024C40.1733 19.0683 40.0372 19.075 39.8581 19.1091L39.593 19.1707L39.4927 19.2182L39.4139 19.2799C39.3423 19.3215 39.2705 19.3898 39.1918 19.4848C39.113 19.5806 39.0414 19.6972 38.9911 19.8271C38.3464 21.3981 37.6228 22.8607 36.7988 24.2134C36.2973 25.0197 35.8316 25.7161 35.4088 26.3108C34.9861 26.9055 34.6351 27.3353 34.3485 27.616C34.0619 27.8959 33.804 28.1216 33.5675 28.2857C33.3382 28.4565 33.1592 28.5248 33.0373 28.4973L32.9718 28.4823C32.874 28.4598 32.7802 28.439 32.6863 28.4223C32.4929 28.3057 32.3424 28.1491 32.2277 27.9442C32.1131 27.7385 32.0343 27.4861 31.9914 27.1854C31.9483 26.878 31.9268 26.6182 31.9196 26.3924C31.9133 26.1992 31.9182 25.931 31.9244 25.592L31.9268 25.457C31.9411 25.0539 31.9483 24.7807 31.9483 24.6366C31.9483 24.1451 31.9555 23.6054 31.977 23.024C31.9892 22.695 31.9991 22.7124 32.0079 22.7291L32.008 22.7293C32.0148 22.7409 32.021 22.7517 32.0271 22.6075C32.0415 22.2727 32.0487 21.9103 32.0487 21.5347C32.0487 21.159 32.0271 20.865 31.977 20.6467C31.9268 20.4352 31.8552 20.2228 31.7621 20.0245C31.6689 19.8271 31.5256 19.6697 31.3393 19.5531C31.1531 19.4439 30.9238 19.3557 30.6516 19.2874C29.9279 19.1299 29.0109 19.0475 27.8932 19.0341C25.3569 19.0067 23.7305 19.1641 23.0068 19.5056C22.7202 19.6489 22.4624 19.8404 22.2331 20.0928C21.9895 20.3802 21.9537 20.5376 22.1328 20.5643C22.9495 20.6809 23.5298 20.9608 23.8738 21.4047L23.9956 21.6371C24.0887 21.8079 24.1891 22.1086 24.2821 22.5325C24.3753 22.9632 24.4398 23.4346 24.4685 23.9535C24.4736 24.0282 24.4782 24.0961 24.4825 24.1581C24.5092 24.5464 24.5203 24.707 24.5158 24.8665C24.5126 24.9792 24.5018 25.0914 24.4832 25.2829C24.4788 25.329 24.4739 25.3797 24.4685 25.4362C24.3968 26.1126 24.3324 26.639 24.275 27.0146C24.2105 27.3903 24.1245 27.6977 23.9956 27.93C23.8738 28.1624 23.7878 28.3057 23.7519 28.3607C23.709 28.4157 23.6803 28.4423 23.6517 28.4565C23.4725 28.5181 23.2935 28.5523 23.1 28.5523C22.9066 28.5523 22.6773 28.4631 22.4051 28.2782C22.1328 28.0941 21.8462 27.8484 21.5596 27.5269C21.2659 27.2062 20.9363 26.7614 20.5637 26.1875C20.1983 25.6136 19.8115 24.9373 19.4174 24.1584L19.0878 23.5912C18.88 23.2297 18.6006 22.6966 18.2496 21.9994C17.8913 21.3023 17.5833 20.6326 17.311 19.977C17.2036 19.7038 17.0387 19.4989 16.8166 19.3557L16.7163 19.294C16.6518 19.239 16.5372 19.1841 16.3868 19.1299C16.2363 19.0683 16.0787 19.0275 15.9139 19L10.3111 19.0408C9.73801 19.0408 9.35103 19.1641 9.14331 19.4098L9.06451 19.5264C9.02147 19.5947 9 19.6972 9 19.8404C9 19.9837 9.04294 20.1611 9.12184 20.3669C9.92426 22.2252 10.8199 23.9877 11.7799 25.6961C12.74 27.4036 13.5782 28.7705 14.2875 29.8092C14.9968 30.8479 15.7205 31.8316 16.4584 32.7537C17.1964 33.6766 17.6835 34.2705 17.92 34.5303C18.1564 34.7902 18.3498 34.9885 18.4859 35.1176L18.9947 35.589C19.3242 35.9039 19.8043 36.2729 20.4348 36.7102C21.0725 37.1475 21.7745 37.5781 22.5412 38.0013C23.3149 38.4252 24.2105 38.7667 25.2279 39.0333C26.2525 39.2998 27.2483 39.4089 28.2155 39.354H30.5656C31.0456 39.3131 31.4038 39.1699 31.6474 38.9233L31.7262 38.8284C31.7835 38.7526 31.8337 38.6301 31.8767 38.466C31.9268 38.3019 31.9483 38.1245 31.9483 37.9263C31.934 37.3657 31.977 36.8601 32.0844 36.4161C32.1848 35.9655 32.2994 35.6307 32.4356 35.4049C32.5645 35.1792 32.715 34.9885 32.8726 34.831C33.0373 34.6736 33.152 34.5778 33.2236 34.5512C33.2881 34.517 33.3454 34.4962 33.3885 34.4829C33.718 34.3804 34.0977 34.4829 34.5419 34.7836C34.9861 35.0909 35.4017 35.4666 35.7885 35.9172C36.1754 36.3687 36.6412 36.8668 37.1929 37.4273C37.7373 37.9879 38.2174 38.4044 38.6258 38.6776L39.0342 38.91C39.3064 39.0674 39.6646 39.2107 40.1017 39.3406C40.5387 39.4706 40.9184 39.5047 41.248 39.4364L46.4853 39.3606C47.0012 39.3606 47.4096 39.279 47.689 39.1149C47.9756 38.9508 48.1476 38.7734 48.1977 38.5752C48.2551 38.3769 48.2551 38.1587 48.2049 37.9121C48.1619 37.6597 48.1117 37.489 48.0688 37.3865Z"/></svg>